<svg width="194" height="58" viewBox="0 0 194 58" fill="none" xmlns="http://www.w3.org/2000/svg">
<path d="M186.943 14.2401C190.841 14.2401 194 11.0523 194 7.12004C194 3.18775 190.841 0 186.943 0C183.046 0 179.886 3.18775 179.886 7.12004C179.886 11.0523 183.046 14.2401 186.943 14.2401Z" fill="#00F500"/>
<path d="M110.973 53.8414C107.382 53.8414 104.541 50.9745 104.541 47.2884C104.541 43.6024 107.382 40.7355 110.973 40.7355C114.564 40.7355 117.468 43.6024 117.468 47.2884C117.468 50.9745 114.595 53.8414 110.973 53.8414ZM117.499 40.578H116.718C115.313 38.0261 112.69 36.5454 109.662 36.5454C104.697 36.5454 100.076 41.2396 100.076 47.2884C100.076 53.3373 104.572 58 109.662 58C112.69 58 115.313 56.5193 116.718 53.9674H117.499V57.4644H121.933V37.0179H117.499V40.578ZM142.979 45.1146H132.612V37.0179H128.178V57.4644H132.612V49.3677H142.979V57.4644H147.413V37.0179H142.979V45.1146ZM163.056 47.0364L173.548 37.0179H167.49L158.091 46.4063V37.0179H153.626V57.4644H158.06V48.0445L167.553 57.4644H174.047L163.056 47.0364ZM89.5529 53.4948H82.4024V48.3596H89.5529C91.5825 48.3596 92.5505 49.4308 92.5505 50.9115C92.5505 52.3922 91.6137 53.4948 89.5529 53.4948ZM90.0525 44.3585H82.3712V41.019H95.3919V37.0179H77.9372V57.4644H90.0525C94.2054 57.4644 97.0468 54.692 97.0468 50.9115C97.0468 47.1309 94.1742 44.3585 90.0525 44.3585ZM10.8975 23.975C7.30662 23.975 4.49638 21.1396 4.49638 17.4221C4.49638 13.7045 7.30662 10.8691 10.8975 10.8691C14.4883 10.8691 17.3922 13.7045 17.3922 17.4221C17.3922 21.1396 14.4883 23.975 10.8975 23.975ZM17.3922 10.6801H16.6116C15.2065 8.1282 12.5836 6.64748 9.5548 6.64748C4.59005 6.64748 0 11.3417 0 17.4221C0 23.5025 4.46515 28.1336 9.5548 28.1336C12.5836 28.1336 15.2065 26.6529 16.6116 24.101H17.3922V27.5981H21.8262V7.15156H17.3922V10.6801ZM141.886 23.912C138.201 23.912 135.516 21.0766 135.516 17.3906C135.516 13.673 138.232 10.8376 141.886 10.8376C145.445 10.8376 148.256 13.673 148.256 17.3906C148.256 21.0766 145.539 23.912 141.886 23.912ZM141.886 6.64748C136.546 6.64748 132.237 10.365 131.269 15.2797H127.522V7.15156H123.088V27.5981H127.522V19.4384H131.269C132.206 24.4161 136.546 28.1021 141.886 28.1021C147.85 28.1021 152.69 23.3449 152.69 17.3906C152.721 11.4362 147.818 6.64748 141.886 6.64748ZM154.313 11.3732H161.745V27.5665H166.179V11.3732H173.61V7.15156H154.313V11.3732ZM105.446 7.15156L96.7658 27.5981H101.45L108.194 11.2787L114.939 27.5981H119.81L111.129 7.15156H105.446ZM60.9509 10.8691C65.3224 10.8691 66.5089 14.2401 66.5089 14.2401H71.1927C71.1927 14.2401 69.3504 6.67899 60.9509 6.67899C54.9245 6.67899 50.2096 11.4362 50.2096 17.4221C50.2096 23.4394 54.9245 28.1651 60.9509 28.1651C69.3504 28.1651 71.1927 20.604 71.1927 20.604H66.5089C66.5089 20.604 65.2912 23.975 60.9509 23.975C57.3913 23.975 54.7372 21.1396 54.7372 17.4221C54.7372 13.7045 57.3913 10.8691 60.9509 10.8691ZM39.718 23.5655H32.5363V18.4617H39.718C41.7476 18.4617 42.7156 19.5329 42.7156 21.0136C42.7156 22.4943 41.7789 23.5655 39.718 23.5655ZM40.2488 14.4921H32.5363V11.1841H45.5571V7.15156H28.1024V27.5981H40.2488C44.3705 27.5981 47.2432 24.8256 47.2432 21.0451C47.2432 17.2645 44.3081 14.4921 40.2488 14.4921ZM84.6818 23.912C80.9348 23.912 78.187 21.0766 78.187 17.3906C78.187 13.673 80.9348 10.8376 84.6818 10.8376C88.3039 10.8376 91.1766 13.673 91.1766 17.3906C91.1766 21.0766 88.3663 23.912 84.6818 23.912ZM84.6818 6.64748C78.5617 6.64748 73.6907 11.4047 73.6907 17.3906C73.6907 23.3449 78.5305 28.1021 84.6818 28.1021C90.7707 28.1021 95.7042 23.3449 95.7042 17.3906C95.673 11.4362 90.677 6.64748 84.6818 6.64748Z" fill="#FF5000"/>
</svg>
