<svg width="143" height="65" viewBox="0 0 143 65" fill="none" xmlns="http://www.w3.org/2000/svg">
<path d="M0.201752 17.0001C0.201752 26.3001 7.79644 33.9001 17.0899 33.9001C26.3834 33.9001 33.9781 26.3001 33.9781 17.0001C33.9781 7.7001 26.3834 0.100098 17.0899 0.100098C7.69651 0.200098 0.201752 7.7001 0.201752 17.0001Z" fill="#EC6608" stroke="#EC6608" stroke-width="0.3"/>
<path d="M0.201752 42.9C0.201752 45.4 7.79644 47.4 17.0899 47.4C26.3834 47.4 33.9781 45.4 33.9781 42.9C33.9781 40.4 26.3834 38.4 17.0899 38.4C7.69651 38.4 0.201752 40.4 0.201752 42.9Z" fill="#EC6608" stroke="#EC6608" stroke-width="0.3"/>
<path d="M16.9891 51.9C29.0806 51.9 33.8772 53.1 33.8772 54.7C33.8772 56.3 29.1805 57.5 16.9891 57.5C4.79759 57.5 0.100876 56.3 0.100876 54.7C0.200806 53.1 4.89752 51.9 16.9891 51.9Z" fill="#EC6608" stroke="#EC6608" stroke-width="0.3"/>
<path d="M16.9891 62C31.9786 62 33.8772 62.3 33.8772 63.1C33.8772 63.9 31.9786 64.2 16.9891 64.2C1.99955 64.2 0.100876 63.9 0.100876 63.1C0.200806 62.3 1.99955 62 16.9891 62Z" fill="#EC6608" stroke="#EC6608" stroke-width="0.3"/>
<path d="M54.0636 42.1001C55.4626 42.1001 57.0615 42.5001 58.3606 43.1001L58.9602 46.8001H60.9588V41.4001C59.6597 40.9001 57.3613 40.2001 54.3634 40.2001C50.0664 40.2001 47.2683 41.6001 45.6695 43.1001C43.6709 44.9001 41.8721 47.9001 41.8721 52.3001C41.8721 57.0001 43.9706 59.9001 45.0699 61.0001C47.768 64.0001 51.1656 64.7001 54.0636 64.7001C56.362 64.7001 58.8602 64.2001 61.0587 63.5001V57.9001H59.0601L58.1607 62.3001C57.0615 62.6001 55.6625 62.8001 54.5632 62.8001C50.8658 62.8001 48.8672 61.1001 47.6681 59.7001C46.369 58.1001 45.4696 55.6001 45.4696 52.3001C45.4696 49.5001 46.1691 46.6001 47.8679 44.7001C48.9672 43.3001 51.0657 42.1001 54.0636 42.1001Z" fill="white"/>
<path d="M83.3417 42.9002C85.74 45.1002 87.2389 48.4002 87.2389 52.5002C87.2389 56.3002 85.9398 59.4002 84.0412 61.4002C82.5422 63.1002 79.8441 64.9002 75.8469 64.9002C72.2494 64.9002 69.5513 63.4002 67.7526 61.6002C66.3536 60.2002 64.4549 57.3002 64.4549 52.5002C64.4549 47.6002 66.4535 44.6002 68.3522 42.9002C69.7512 41.7002 72.1495 40.2002 75.8469 40.2002C79.2445 40.1002 81.6429 41.3002 83.3417 42.9002ZM70.8504 44.0002C69.0517 45.8002 68.1523 48.9002 68.1523 52.4002C68.1523 53.8002 68.2522 57.3002 70.1509 59.9002C71.8497 62.4002 74.248 63.0002 75.8469 63.0002C77.146 63.0002 79.5443 62.6002 81.443 60.2002C83.3417 57.6002 83.5415 54.0002 83.5415 52.6002C83.5415 49.0002 82.5422 45.9002 80.9433 44.2002C79.1446 42.2002 76.8462 42.1002 75.8469 42.1002C73.4486 41.9002 71.8497 43.0002 70.8504 44.0002Z" fill="white"/>
<path d="M118.817 42.8001C117.518 41.6001 115.12 40.1001 111.522 40.1001C108.525 40.1001 105.926 41.2001 104.128 42.8001C101.23 45.4001 100.63 49.3001 100.43 51.5001H95.5336V42.3001L98.3316 42.1001V40.7001H89.7377V42.1001L92.3358 42.3001V62.6001L89.7377 62.8001V64.2001H98.3316V62.8001L95.5336 62.6001V53.1001H100.43C100.63 56.6001 102.029 59.7001 103.528 61.5001C104.927 63.1001 107.425 64.8001 111.323 64.8001C115.42 64.8001 117.918 63.0001 119.417 61.3001C121.316 59.2001 122.515 56.1001 122.515 52.4001C122.515 48.3001 121.016 44.9001 118.817 42.8001ZM116.819 60.1001C115.42 62.0001 113.421 62.9001 111.422 62.9001C109.724 62.9001 107.425 62.3001 105.826 59.8001C104.527 57.8001 103.928 54.9001 103.928 52.3001C103.928 49.6001 104.627 46.0001 106.526 43.9001C107.725 42.6001 109.324 41.8001 111.522 41.8001C113.421 41.8001 114.92 42.4001 116.219 43.9001C118.118 46.0001 118.717 49.5001 118.717 52.4001C118.817 55.2001 118.218 58.1001 116.819 60.1001Z" fill="white"/>
<path d="M130.51 51.1001V53.2001L133.508 52.8001C134.807 52.8001 136.805 52.9001 138.104 54.3001C138.804 55.0001 139.303 56.1001 139.303 57.8001C139.303 59.4001 138.804 60.8001 137.205 61.8001C135.906 62.7001 134.107 62.9001 132.708 62.9001C131.109 62.9001 129.71 62.5001 128.611 61.9001L128.011 57.4001H126.013V63.6001C129.211 64.7001 131.909 64.7001 132.808 64.7001C134.907 64.7001 138.004 64.2001 140.003 62.8001C142.002 61.4001 142.801 59.5001 142.801 57.3001C142.801 55.9001 142.401 54.5001 141.102 53.3001C139.903 52.2001 138.104 51.7001 136.605 51.6001V51.5001C137.805 51.2001 139.204 50.5001 140.103 49.6001C141.302 48.4001 141.602 47.2001 141.602 46.0001C141.602 43.5001 140.403 42.1001 139.004 41.2001C137.405 40.3001 135.306 40.1001 133.208 40.1001C132.009 40.1001 129.81 40.2001 126.812 41.1001V46.6001H128.811L129.211 42.8001C130.61 42.2001 132.208 41.9001 133.208 41.9001C134.507 41.9001 135.706 42.1001 136.805 43.1001C137.605 43.8001 138.204 44.9001 138.204 46.4001C138.204 47.7001 137.805 49.0001 136.505 50.0001C135.606 50.8001 134.507 51.1001 133.408 51.2001L130.51 51.1001Z" fill="white"/>
<path d="M57.5602 19.4001C55.7615 18.2001 53.4631 18.0001 51.4645 18.0001C51.0648 18.0001 49.4659 18.0001 47.4673 18.2001V9.60006H56.461L57.0606 13.1001H59.0592V8.00006H41.7713V9.40006L44.3694 9.60006V30.0001L41.7713 30.2001V31.6001H51.0648C52.9634 31.6001 55.9613 31.4001 57.9599 29.7001C59.8586 28.2001 60.2583 26.2001 60.2583 24.7001C60.2583 22.3001 59.3589 20.6001 57.5602 19.4001ZM55.2618 28.6001C53.8628 30.0001 51.6643 30.0001 50.0654 30.0001C49.266 30.0001 48.3666 30.0001 47.4673 29.9001V19.9001C48.5665 19.7001 49.8656 19.6001 50.9648 19.6001C52.4638 19.6001 54.1626 19.8001 55.3617 21.0001C56.461 22.2001 56.6608 23.7001 56.6608 24.8001C56.7608 25.9001 56.461 27.5001 55.2618 28.6001Z" fill="white"/>
<path d="M84.5413 29.8002L76.1472 7.80017H73.8488L65.6545 29.8002L62.7566 30.2002V31.6002H70.5511V30.2002L67.6531 30.0002L70.3512 22.8002H78.6454L81.3436 30.0002L78.7454 30.2002V31.6002H86.7398V30.2002L84.5413 29.8002ZM70.8509 21.2002L74.3484 11.5002L77.9459 21.2002H70.8509Z" fill="white"/>
<path d="M114.822 9.50006V8.00006H106.228V9.50006L109.026 9.70006V18.9001H96.9341V9.70006L99.7321 9.50006V8.00006H91.1381V9.50006L93.7363 9.70006V30.0001L91.1381 30.2001V31.6001H99.7321V30.2001L96.9341 30.0001V20.5001H109.026V30.0001L106.228 30.2001V31.6001H114.822V30.2001L112.223 30.0001V9.70006L114.822 9.50006Z" fill="white"/>
<path d="M140.204 30.0001L132.209 18.5001L139.604 9.70006L142.003 9.50006V8.00006H134.608V9.50006L137.206 9.70006L129.511 19.0001H126.913V9.70006L129.711 9.50006V8.00006H121.117V9.50006L123.815 9.70006V30.0001L121.117 30.2001V31.6001H129.711V30.2001L126.913 30.0001V20.5001H129.811L137.706 31.6001H142.902V30.2001L140.204 30.0001Z" fill="white"/>
</svg>
