<svg width="72" height="58" viewBox="0 0 72 58" fill="none" xmlns="http://www.w3.org/2000/svg">
<path d="M61.5953 44.2461V44.1541V20.3859C61.5953 17.4593 59.2142 15.0781 56.2875 15.0781H12.3094H12.1982L12.21 14.9675L13.1998 5.68084L61.5953 44.2461ZM61.5953 44.2461L61.687 44.2537M61.5953 44.2461L61.687 44.2537M61.687 44.2537L63.7264 44.424C65.2073 44.5482 66.513 43.4434 66.6367 41.9623L69.2777 10.3332C69.3376 9.61587 69.1143 8.9179 68.6496 8.36835C68.1849 7.81878 67.5334 7.48287 66.816 7.42301L16.1128 3.18937L61.687 44.2537ZM10.6004 5.41841L10.6004 5.41841L10.6006 5.41643C10.7224 4.01022 11.3824 2.73477 12.4606 1.82272C13.5433 0.907081 14.9169 0.467861 16.3301 0.585887L67.0333 4.81953C68.4464 4.93755 69.7283 5.59853 70.6441 6.68106C71.5599 7.76373 71.9991 9.13756 71.8812 10.5507L69.2402 42.1798C69.0091 44.9468 66.6831 47.0461 63.9547 47.0461C63.8074 47.0461 63.6587 47.0399 63.5091 47.0275L61.7036 46.8768L61.5953 46.8677V46.9764V52.1251C61.5953 55.0517 59.2142 57.4328 56.2875 57.4328H5.40771C2.48114 57.4328 0.1 55.0517 0.1 52.1251V20.3859C0.1 17.4593 2.48114 15.0781 5.40771 15.0781H9.4809H9.57081L9.58034 14.9887L10.6004 5.41841ZM58.8828 23.3779H58.9828V23.2779V20.3859C58.9828 18.8996 57.7737 17.6906 56.2875 17.6906H5.40771C3.92149 17.6906 2.71249 18.8996 2.71249 20.3859V23.2779V23.3779H2.81249H58.8828ZM2.81249 25.9904H2.71249V26.0904V31.9248V32.0248H2.81249H58.8828H58.9828V31.9248V26.0904V25.9904H58.8828H2.81249ZM2.81249 34.6373H2.71249V34.7373V52.1251C2.71249 53.6113 3.92149 54.8203 5.40771 54.8203H56.2875C57.7737 54.8203 58.9828 53.6113 58.9828 52.1251V34.7373V34.6373H58.8828H2.81249ZM13.2993 5.69131C13.3004 5.68062 13.3014 5.67007 13.3022 5.65925C13.4213 4.23317 14.678 3.16949 16.1045 3.28902L16.1128 3.18937C14.6312 3.06524 13.3263 4.16986 13.2026 5.65092L13.2025 5.65148C13.2018 5.66125 13.2009 5.67085 13.1998 5.68071L13.2993 5.69131Z" fill="#02B0FB" stroke="white" stroke-width="0.2"/>
<path d="M51.5926 47.8482H51.6926V47.7482V41.731V41.631H51.5926H40.8711H40.7711V41.731V47.7482V47.8482H40.8711H51.5926ZM39.4648 39.0185H52.9989C53.7203 39.0185 54.3051 39.6033 54.3051 40.3247V49.1544C54.3051 49.8759 53.7203 50.4607 52.9989 50.4607H39.4648C38.7434 50.4607 38.1586 49.8759 38.1586 49.1544V40.3247C38.1586 39.6033 38.7434 39.0185 39.4648 39.0185Z" fill="#02B0FB" stroke="white" stroke-width="0.2"/>
</svg>
