<svg width="197" height="23" viewBox="0 0 197 23" fill="none" xmlns="http://www.w3.org/2000/svg">
<g clip-path="url(#clip0_739_3406)">
<path d="M11.6378 8.20705C11.6378 4.45815 14.6091 1.4185 18.2738 1.4185C21.9384 1.4185 24.9098 4.45815 24.9098 8.20705C24.9098 11.9559 21.9384 14.9956 18.2738 14.9956C14.6091 14.9956 11.6378 11.9559 11.6378 8.20705Z" fill="#FDA329"/>
<path d="M36.597 17.5286H0V22.6454H36.597V17.5286Z" fill="#FDA329"/>
<path d="M2.47612 1.36784C1.63424 1.36784 0.792358 1.51982 0 1.87445V14.489C3.41704 15.9075 7.27979 14.185 8.66642 10.6894C10.053 7.19383 8.36928 3.24229 4.95224 1.87445C4.15988 1.57048 3.318 1.36784 2.47612 1.36784Z" fill="#FDA329"/>
<path d="M34.0714 1.36784C34.9133 1.36784 35.7552 1.51982 36.5475 1.87445V14.489C33.1305 15.9075 29.2677 14.2357 27.8811 10.7401C26.4945 7.24449 28.1287 3.29295 31.5458 1.87445C32.3876 1.57048 33.2295 1.36784 34.0714 1.36784Z" fill="#FDA329"/>
<path d="M63.9829 4.6608C65.9638 6.68723 66.9543 9.22027 66.9543 12.2599C66.9543 15.2996 65.9638 17.8326 63.9829 19.859C62.002 21.9361 59.5259 22.9493 56.505 22.9493C52.8404 22.9493 49.6214 21.0749 47.8881 18.0859L51.3052 16.0595C52.2461 17.8326 54.227 18.9471 56.505 18.9471C59.7735 18.9471 62.1011 17.0727 62.7944 14.0837H53.8308V10.2841H62.7944C62.1011 7.29516 59.7735 5.42071 56.505 5.42071C54.227 5.42071 52.2956 6.48458 51.3052 8.35903L47.8881 6.3326C49.6214 3.34362 52.8899 1.46917 56.505 1.46917C59.5259 1.57049 62.002 2.5837 63.9829 4.6608Z" fill="#004259"/>
<path d="M82.8014 22.5441H78.493L73.2931 15.8568V22.5441H69.5789V7.85242H73.2931V14.337L78.2453 7.85242H82.6528L76.8587 15.0969L82.8014 22.5441Z" fill="#004259"/>
<path d="M85.0299 20.7203C83.5938 19.2004 82.9005 17.3767 82.9005 15.1982C82.9005 13.0198 83.5938 11.196 85.0299 9.67621C86.5156 8.15639 88.2984 7.44714 90.4774 7.44714C93.2506 7.44714 95.7267 8.9163 96.9153 11.2467L93.7459 13.1718C93.1516 11.9559 91.9135 11.196 90.4774 11.196C88.2489 11.196 86.6146 12.8678 86.6146 15.1982C86.6146 16.3634 87.0108 17.326 87.7041 18.0859C88.447 18.7952 89.3384 19.2004 90.4774 19.2004C91.963 19.2004 93.2011 18.4912 93.7954 17.2753L97.0143 19.1498C95.7267 21.4802 93.3002 22.9493 90.5269 22.9493C88.2984 22.9493 86.5156 22.2401 85.0299 20.7203Z" fill="#004259"/>
<path d="M112.168 7.85242V22.5441H108.454V11.3987H102.759V22.5441H99.0448V7.85242H112.168Z" fill="#004259"/>
<path d="M122.37 22.9493C120.24 22.9493 118.458 22.2401 116.972 20.7203C115.486 19.2004 114.793 17.3767 114.793 15.1982C114.793 13.0198 115.486 11.196 116.972 9.72687C118.458 8.20705 120.24 7.44714 122.37 7.44714C124.499 7.44714 126.282 8.20705 127.768 9.72687C129.253 11.2467 129.996 13.0705 129.996 15.1982C129.996 17.326 129.253 19.2004 127.768 20.7203C126.282 22.2401 124.499 22.9493 122.37 22.9493ZM122.37 19.2511C123.509 19.2511 124.4 18.8458 125.143 18.0859C125.886 17.326 126.282 16.3634 126.282 15.1982C126.282 14.033 125.886 13.0705 125.143 12.3106C124.4 11.5507 123.459 11.1454 122.37 11.1454C121.231 11.1454 120.339 11.5507 119.597 12.3106C118.903 13.0705 118.507 14.033 118.507 15.1982C118.507 16.3634 118.903 17.326 119.597 18.0859C120.339 18.8458 121.231 19.2511 122.37 19.2511Z" fill="#004259"/>
<path d="M133.908 20.7203C132.522 19.2004 131.829 17.326 131.829 15.0463C131.829 12.5639 132.225 10.5881 132.918 9.27092C133.661 7.90308 135.097 6.63656 137.326 5.52203C137.623 5.37004 138.118 5.11674 138.712 4.86344L139.901 4.25551C140.148 4.15419 140.445 3.95154 140.842 3.7489C141.882 3.09031 142.179 2.5837 142.674 1.4185L145.695 3.19163C145.447 4.40749 144.902 5.31938 144.011 5.97797C143.169 6.63656 141.882 7.29515 140.099 7.95374C137.672 8.9163 136.731 9.82819 136.236 11.196C137.276 10.0815 138.712 9.52423 140.544 9.52423C142.129 9.52423 143.565 10.1322 144.803 11.2974C146.041 12.4626 146.685 14.033 146.685 16.0088C146.685 18.0352 146.041 19.6564 144.655 20.9736C143.318 22.2907 141.584 22.8987 139.405 22.8987C137.127 22.9493 135.345 22.2401 133.908 20.7203ZM136.83 13.4758C136.087 14.0837 135.741 14.8943 135.741 15.9075C135.741 16.9207 136.087 17.7819 136.781 18.4405C137.524 19.0991 138.366 19.4537 139.405 19.4537C140.445 19.4537 141.287 19.1498 141.981 18.4912C142.624 17.8326 142.971 17.022 142.971 16.0088C142.971 14.033 141.485 12.5639 139.405 12.5639C138.415 12.5639 137.573 12.8678 136.83 13.4758Z" fill="#004259"/>
<path d="M159.809 7.85242H163.523V22.5441H159.809V20.8216C158.67 22.2401 157.135 22.9493 155.104 22.9493C153.173 22.9493 151.538 22.2401 150.152 20.7203C148.815 19.2004 148.121 17.3767 148.121 15.1982C148.121 13.0198 148.815 11.196 150.152 9.72687C151.538 8.20705 153.173 7.44714 155.104 7.44714C157.135 7.44714 158.67 8.15639 159.809 9.57489V7.85242ZM155.797 19.3524C156.936 19.3524 157.877 18.9471 158.62 18.1872C159.413 17.3767 159.759 16.4141 159.759 15.1982C159.759 13.9824 159.363 13.0198 158.62 12.2093C157.877 11.3987 156.936 11.0441 155.797 11.0441C154.658 11.0441 153.717 11.4493 152.975 12.2093C152.232 12.9692 151.836 13.9824 151.836 15.1982C151.836 16.4141 152.232 17.4273 152.975 18.1872C153.717 18.9471 154.658 19.3524 155.797 19.3524Z" fill="#004259"/>
<path d="M176.3 7.85242H180.014V22.5441H176.3V16.9714H170.605V22.5441H166.89V7.85242H170.605V13.4251H176.3V7.85242Z" fill="#004259"/>
<path d="M196.604 22.5441H192.295L187.046 15.8568V22.5441H183.332V7.85242H187.046V14.337L191.998 7.85242H196.406L190.661 15.0969L196.604 22.5441Z" fill="#004259"/>
</g>
<defs>
<clipPath id="clip0_739_3406">
<rect width="197" height="23" fill="white"/>
</clipPath>
</defs>
</svg>
