<svg width="245" height="49" viewBox="0 0 245 49" fill="none" xmlns="http://www.w3.org/2000/svg">
<path d="M244.927 31.09C244.118 33.6028 242.305 35.0563 239.954 36.091C237.822 37.0271 235.789 38.1111 233.731 39.1951C232.898 39.6139 232.702 39.4414 232.702 38.5546C232.727 29.0206 232.702 19.4867 232.727 9.95274C232.727 7.41528 233.976 5.54299 236.23 4.36048C239.047 2.88235 241.962 1.65058 244.682 0C245.196 0.221719 244.902 0.665158 244.902 0.98542C244.927 11.0121 244.927 21.0633 244.927 31.09Z" fill="#FE5000"/>
<path d="M168.347 0C168.347 0.640523 168.396 1.30568 168.372 1.9462C168.347 3.96632 167.416 5.44445 165.628 6.38059C163.546 7.46456 161.414 8.47461 159.308 9.55857C158.573 9.95274 158.352 9.82956 158.328 8.96732C158.23 6.38059 159.259 4.53293 161.635 3.35043C163.815 2.2911 166.093 1.35495 168.102 0C168.2 0 168.274 0 168.347 0Z" fill="#FE5000"/>
<path d="M226.602 33.2087C226.602 35.1549 226.627 37.1258 226.602 39.072C226.553 41.4862 225.402 43.2846 223.295 44.3932C220.698 45.7482 218.053 47.0046 215.456 48.3595C214.599 48.803 214.427 48.5566 214.427 47.6944C214.452 43.7527 214.403 39.7864 214.452 35.8447C214.476 33.4551 215.578 31.5828 217.685 30.4495C220.331 29.0207 223.075 27.7396 225.745 26.3847C226.504 25.9905 226.651 26.2615 226.627 26.9759C226.602 29.0453 226.627 31.1393 226.602 33.2087C226.627 33.2087 226.627 33.2087 226.602 33.2087Z" fill="#FE5000"/>
<path d="M17.1728 6.57765C15.2375 9.43537 13.5471 11.9975 11.7833 14.5349C11.2689 15.274 11.2199 15.7913 11.7588 16.5797C13.4736 19.0925 15.0905 21.6792 16.7808 24.2413C17.2218 24.9065 17.2953 25.276 16.3154 25.1774C16.2419 25.1774 16.1439 25.1774 16.0704 25.1774C12.4937 25.2267 12.4937 25.2267 10.5584 22.1719C9.8725 21.1126 9.18657 20.0533 8.50064 18.9939C7.64323 17.6883 6.76131 17.368 5.24247 17.6636C4.65453 17.7868 4.70352 18.181 4.70352 18.5751C4.70352 20.3982 4.65453 22.2458 4.70352 24.0688C4.72802 24.9065 4.48304 25.2021 3.60113 25.2021C0.391952 25.2514 0.391952 25.276 0.391952 21.9995C0.391952 17.3187 0.41645 12.6133 0.367455 7.9326C0.367455 6.89791 0.61243 6.50374 1.73932 6.52838C4.70352 6.57765 4.70352 6.52838 4.70352 9.46C4.70352 10.5932 4.75252 11.7511 4.67902 12.8843C4.63003 13.6973 4.875 13.9929 5.75692 14.0668C7.15328 14.19 8.10868 13.7958 8.81911 12.4902C9.79901 10.7164 11.0239 9.06583 12.1018 7.34135C12.4692 6.77473 12.8857 6.47911 13.5716 6.52838C14.674 6.60228 15.7764 6.57765 17.1728 6.57765Z" fill="#FE5000"/>
<path d="M94.9525 17.097C93.8991 18.3781 92.7967 19.6345 91.7678 20.9402C91.2779 21.556 90.9594 21.5314 90.4694 20.9155C89.4405 19.6098 88.3382 18.3534 87.2603 17.097C86.7458 17.3187 86.9418 17.6883 86.9418 17.9839C86.9173 20.0286 86.9173 22.0734 86.9418 24.0935C86.9663 24.8572 86.7458 25.2021 85.9129 25.1775C82.2138 25.0789 82.8997 25.7194 82.8507 22.2212C82.8017 18.8461 82.8752 15.4464 82.8262 12.0714C82.8262 11.1845 83.1202 10.9381 84.0021 10.8396C85.6679 10.6918 86.8683 11.1845 87.8237 12.6134C88.5341 13.6973 89.563 14.5842 90.298 15.6435C90.9839 16.6043 91.4003 16.3333 91.9883 15.5942C93.0662 14.2147 94.2176 12.8843 95.3444 11.554C95.8344 10.9874 98.5291 10.6179 99.1416 11.012C99.4355 11.2091 99.3865 11.5048 99.3865 11.7757C99.3865 15.9884 99.3865 20.1765 99.3865 24.3891C99.3865 24.9311 99.1906 25.1528 98.6026 25.2267C95.222 25.5716 95.222 25.5963 95.222 22.2458C95.222 20.5706 95.222 18.92 95.222 17.2448C95.124 17.1709 95.026 17.1217 94.9525 17.097Z" fill="#FE5000"/>
<path d="M162.541 16.9738C160.532 19.4374 158.597 21.8024 156.662 24.1674C155.951 25.0296 153.257 25.6209 152.326 25.1282C151.958 24.9311 152.007 24.5862 152.007 24.2906C152.007 20.1272 152.007 15.9638 151.983 11.8004C151.983 11.1352 152.228 10.8889 152.914 10.8396C156.123 10.6179 156.123 10.6179 156.123 13.7712C156.123 15.4711 156.123 17.1709 156.123 19.0186C156.735 18.7722 156.98 18.3288 157.274 17.9839C158.965 15.9391 160.63 13.8697 162.296 11.825C162.982 10.9874 165.628 10.4454 166.559 10.9135C166.951 11.1106 166.877 11.4555 166.877 11.7511C166.877 15.9145 166.877 20.0779 166.902 24.2413C166.902 24.9065 166.706 25.1528 165.995 25.2021C162.762 25.3745 162.762 25.3992 162.762 22.1719C162.762 20.5706 162.737 18.9939 162.737 17.3926C162.737 17.3187 162.688 17.2448 162.541 16.9738Z" fill="#FE5000"/>
<path d="M65.0165 17.9839C65.0165 20.0287 64.992 22.0488 65.0165 24.0935C65.0165 24.8572 64.796 25.2021 63.9876 25.1775C60.166 25.079 60.9009 25.7441 60.8274 22.172C60.7784 19.3882 61.0969 19.8562 58.5247 19.807C57.4958 19.7823 56.4914 19.8316 55.4625 19.807C54.8255 19.7823 54.605 20.0533 54.605 20.6692C54.6295 21.8517 54.5805 23.0342 54.605 24.2167C54.6295 24.8819 54.3846 25.1282 53.6986 25.1775C50.465 25.3746 50.465 25.3992 50.465 22.172C50.465 18.7969 50.4895 15.3972 50.4405 12.0222C50.4405 11.1106 50.7589 10.8396 51.6408 10.8396C54.605 10.815 54.605 10.7904 54.605 13.7959C54.605 16.4565 54.605 16.4812 57.2018 16.4319C58.3532 16.4073 59.8475 16.9739 60.5825 16.1363C61.2684 15.3726 60.7294 13.9437 60.8029 12.8105C60.8274 12.3917 60.8029 11.9975 60.8274 11.5787C60.8274 11.1599 61.0234 10.8889 61.4889 10.8643C62.4198 10.8643 63.3507 10.8643 64.3061 10.8643C65.041 10.8643 65.0165 11.3816 65.0165 11.899C65.0165 13.9191 65.0165 15.9638 65.0165 17.9839Z" fill="#FE5000"/>
<path d="M183.952 18.0086C183.952 20.0533 183.928 22.0734 183.952 24.1182C183.977 24.9065 183.658 25.1775 182.874 25.1775C179.812 25.2514 179.812 25.276 179.812 22.2212C179.812 19.9301 179.788 17.6637 179.812 15.3726C179.837 14.5842 179.641 14.2147 178.734 14.1901C175.231 14.1162 175.231 14.0915 175.231 17.5651C175.231 19.1664 175.255 20.7431 174.888 22.3198C174.374 24.4631 173.051 25.547 171.115 25.3992C169.891 25.3007 169.156 24.6602 169.033 23.5516C168.935 22.7632 168.96 22.1473 170.086 22.1227C171.066 22.1227 171.409 21.3097 171.532 20.4475C171.899 18.0578 171.679 15.6436 171.703 13.2539C171.728 10.815 171.703 10.815 174.178 10.815C177.019 10.815 179.886 10.8396 182.727 10.7904C183.634 10.7657 183.952 11.086 183.928 11.9975C183.903 14.0176 183.952 16.0131 183.952 18.0086Z" fill="#FE5000"/>
<path d="M73.6886 10.8396C75.5994 10.8396 77.5102 10.8642 79.4455 10.8396C80.254 10.8149 80.6459 11.0366 80.6214 11.9235C80.5724 14.732 80.8174 14.2146 78.3677 14.2393C75.8199 14.2639 75.8199 14.2393 75.8199 16.8506C75.8199 19.2156 75.7954 21.5806 75.8199 23.9456C75.8444 24.8079 75.6239 25.1774 74.6685 25.2021C71.6798 25.2267 71.6798 25.276 71.6798 22.2704C71.6798 19.9547 71.6553 17.6143 71.6798 15.2986C71.6798 14.5103 71.4348 14.19 70.6264 14.2146C69.6955 14.2639 68.7401 14.19 67.8092 14.2393C67.0988 14.2639 66.7803 14.0422 66.8048 13.2785C66.8783 10.3469 66.4863 10.8888 69.1566 10.8396C70.6754 10.8149 72.1698 10.8396 73.6886 10.8396Z" fill="#FE5000"/>
<path d="M45.3695 41.6832C45.3695 43.728 45.345 45.7481 45.3695 47.7928C45.394 48.5811 45.1245 48.8768 44.3161 48.8768C43.5321 48.8768 43.2137 48.6058 43.2382 47.8174C43.2872 46.4379 43.2137 45.0336 43.2627 43.654C43.2872 42.8903 43.0667 42.5454 42.2338 42.5701C40.0045 42.6194 37.7507 42.6194 35.5214 42.5701C34.6885 42.5454 34.4925 42.915 34.517 43.654C34.566 45.0829 34.4925 46.5118 34.5415 47.9406C34.566 48.7782 34.1496 48.8768 33.4881 48.8768C32.8267 48.8768 32.3123 48.8521 32.3368 47.916C32.3858 43.728 32.3613 39.5153 32.3368 35.3272C32.3368 34.4404 32.7532 34.3418 33.4637 34.3418C34.2231 34.3172 34.5905 34.5143 34.5415 35.3765C34.4925 36.8054 34.5415 38.2342 34.517 39.6631C34.4925 40.3529 34.664 40.7224 35.448 40.6978C37.7262 40.6485 40.0045 40.6731 42.2828 40.6978C43.0422 40.6978 43.2872 40.4022 43.2627 39.6877C43.2382 38.3821 43.2627 37.0764 43.2627 35.7707C43.2627 35.007 43.1892 34.3418 44.3406 34.3418C45.5409 34.3418 45.345 35.1055 45.345 35.82C45.3695 37.7662 45.3695 39.7124 45.3695 41.6832Z" fill="#FE5000"/>
<path d="M61.5379 48.6798C60.019 49.0493 58.9656 48.9015 58.1082 47.6944C56.9813 46.1423 55.6829 44.7135 54.4581 43.26C53.9191 42.6194 51.7878 42.2253 51.0774 42.5948C50.6609 42.8165 50.7589 43.2107 50.7589 43.5802C50.7344 45.0091 50.7099 46.4379 50.7589 47.8668C50.7834 48.729 50.3425 48.8769 49.632 48.8769C48.9461 48.8769 48.5787 48.7044 48.5787 47.9161C48.6031 43.728 48.6031 39.5154 48.5787 35.3273C48.5787 34.4651 48.9951 34.3419 49.73 34.3419C50.416 34.3419 50.7834 34.539 50.7589 35.3027C50.7344 36.7808 50.7589 38.2343 50.7589 39.7124C50.7589 40.3776 51.0039 40.5993 51.6898 40.6486C53.1352 40.7718 54.2376 40.4761 55.095 39.1458C55.9034 37.8894 57.0303 36.8301 57.8632 35.5737C58.6471 34.4158 59.6025 34.0956 60.9009 34.4651C61.0479 34.9085 60.6559 35.1302 60.46 35.3766C59.1371 37.0272 57.8387 38.7024 56.4424 40.3037C55.7564 41.0674 55.6584 41.6094 56.3934 42.447C58.1327 44.4178 59.7495 46.5119 61.5379 48.6798Z" fill="#FE5000"/>
<path fill-rule="evenodd" clip-rule="evenodd" d="M129.445 12.0961C126.922 11.4802 124.595 11.9236 122.365 13.7959C122.635 11.3817 123.958 10.1499 125.917 9.58328C127.091 9.23844 128.29 9.00057 129.497 8.76131C129.928 8.67581 130.36 8.59012 130.792 8.49931C132.801 8.08051 133.34 7.19363 132.948 5.17352C132.826 4.58227 132.605 4.45909 132.042 4.58227C131.276 4.74246 130.507 4.89084 129.739 5.03911C128.027 5.3697 126.318 5.69974 124.644 6.15894C121.826 6.92264 119.94 8.81957 118.985 11.6034C118.323 13.5496 118.323 15.5451 118.446 17.5405C118.789 23.5023 123.321 26.7296 129.053 25.1283C132.385 24.1921 134.198 21.8025 134.173 18.4274C134.124 15.1755 132.409 12.8352 129.445 12.0961ZM126.26 15.1016C124.105 15.1509 122.806 16.5058 122.831 18.6984C122.855 20.7678 124.374 22.2952 126.383 22.2952C128.465 22.2706 129.935 20.7678 129.935 18.5999C129.935 16.4319 128.49 15.0524 126.26 15.1016Z" fill="#FE5000"/>
<path fill-rule="evenodd" clip-rule="evenodd" d="M30.23 17.6883C31.1854 18.2796 32.0183 18.7969 32.3613 19.8809C33.0717 22.2459 31.7733 24.4138 29.1276 24.9065C27.036 25.2874 24.9334 25.2341 22.8271 25.1807C21.8003 25.1547 20.7727 25.1286 19.745 25.1529C19.1571 25.1775 19.1081 24.7587 19.1081 24.3152V11.7265C19.1081 11.1353 19.2796 10.815 19.941 10.815C20.9034 10.8402 21.8657 10.8252 22.8271 10.8103C24.6801 10.7814 26.5294 10.7526 28.3682 11.0121C30.9649 11.3816 32.3858 12.9829 32.0918 15.1016C31.8958 16.2594 31.1609 16.9985 30.23 17.6883ZM25.2325 22.3198H24.865C22.8317 22.3198 22.4643 21.8517 22.8562 19.807C22.9297 19.4374 23.0767 19.1911 23.4687 19.1911C23.8108 19.1911 24.1529 19.1825 24.4946 19.174H24.4946H24.4946C25.4496 19.1501 26.4011 19.1263 27.3393 19.2896C28.1722 19.4374 28.6621 19.9055 28.6376 20.7924C28.6131 21.6546 28.0987 22.1473 27.2903 22.2459C26.8101 22.3148 26.33 22.2993 25.8498 22.2838C25.644 22.2772 25.4383 22.2705 25.2325 22.2705V22.3198ZM24.8405 16.7275H24.963V16.6536C25.1608 16.6536 25.3559 16.6592 25.5491 16.6647C25.9301 16.6756 26.304 16.6863 26.6778 16.6536C27.5353 16.5797 28.1722 16.1855 28.1722 15.2248C28.1722 14.2393 27.5598 13.8205 26.7023 13.7466C26.0439 13.7004 25.3758 13.7024 24.7102 13.7043C24.311 13.7054 23.9126 13.7066 23.5177 13.6973C23.0522 13.6973 22.9297 13.9683 22.8562 14.3871C22.5623 16.4565 22.7827 16.7275 24.8405 16.7275Z" fill="#FE5000"/>
<path fill-rule="evenodd" clip-rule="evenodd" d="M108.892 25.3992C113.448 25.4485 116.731 22.3444 116.755 18.0086C116.755 13.6727 113.546 10.6426 108.892 10.6426C104.36 10.6426 101.077 13.7713 101.077 18.0825C101.077 22.3444 104.311 25.35 108.892 25.3992ZM108.843 21.9995C110.998 22.0488 112.566 20.3736 112.566 18.0332C112.566 15.7175 111.121 14.0915 108.99 14.0669C106.834 14.0176 105.266 15.6682 105.266 18.0086C105.266 20.3243 106.736 21.9503 108.843 21.9995Z" fill="#FE5000"/>
<path fill-rule="evenodd" clip-rule="evenodd" d="M36.2074 24.5616C38.5346 25.892 41.4009 25.621 43.7281 23.8226C44.855 25.1775 45.296 25.3253 46.9618 25.1283C47.5497 25.1036 47.7457 24.8819 47.7457 24.3153C47.7376 23.3958 47.7403 22.4735 47.743 21.5504C47.7484 19.7034 47.7539 17.8528 47.6722 16.0131C47.5987 14.0176 46.7413 12.3178 44.855 11.4556C41.6458 10.0021 38.4367 10.4455 35.3255 11.9483C35.007 12.1207 34.762 12.3178 34.9335 12.8105C35.35 14.0423 36.2809 14.6582 37.5792 14.4118C37.8366 14.3668 38.0888 14.2961 38.3406 14.2255C38.6401 14.1416 38.939 14.0578 39.2451 14.0176C40.5924 13.8452 41.9643 13.8206 42.9932 14.9292C43.3607 15.2987 43.6791 15.8407 43.5077 16.358C43.36 16.8219 42.9622 16.7826 42.5864 16.7455C42.4633 16.7334 42.3426 16.7215 42.2338 16.7275C41.858 16.7376 41.4823 16.7384 41.1071 16.7392C39.648 16.7423 38.1984 16.7454 36.7953 17.2942C35.301 17.8608 34.3701 18.8955 34.2231 20.5461C34.0761 22.2952 34.6395 23.6748 36.2074 24.5616ZM41.8303 19.1595C41.7622 19.1626 41.6787 19.1665 41.5723 19.1665C40.9354 19.1418 40.1515 19.1665 39.3921 19.3635C38.7061 19.5606 38.2407 20.0041 38.2162 20.7431C38.1672 21.4576 38.5101 21.9749 39.1716 22.2952C40.3475 22.8618 42.1113 22.5415 43.0177 21.6054C43.5811 21.0141 43.7526 20.2997 43.5321 19.5853C43.3833 19.0864 43.0001 19.1263 42.6086 19.167C42.42 19.1867 42.2295 19.2065 42.0623 19.1665C42.003 19.1515 41.9347 19.1547 41.8303 19.1595Z" fill="#FE5000"/>
<path fill-rule="evenodd" clip-rule="evenodd" d="M149.062 21.535C149.065 21.0724 149.068 20.6108 149.068 20.1518C149.057 19.5914 149.06 19.0309 149.063 18.4743C149.067 17.7343 149.071 17.0011 149.043 16.284C148.945 13.5002 147.402 11.6033 144.683 10.9874C142.208 10.4208 139.759 10.6425 137.407 11.7018C136.01 12.3177 135.961 13.0321 137.113 14.0668C137.774 14.6581 138.534 14.6335 139.293 14.3871C140.273 14.0668 141.277 13.919 142.306 14.0176C143.188 14.1161 143.972 14.3871 144.511 15.1508C144.781 15.545 145.05 16.0377 144.805 16.5057C144.629 16.8395 144.267 16.8134 143.929 16.789C143.842 16.7828 143.758 16.7767 143.678 16.7767C143.383 16.781 143.087 16.7816 142.792 16.7822C141.374 16.785 139.961 16.7878 138.583 17.1955C136.745 17.7129 135.643 19.0432 135.545 20.7431C135.422 22.7385 136.353 24.2906 138.24 24.9311C140.469 25.6702 142.723 25.8426 144.683 24.1181C144.703 24.0996 144.724 24.0805 144.745 24.0614C144.944 23.8765 145.144 23.6916 145.344 24.0935C145.905 25.2226 146.92 25.2132 147.934 25.2038C148.026 25.2029 148.118 25.2021 148.21 25.2021C148.847 25.2021 149.068 24.9311 149.068 24.3152C149.051 23.3946 149.057 22.463 149.062 21.535ZM143.092 19.1595C143.001 19.1626 142.891 19.1664 142.747 19.1664C142.208 19.1418 141.449 19.1664 140.763 19.3635C140.101 19.5852 139.636 20.0286 139.587 20.7677C139.538 21.4328 139.857 21.9502 140.444 22.2705C141.596 22.9356 143.654 22.5168 144.487 21.4821C144.977 20.8909 145.099 20.2011 144.854 19.5359C144.682 19.0862 144.293 19.1223 143.906 19.1581C143.742 19.1733 143.579 19.1884 143.433 19.1664C143.329 19.1514 143.233 19.1547 143.092 19.1595Z" fill="#FE5000"/>
<path fill-rule="evenodd" clip-rule="evenodd" d="M2.82631 36.9478C2.71704 37.1022 2.60305 37.2632 2.35141 37.2243C2.22892 35.3273 3.20882 33.4304 4.89916 32.2972C6.02604 31.5335 7.32441 31.1886 8.64728 30.8929C8.99311 30.8106 9.3457 30.7316 9.70003 30.6522C10.2995 30.518 10.9039 30.3826 11.489 30.2278C12.3464 29.9814 12.7139 29.3409 12.4934 28.5279C12.3012 27.813 11.8227 27.9922 11.4007 28.1503C11.2847 28.1938 11.1729 28.2357 11.0725 28.2569C9.4802 28.5772 7.88786 28.9221 6.32001 29.3902C3.13533 30.3263 1.07754 32.4203 0.391606 35.7215C-0.14734 38.2343 -0.171838 40.7471 0.489596 43.2353C1.59199 47.2755 4.16423 49.1971 8.25532 48.9507C11.5135 48.8029 13.9388 46.7582 14.6737 43.5802C15.4331 40.279 14.1347 37.0272 11.4645 35.549C8.69627 34.0216 5.16863 34.5636 2.91485 36.8301C2.88401 36.8663 2.85533 36.9068 2.82631 36.9478ZM7.88821 36.7069C4.85052 36.5838 2.71923 38.5792 2.59674 41.6587C2.47425 44.7381 4.53205 47.0538 7.54525 47.1524C10.4115 47.2756 12.5917 45.083 12.7142 42.0036C12.8122 38.9734 10.8769 36.8301 7.88821 36.7069Z" fill="#FE5000"/>
<path fill-rule="evenodd" clip-rule="evenodd" d="M20.4555 48.7783C22.7582 49.271 24.914 48.9261 26.8983 47.1277C26.9077 47.2971 26.9206 47.4377 26.9316 47.5578C26.9495 47.7522 26.9624 47.8928 26.9473 48.0146C26.8738 48.8276 27.3638 48.8522 27.9517 48.8522C28.5641 48.8522 29.0786 48.8029 29.0541 47.9653C29.0372 46.8978 29.0523 45.8303 29.0673 44.7638C29.0959 42.7292 29.1245 40.6981 28.9316 38.6777C28.7111 36.4605 27.4128 35.007 25.257 34.4897C22.8562 33.9231 20.5534 34.2433 18.4222 35.4751C18.3579 35.5099 18.2796 35.5407 18.1977 35.573C17.8736 35.7005 17.4917 35.8508 17.6872 36.362C17.8832 36.904 18.3977 37.175 18.9611 37.1257C19.3531 37.1011 19.745 36.9286 20.1125 36.7562C21.2884 36.2142 22.5377 36.1156 23.8116 36.2388C25.5754 36.4359 26.5798 37.4706 26.8493 39.2197C26.9963 40.2298 26.7268 40.6239 25.6489 40.5993C24.0321 40.55 22.3908 40.5254 20.7739 40.6978C18.3487 40.9688 16.9768 42.3977 16.9033 44.4917C16.8298 46.6843 18.1037 48.2609 20.4555 48.7783ZM25.11 42.2499H23.7381C23.4773 42.263 23.2043 42.2621 22.9233 42.2613C22.1487 42.2589 21.3134 42.2563 20.5044 42.5455C18.9366 43.1121 18.4956 45.1569 19.6715 46.3147C21.5578 48.187 25.9674 47.0784 26.7758 44.541C27.3148 42.8658 26.8738 42.2499 25.11 42.2499Z" fill="#FE5000"/>
</svg>
