<svg width="141" height="43" viewBox="0 0 141 43" fill="none" xmlns="http://www.w3.org/2000/svg">
<path d="M36.7413 25.1663C36.0173 25.1663 35.4742 25.4379 35.1122 25.9811C34.7502 26.5242 34.5692 27.2484 34.5692 28.1537C34.5692 30.0547 35.2932 31.0505 36.7413 31.0505C37.3748 31.0505 38.0989 30.8695 39.004 30.5979V32.1368C38.2799 32.4084 37.4654 32.5895 36.5603 32.5895C35.2932 32.5895 34.2976 32.2274 33.6641 31.4126C33.0305 30.5979 32.6685 29.5116 32.6685 28.1537C32.6685 27.2484 32.8495 26.4337 33.121 25.8C33.3926 25.1663 33.9356 24.6232 34.5692 24.2611C35.2027 23.8989 35.9267 23.7179 36.7413 23.7179C37.5559 23.7179 38.4609 23.8989 39.2755 24.3516L38.6419 25.8C38.2799 25.6189 38.0084 25.5284 37.6464 25.4379C37.3748 25.2568 37.1033 25.1663 36.7413 25.1663Z" fill="white"/>
<path d="M42.7148 29.1495V32.499H40.8141V23.8085H43.3483C44.5249 23.8085 45.43 23.9895 45.973 24.4422C46.516 24.8948 46.7876 25.5285 46.7876 26.4337C46.7876 26.9769 46.6065 27.4295 46.335 27.7916C46.0635 28.1537 45.611 28.5158 45.1584 28.6969C46.516 30.5979 47.3306 31.8653 47.6926 32.499H45.611L43.5293 29.1495H42.7148ZM42.7148 27.6106H43.3483C43.8914 27.6106 44.3439 27.5201 44.6154 27.339C44.8869 27.1579 45.0679 26.8864 45.0679 26.4337C45.0679 25.9811 44.8869 25.7095 44.6154 25.5285C44.3439 25.3474 43.8914 25.2569 43.2578 25.2569H42.7148V27.6106Z" fill="white"/>
<path d="M51.675 27.339L53.4851 23.8085H55.4763L52.58 29.059V32.4085H50.7699V29.059L47.8737 23.8085H49.8649L51.675 27.339Z" fill="white"/>
<path d="M61.8115 30.0548C61.8115 30.8695 61.5399 31.4127 60.9969 31.8653C60.4539 32.3179 59.6393 32.499 58.6437 32.499C57.7387 32.499 56.9241 32.3179 56.2001 31.9558V30.2358C56.8336 30.5074 57.2862 30.6884 57.7387 30.779C58.1912 30.8695 58.5532 30.96 58.8248 30.96C59.2773 30.96 59.5488 30.8695 59.7298 30.6884C59.9108 30.5074 60.0918 30.3263 60.0918 29.9642C60.0918 29.7832 60.0013 29.6021 59.9108 29.5116C59.8203 29.4211 59.6393 29.24 59.4583 29.1495C59.2773 29.059 58.9153 28.7874 58.2817 28.6063C57.7387 28.3348 57.3767 28.1537 57.1051 27.8821C56.8336 27.6105 56.6526 27.4295 56.4716 27.0674C56.2906 26.7053 56.2001 26.4337 56.2001 25.9811C56.2001 25.2569 56.4716 24.6232 57.0146 24.1706C57.5577 23.7179 58.2817 23.5369 59.1868 23.5369C59.6393 23.5369 60.0918 23.6274 60.4539 23.7179C60.9064 23.8084 61.2684 23.9895 61.721 24.1706L61.0874 25.619C60.6349 25.4379 60.2729 25.2569 59.9108 25.2569C59.5488 25.2569 59.2773 25.1663 59.0058 25.1663C58.6437 25.1663 58.3722 25.2569 58.1912 25.4379C58.0102 25.619 57.9197 25.8 57.9197 26.0716C57.9197 26.2527 57.9197 26.3432 58.0102 26.5242C58.1007 26.6148 58.1912 26.7958 58.3722 26.8863C58.5532 26.9769 58.9153 27.1579 59.5488 27.52C60.3634 27.8821 60.9064 28.3348 61.2684 28.6969C61.6305 28.9684 61.8115 29.5116 61.8115 30.0548Z" fill="white"/>
<path d="M66.7895 32.4085H64.8888V25.3474H62.5356V23.8085H69.1426V25.3474H66.7895V32.4085Z" fill="white"/>
<path d="M75.8399 32.4084L75.2063 30.3263H72.0386L71.4051 32.4084H69.4139L72.4911 23.7179H74.7538L77.831 32.4084H75.8399ZM74.7538 28.8779C74.2108 26.9768 73.8487 25.9811 73.7582 25.7095C73.6677 25.4379 73.6677 25.2568 73.5772 25.1663C73.4867 25.7095 73.0342 26.8863 72.4006 28.8779H74.7538Z" fill="white"/>
<path d="M79.0076 32.4084V23.7179H80.9083V30.8695H84.438V32.4084H79.0076Z" fill="white"/>
<path d="M92.8553 32.4084L90.7737 25.6189H90.6832C90.7737 26.9768 90.7737 27.8821 90.7737 28.4253V32.4084H89.1446V23.7179H91.6788L93.7604 30.3263L95.9326 23.7179H98.4667V32.4084H96.7471V28.3347C96.7471 28.1537 96.7471 27.8821 96.7471 27.7011C96.7471 27.52 96.7471 26.7958 96.8376 25.7095H96.7471L94.4845 32.4989H92.8553V32.4084Z" fill="white"/>
<path d="M108.604 28.0632C108.604 29.5116 108.242 30.5979 107.517 31.3221C106.793 32.0463 105.798 32.499 104.44 32.499C103.083 32.499 102.087 32.1369 101.363 31.3221C100.639 30.5074 100.277 29.4211 100.277 27.9727C100.277 26.5242 100.639 25.4379 101.363 24.7137C102.087 23.9895 103.083 23.5369 104.44 23.5369C105.798 23.5369 106.793 23.899 107.517 24.7137C108.242 25.5284 108.604 26.7053 108.604 28.0632ZM102.268 28.0632C102.268 29.059 102.449 29.7832 102.811 30.2358C103.173 30.6884 103.716 30.96 104.44 30.96C105.888 30.96 106.703 29.9642 106.703 28.0632C106.703 26.0716 105.979 25.1663 104.531 25.1663C103.807 25.1663 103.264 25.4379 102.902 25.8905C102.54 26.3432 102.268 27.1579 102.268 28.0632Z" fill="white"/>
<path d="M113.853 32.4085H111.952V25.3474H109.599V23.8085H116.206V25.3474H113.853V32.4085Z" fill="white"/>
<path d="M125.528 28.0632C125.528 29.5116 125.166 30.5979 124.442 31.3221C123.718 32.0463 122.722 32.499 121.365 32.499C120.007 32.499 119.012 32.1369 118.288 31.3221C117.564 30.5074 117.202 29.4211 117.202 27.9727C117.202 26.5242 117.564 25.4379 118.288 24.7137C119.012 23.9895 120.007 23.5369 121.365 23.5369C122.722 23.5369 123.718 23.899 124.442 24.7137C125.166 25.5284 125.528 26.7053 125.528 28.0632ZM119.102 28.0632C119.102 29.059 119.283 29.7832 119.645 30.2358C120.007 30.6884 120.55 30.96 121.274 30.96C122.722 30.96 123.537 29.9642 123.537 28.0632C123.537 26.0716 122.813 25.1663 121.365 25.1663C120.641 25.1663 120.098 25.4379 119.736 25.8905C119.374 26.3432 119.102 27.1579 119.102 28.0632Z" fill="white"/>
<path d="M129.148 29.1495V32.499H127.247V23.8085H129.782C130.958 23.8085 131.863 23.9895 132.406 24.4422C132.949 24.8948 133.221 25.5285 133.221 26.4337C133.221 26.9769 133.04 27.4295 132.768 27.7916C132.497 28.1537 132.044 28.5158 131.592 28.6969C132.949 30.5979 133.764 31.8653 134.126 32.499H132.044L129.963 29.1495H129.148ZM129.148 27.6106H129.782C130.325 27.6106 130.777 27.5201 131.049 27.339C131.32 27.1579 131.501 26.8864 131.501 26.4337C131.501 25.9811 131.32 25.7095 131.049 25.5285C130.777 25.3474 130.325 25.2569 129.691 25.2569H129.148V27.6106Z" fill="white"/>
<path d="M140.642 30.0548C140.642 30.8695 140.371 31.4127 139.828 31.8653C139.285 32.3179 138.47 32.499 137.475 32.499C136.57 32.499 135.755 32.3179 135.031 31.9558V30.2358C135.665 30.5074 136.117 30.6884 136.57 30.779C137.022 30.8695 137.384 30.96 137.656 30.96C138.108 30.96 138.38 30.8695 138.561 30.6884C138.742 30.5074 138.923 30.3263 138.923 29.9642C138.923 29.7832 138.832 29.6021 138.742 29.5116C138.651 29.4211 138.47 29.24 138.289 29.1495C138.108 29.059 137.746 28.7874 137.113 28.6063C136.57 28.3348 136.208 28.1537 135.936 27.8821C135.665 27.6105 135.484 27.4295 135.303 27.0674C135.122 26.7053 135.031 26.4337 135.031 25.9811C135.031 25.2569 135.303 24.6232 135.846 24.1706C136.389 23.7179 137.113 23.5369 138.018 23.5369C138.47 23.5369 138.923 23.6274 139.285 23.7179C139.737 23.8084 140.099 23.9895 140.552 24.1706L139.918 25.619C139.466 25.4379 139.104 25.2569 138.742 25.2569C138.38 25.2569 138.108 25.1663 137.837 25.1663C137.475 25.1663 137.203 25.2569 137.022 25.4379C136.841 25.619 136.751 25.8 136.751 26.0716C136.751 26.2527 136.751 26.3432 136.841 26.5242C136.932 26.6148 137.022 26.7958 137.203 26.8863C137.384 26.9769 137.746 27.1579 138.38 27.52C139.194 27.8821 139.737 28.3348 140.099 28.6969C140.461 28.9684 140.642 29.5116 140.642 30.0548Z" fill="white"/>
<path d="M36.2888 41.9136L35.5647 40.1936H33.3021L32.578 41.9136H31.9445L34.2071 36.4821H34.7502L37.0128 41.9136H36.2888ZM35.3837 39.6505L34.7502 37.9305C34.6596 37.7494 34.5691 37.4778 34.4786 37.1157C34.3881 37.3873 34.2976 37.5684 34.2071 37.9305L33.5736 39.6505H35.3837Z" fill="white"/>
<path d="M37.7368 36.4821H39.3659C40.0899 36.4821 40.633 36.5726 40.995 36.8442C41.357 37.0252 41.538 37.3873 41.538 37.8399C41.538 38.2021 41.4475 38.3831 41.2665 38.6547C41.0855 38.8357 40.814 39.0168 40.4519 39.0168C41.2665 39.1978 41.719 39.5599 41.719 40.2842C41.719 40.7368 41.538 41.1894 41.176 41.461C40.814 41.7326 40.3614 41.9136 39.7279 41.9136H37.7368V36.4821ZM38.3703 38.8357H39.4564C39.9089 38.8357 40.2709 38.7452 40.4519 38.6547C40.633 38.5642 40.7235 38.2926 40.7235 37.9305C40.7235 37.6589 40.633 37.3873 40.3614 37.2968C40.0899 37.2063 39.7279 37.1157 39.2754 37.1157H38.2798V38.8357H38.3703ZM38.3703 39.3789V41.3705H39.5469C39.9994 41.3705 40.3614 41.2799 40.5424 41.0989C40.814 40.9178 40.9045 40.6463 40.9045 40.2842C40.9045 39.9221 40.814 39.741 40.5424 39.56C40.2709 39.3789 39.9089 39.2884 39.4564 39.2884H38.3703V39.3789Z" fill="white"/>
<path d="M44.6152 41.9136H43.9817V37.0252H42.1716V36.4821H46.4254V37.0252H44.6152V41.9136Z" fill="white"/>
<path d="M52.2177 39.1978C52.2177 40.1031 51.9462 40.7367 51.4937 41.2799C51.0412 41.7325 50.4076 42.0041 49.5931 42.0041C48.7785 42.0041 48.145 41.7325 47.6924 41.2799C47.2399 40.7367 46.9684 40.1031 46.9684 39.1978C46.9684 38.2925 47.2399 37.6588 47.6924 37.1157C48.145 36.5725 48.7785 36.3915 49.5931 36.3915C50.4076 36.3915 51.0412 36.6631 51.4937 37.1157C51.9462 37.5683 52.2177 38.2925 52.2177 39.1978ZM47.6924 39.1978C47.6924 39.922 47.8734 40.4652 48.145 40.8273C48.507 41.1894 48.9595 41.3704 49.5931 41.3704C50.2266 41.3704 50.6791 41.1894 51.0412 40.8273C51.4032 40.4652 51.4937 39.922 51.4937 39.1978C51.4937 38.4736 51.3127 37.9304 51.0412 37.5683C50.6791 37.2062 50.2266 37.0252 49.5931 37.0252C48.9595 37.0252 48.507 37.2062 48.145 37.5683C47.7829 37.9304 47.6924 38.4736 47.6924 39.1978Z" fill="white"/>
<path d="M55.9288 41.9136L54.0282 37.1157C54.0282 37.4778 54.1187 37.9305 54.1187 38.4736V41.9136H53.4852V36.4821H54.4807L56.2909 40.9178L58.101 36.4821H59.0966V41.9136H58.463V38.4736C58.463 38.1115 58.463 37.6589 58.5535 37.2063L56.6529 42.0042H55.9288V41.9136Z" fill="white"/>
<path d="M65.5223 39.1978C65.5223 40.1031 65.2507 40.7367 64.7982 41.2799C64.3457 41.7325 63.7121 42.0041 62.8976 42.0041C62.083 42.0041 61.4495 41.7325 60.9969 41.2799C60.5444 40.8273 60.2729 40.1031 60.2729 39.1978C60.2729 38.2925 60.5444 37.6588 60.9969 37.1157C61.4495 36.5725 62.083 36.3915 62.8976 36.3915C63.7121 36.3915 64.3457 36.6631 64.7982 37.1157C65.2507 37.5683 65.5223 38.2925 65.5223 39.1978ZM60.9969 39.1978C60.9969 39.922 61.178 40.4652 61.4495 40.8273C61.8115 41.1894 62.264 41.3704 62.8976 41.3704C63.5311 41.3704 63.9836 41.1894 64.3457 40.8273C64.7077 40.4652 64.7982 39.922 64.7982 39.1978C64.7982 38.4736 64.6172 37.9304 64.3457 37.5683C63.9836 37.2062 63.5311 37.0252 62.8976 37.0252C62.264 37.0252 61.8115 37.2062 61.4495 37.5683C61.0874 37.9304 60.9969 38.4736 60.9969 39.1978Z" fill="white"/>
<path d="M70.4098 40.2841C70.4098 40.8273 70.2288 41.1894 69.8668 41.4609C69.5047 41.7325 69.0522 41.8231 68.3281 41.8231H66.699V36.3915H70.0478V36.9346H67.3326V38.6546H68.2376C68.7807 38.6546 69.1427 38.7452 69.4142 38.8357C69.6857 38.9262 69.9573 39.1073 70.1383 39.2883C70.4098 39.6504 70.4098 39.922 70.4098 40.2841ZM67.4231 41.3704H68.3281C68.7807 41.3704 69.1427 41.2799 69.4142 41.0988C69.5952 40.9178 69.7762 40.6462 69.7762 40.2841C69.7762 39.922 69.6857 39.6504 69.4142 39.5599C69.1427 39.3788 68.7807 39.3788 68.2376 39.3788H67.4231V41.3704Z" fill="white"/>
<path d="M71.6766 36.4821H72.3102V39.4694C72.3102 40.0126 72.3102 40.5557 72.2197 41.0084L75.3874 36.4821H76.1114V41.9136H75.4779V38.9263C75.4779 38.4736 75.4779 37.9305 75.5684 37.3873L72.4007 41.9136H71.6766V36.4821Z" fill="white"/>
<path d="M81.723 41.9136H81.0894V37.0252H79.2793L79.1888 37.9305C79.0078 39.1073 78.9173 40.0126 78.7363 40.5557C78.5553 41.0989 78.4648 41.461 78.2837 41.7326C78.1027 41.9136 77.8312 42.0947 77.4692 42.0042C77.2882 42.0042 77.1072 42.0042 76.9261 41.9136V41.3705C77.1072 41.461 77.1977 41.461 77.3787 41.461C77.5597 41.461 77.6502 41.3705 77.7407 41.2799C77.8312 41.1894 77.9217 41.0084 78.0122 40.7368C78.1027 40.4652 78.1932 40.0126 78.2837 39.1978C78.3742 38.4736 78.5553 37.5684 78.6458 36.4821H81.723V41.9136Z" fill="white"/>
<path d="M83.2617 36.4821H83.8952V39.4694C83.8952 40.0126 83.8952 40.5557 83.8047 41.0084L86.9724 36.4821H87.6965V41.9136H87.0629V38.9263C87.0629 38.4736 87.0629 37.9305 87.1534 37.3873L83.9857 41.9136H83.2617V36.4821Z" fill="white"/>
<path d="M93.7604 36.9347C93.1269 36.9347 92.6743 37.1158 92.3123 37.5684C91.9503 37.9305 91.7693 38.4737 91.7693 39.1979C91.7693 39.9221 91.9503 40.4652 92.3123 40.8273C92.6743 41.1894 93.1269 41.3705 93.7604 41.3705C94.1224 41.3705 94.575 41.28 95.118 41.1894V41.7326C94.756 41.9137 94.213 41.9137 93.6699 41.9137C92.8554 41.9137 92.2218 41.6421 91.7693 41.1894C91.3167 40.7368 91.0452 40.0126 91.0452 39.1073C91.0452 38.5642 91.1357 38.021 91.4073 37.6589C91.5883 37.2063 91.9503 36.9347 92.3123 36.6631C92.7649 36.3916 93.2174 36.301 93.7604 36.301C94.394 36.301 94.8465 36.3916 95.299 36.5726L95.0275 37.1158C94.6655 37.1158 94.213 36.9347 93.7604 36.9347Z" fill="white"/>
<path d="M102.63 41.9136H101.997V37.0252H99.1004V41.9136H98.4669V36.4821H102.721V41.9136H102.63Z" fill="white"/>
<path d="M107.789 38.021C107.789 38.5641 107.608 39.0167 107.246 39.2883C106.884 39.5599 106.341 39.741 105.526 39.741H104.893V41.8231H104.259V36.3915H105.707C107.065 36.482 107.789 37.0252 107.789 38.021ZM104.893 39.1978H105.526C106.069 39.1978 106.522 39.1073 106.793 38.9262C107.065 38.7452 107.155 38.4736 107.155 38.021C107.155 37.6588 107.065 37.3873 106.793 37.2062C106.522 37.0252 106.16 36.9346 105.617 36.9346H104.893V39.1978Z" fill="white"/>
<path d="M113.853 39.1978C113.853 40.1031 113.581 40.7367 113.129 41.2799C112.676 41.7325 112.043 42.0041 111.228 42.0041C110.413 42.0041 109.78 41.7325 109.327 41.2799C108.875 40.8273 108.603 40.1031 108.603 39.1978C108.603 38.2925 108.875 37.6588 109.327 37.1157C109.78 36.5725 110.413 36.3915 111.228 36.3915C112.043 36.3915 112.676 36.6631 113.129 37.1157C113.581 37.5683 113.853 38.2925 113.853 39.1978ZM109.418 39.1978C109.418 39.922 109.599 40.4652 109.87 40.8273C110.232 41.1894 110.685 41.3704 111.318 41.3704C111.952 41.3704 112.405 41.1894 112.767 40.8273C113.129 40.4652 113.219 39.922 113.219 39.1978C113.219 38.4736 113.038 37.9304 112.767 37.5683C112.405 37.2062 111.952 37.0252 111.318 37.0252C110.685 37.0252 110.232 37.2062 109.87 37.5683C109.508 37.9304 109.418 38.4736 109.418 39.1978Z" fill="white"/>
<path d="M118.83 40.2841C118.83 40.8273 118.649 41.1894 118.287 41.4609C117.925 41.7325 117.473 41.8231 116.749 41.8231H115.12V36.3915H118.468V36.9346H115.753V38.6546H116.658C117.201 38.6546 117.563 38.7452 117.835 38.8357C118.106 38.9262 118.378 39.1073 118.559 39.2883C118.74 39.6504 118.83 39.922 118.83 40.2841ZM115.844 41.3704H116.749C117.201 41.3704 117.563 41.2799 117.835 41.0988C118.016 40.9178 118.197 40.6462 118.197 40.2841C118.197 39.922 118.106 39.6504 117.835 39.5599C117.563 39.3788 117.201 39.3788 116.658 39.3788H115.844V41.3704Z" fill="white"/>
<path d="M123.175 41.9136H120.007V36.4821H123.175V37.0252H120.641V38.7452H122.994V39.2884H120.641V41.2799H123.175V41.9136Z" fill="white"/>
<path d="M127.61 36.482V37.0252H125.075V41.8231H124.442V36.3915H127.61V36.482Z" fill="white"/>
<path d="M133.493 39.1978C133.493 40.1031 133.221 40.7367 132.769 41.2799C132.316 41.7325 131.683 42.0041 130.868 42.0041C130.053 42.0041 129.42 41.7325 128.967 41.2799C128.515 40.8273 128.243 40.1031 128.243 39.1978C128.243 38.2925 128.515 37.6588 128.967 37.1157C129.42 36.5725 130.053 36.3915 130.868 36.3915C131.683 36.3915 132.316 36.6631 132.769 37.1157C133.221 37.5683 133.493 38.2925 133.493 39.1978ZM128.967 39.1978C128.967 39.922 129.148 40.4652 129.42 40.8273C129.782 41.1894 130.234 41.3704 130.868 41.3704C131.502 41.3704 131.954 41.1894 132.316 40.8273C132.678 40.4652 132.769 39.922 132.769 39.1978C132.769 38.4736 132.588 37.9304 132.316 37.5683C131.954 37.2062 131.502 37.0252 130.868 37.0252C130.234 37.0252 129.782 37.2062 129.42 37.5683C129.058 37.9304 128.967 38.4736 128.967 39.1978Z" fill="white"/>
<path d="M137.203 41.9136L135.303 37.1157C135.303 37.4778 135.393 37.9305 135.393 38.4736V41.9136H134.76V36.4821H135.755L137.565 40.9178L139.375 36.4821H140.371V41.9136H139.737V38.4736C139.737 38.1115 139.737 37.6589 139.828 37.2063L137.927 42.0042H137.203V41.9136Z" fill="white"/>
<path d="M46.3345 15.0273L48.6877 21.2737H54.1181L46.3345 15.0273Z" fill="white"/>
<path d="M51.946 4.979H53.0321L55.0233 9.50532H53.9372L51.946 4.979Z" fill="white"/>
<path d="M56.2902 5.16003H57.1953L58.4624 9.5053H57.5573L56.2902 5.16003Z" fill="white"/>
<path d="M60.363 5.43164H61.2681L61.6301 9.7769L60.7251 9.68638L60.363 5.43164Z" fill="white"/>
<path d="M64.1644 6.24634L65.0695 6.33686V10.32L64.1644 9.95792V6.24634Z" fill="white"/>
<path d="M21.898 36.4821L2.98221 35.7579L0.810059 42.0948H20.9025C21.0835 40.1937 21.4455 38.2927 21.898 36.4821Z" fill="white"/>
<path d="M32.7586 17.8337L20.7213 10.4105L18.0061 13.1263L30.134 20.4589C30.9485 19.5537 31.8536 18.6484 32.7586 17.8337Z" fill="white"/>
<path d="M80.4558 19.0105L84.0761 14.3937L82.3565 13.0358L78.7362 17.5621C79.2792 18.0147 79.9128 18.4673 80.4558 19.0105Z" fill="white"/>
<path d="M52.1271 9.86737L47.8733 0.452637L44.2531 1.3579L48.4163 10.5011C49.5929 10.2295 50.86 9.9579 52.1271 9.86737Z" fill="white"/>
<path d="M69.6856 12.1306L70.0477 4.88847L67.785 4.07373L67.3325 11.3158C68.147 11.5874 68.8711 11.859 69.6856 12.1306Z" fill="white"/>
<path d="M22.7127 33.8568L11.2184 32.5895L10.4944 33.6758L22.2602 35.0337C22.4412 34.6716 22.5317 34.3095 22.7127 33.8568Z" fill="white"/>
<path d="M23.6178 29.6021L13.2096 27.52L12.395 28.5158L23.0748 30.6884C23.2558 30.3263 23.4368 29.9642 23.6178 29.6021Z" fill="white"/>
<path d="M25.971 25.4379L16.1963 22.179L15.2913 23.0842L25.3375 26.4337C25.609 26.0716 25.79 25.8 25.971 25.4379Z" fill="white"/>
<path d="M28.4143 21.6358L20.0877 17.9242L19.0922 18.7389L27.6903 22.541C27.8713 22.2695 28.1428 21.9074 28.4143 21.6358Z" fill="white"/>
<path d="M39.6374 13.579L34.4786 8.05688L33.3925 8.41899L38.6419 14.1222C39.0039 13.9411 39.3659 13.76 39.6374 13.579Z" fill="white"/>
<path d="M35.3835 16.0232L28.867 10.8632L27.6904 11.4063L34.2974 16.7474C34.6594 16.4758 35.0214 16.2042 35.3835 16.0232Z" fill="white"/>
<path d="M72.0385 13.0358L73.0341 8.96208L72.2196 8.59998L71.224 12.6737C71.4955 12.7642 71.767 12.9452 72.0385 13.0358Z" fill="white"/>
<path d="M74.2109 14.2126L75.5685 10.4105L74.9349 9.95789L73.5773 13.941C73.7583 13.941 74.0299 14.0316 74.2109 14.2126Z" fill="white"/>
<path d="M77.831 16.4758L79.5507 13.4885L79.0076 12.9453L77.1975 16.0232C77.3785 16.2043 77.5595 16.2948 77.831 16.4758Z" fill="white"/>
<path d="M46.3347 10.682L43.348 5.88416H42.4429L45.6107 10.8631C45.8822 10.7726 46.1537 10.7726 46.3347 10.682Z" fill="white"/>
<path d="M76.0209 15.2084L77.65 11.9495L77.0164 11.4968L75.2968 14.8463C75.5683 14.9368 75.7493 15.1179 76.0209 15.2084Z" fill="white"/>
<path d="M43.3481 11.9494L39.2753 6.78943L38.0988 6.97048L42.3526 12.4021C42.7146 12.221 43.0766 12.04 43.3481 11.9494Z" fill="white"/>
</svg>
