<svg width="207" height="48" viewBox="0 0 207 48" fill="none" xmlns="http://www.w3.org/2000/svg">
<path d="M67.1736 13.7618C67.2128 13.0176 67.3956 12.4911 67.7176 12.169C68.0353 11.8513 68.514 11.6903 69.1537 11.6903H79.2933C80.612 11.6903 81.2733 12.3823 81.2733 13.7618V32.8105C81.2733 33.0368 81.2342 33.1848 81.1515 33.2458C81.0689 33.3066 80.9122 33.3372 80.6859 33.3372H78.0574C77.8529 33.3372 77.7049 33.3066 77.6092 33.2458C77.5178 33.1848 77.4699 33.0368 77.4699 32.8105V14.9977H70.6376L70.4504 17.6917C70.2851 19.9983 70.1197 22.0611 69.9456 23.8759C69.7716 25.6907 69.4714 27.2661 69.0405 28.6065C68.614 29.9513 67.9874 31.0524 67.1693 31.9141C66.3511 32.7801 65.2153 33.4329 63.7748 33.8681C63.5703 33.9073 63.4006 33.9029 63.2657 33.8506C63.1351 33.7984 63.0263 33.6592 62.9437 33.4329L62.2909 31.605C62.2518 31.4179 62.243 31.2656 62.2779 31.1438C62.3083 31.0175 62.4344 30.9044 62.6652 30.8042C63.5268 30.43 64.2057 29.9556 64.6887 29.3768C65.1717 28.8024 65.5504 28.0276 65.8159 27.0616C66.0856 26.0911 66.2858 24.8768 66.4207 23.4276C66.5556 21.974 66.7037 20.1767 66.869 18.0312L67.1736 13.7618Z" fill="#0039A6"/>
<path d="M99.3256 25.1405C99.3256 27.8822 98.6904 29.9887 97.4239 31.464C96.1533 32.9349 94.2646 33.6748 91.7493 33.6748C89.2556 33.6748 87.3975 32.9567 86.1659 31.5249C84.9388 30.0932 84.3295 27.9955 84.3295 25.2319C84.3295 23.8741 84.5123 22.6642 84.8865 21.6154C85.2565 20.5665 85.7743 19.6787 86.4314 18.9563C87.0929 18.2339 87.8762 17.6856 88.7988 17.3026C89.7127 16.9239 90.7309 16.7325 91.845 16.7325C94.295 16.7325 96.1576 17.481 97.4284 18.9737C98.6947 20.4665 99.3256 22.5249 99.3256 25.1405ZM95.6485 25.2319C95.6485 24.4877 95.5962 23.7784 95.4787 23.1168C95.3656 22.451 95.1698 21.8678 94.8912 21.3587C94.6127 20.8494 94.2342 20.4535 93.7467 20.1619C93.2637 19.8703 92.6501 19.7266 91.906 19.7266C91.2488 19.7266 90.6701 19.866 90.1739 20.1444C89.6821 20.4229 89.2687 20.8016 88.9379 21.2803C88.6073 21.759 88.368 22.3247 88.2113 22.9907C88.0589 23.6521 87.9807 24.3659 87.9807 25.1319C87.9807 26.8552 88.2591 28.2087 88.8118 29.188C89.3689 30.1758 90.3567 30.6676 91.7797 30.6676C92.5021 30.6676 93.1113 30.5196 93.6031 30.215C94.0993 29.9191 94.4952 29.5186 94.7955 29.0182C95.0914 28.522 95.3089 27.9475 95.444 27.2947C95.5789 26.6463 95.6485 25.9587 95.6485 25.2319Z" fill="#0039A6"/>
<path d="M133.191 25.1405C133.191 27.8822 132.56 29.9887 131.29 31.464C130.023 32.9349 128.13 33.6748 125.615 33.6748C123.121 33.6748 121.259 32.9567 120.031 31.5249C118.809 30.0932 118.195 27.9955 118.195 25.2319C118.195 23.8741 118.382 22.6642 118.752 21.6154C119.122 20.5665 119.64 19.6787 120.297 18.9563C120.954 18.2339 121.746 17.6856 122.664 17.3026C123.582 16.9239 124.601 16.7325 125.71 16.7325C128.165 16.7325 130.023 17.481 131.294 18.9737C132.56 20.4665 133.191 22.5249 133.191 25.1405ZM129.518 25.2319C129.518 24.4877 129.457 23.7784 129.349 23.1168C129.231 22.451 129.035 21.8678 128.761 21.3587C128.483 20.8494 128.095 20.4535 127.617 20.1619C127.134 19.8703 126.52 19.7266 125.78 19.7266C125.123 19.7266 124.54 19.866 124.048 20.1444C123.556 20.4229 123.143 20.8016 122.812 21.2803C122.481 21.759 122.233 22.3247 122.081 22.9907C121.929 23.6521 121.85 24.3659 121.85 25.1319C121.85 26.8552 122.129 28.2087 122.682 29.188C123.243 30.1758 124.227 30.6676 125.65 30.6676C126.372 30.6676 126.981 30.5196 127.477 30.215C127.969 29.9191 128.365 29.5186 128.67 29.0182C128.966 28.522 129.183 27.9475 129.314 27.2947C129.449 26.6463 129.518 25.9587 129.518 25.2319Z" fill="#0039A6"/>
<path d="M138.535 33.3372C137.874 33.3372 137.421 33.2023 137.173 32.9324C136.925 32.6669 136.799 32.223 136.799 31.605V13.7923C136.799 12.3909 137.456 11.6903 138.779 11.6903H150.437C150.663 11.6903 150.807 11.7381 150.869 11.8295C150.933 11.9209 150.959 12.082 150.959 12.3083V14.4102C150.959 14.6149 150.933 14.7584 150.869 14.8412C150.807 14.9238 150.663 14.963 150.437 14.963H140.602V19.7545H145.677C146.851 19.7545 147.848 19.872 148.67 20.1114C149.497 20.3465 150.19 20.6642 150.76 21.0558C151.325 21.4475 151.777 21.8871 152.121 22.3701C152.461 22.8531 152.723 23.3537 152.896 23.8716C153.07 24.385 153.183 24.8812 153.235 25.3555C153.284 25.8299 153.314 26.2521 153.314 26.622C153.314 27.5881 153.123 28.489 152.74 29.3115C152.361 30.1341 151.839 30.8477 151.181 31.444C150.524 32.0402 149.749 32.5016 148.863 32.8366C147.979 33.1674 147.03 33.3284 146.02 33.3284H138.535V33.3372ZM149.388 26.3913C149.388 25.4077 149.075 24.5853 148.444 23.915C147.814 23.2492 146.904 22.9141 145.707 22.9141H140.602V29.9339H145.645C146.386 29.9339 146.994 29.8164 147.469 29.577C147.944 29.342 148.322 29.0504 148.614 28.6979C148.906 28.3498 149.101 27.9668 149.218 27.5446C149.332 27.1312 149.388 26.7439 149.388 26.3913Z" fill="#0039A6"/>
<path d="M169.642 31.5685C169.642 32.0646 169.445 32.4084 169.053 32.5868C168.597 32.7957 168.109 32.9698 167.583 33.1134C167.056 33.2614 166.512 33.3701 165.96 33.4528C165.407 33.5356 164.85 33.5965 164.302 33.6226C163.758 33.6574 163.236 33.6748 162.744 33.6748C161.382 33.6748 160.254 33.5312 159.359 33.2571C158.458 32.9785 157.747 32.6041 157.221 32.1429C156.694 31.6773 156.33 31.1333 156.125 30.5021C155.916 29.8712 155.812 29.2096 155.812 28.5046C155.812 27.7865 155.934 27.0903 156.169 26.42C156.403 25.7498 156.795 25.1623 157.326 24.6575C157.861 24.1526 158.563 23.7435 159.415 23.4346C160.272 23.1256 161.316 22.9732 162.553 22.9732H166.017V22.4467C166.017 22.0549 165.977 21.6937 165.895 21.363C165.812 21.0367 165.651 20.7451 165.412 20.4969C165.176 20.2488 164.85 20.0617 164.441 19.9268C164.033 19.7919 163.493 19.7266 162.836 19.7266C162.13 19.7266 161.369 19.7876 160.546 19.9095C159.719 20.0356 159.049 20.1792 158.535 20.3447C158.31 20.4055 158.144 20.4186 158.04 20.3751C157.935 20.3359 157.865 20.2227 157.826 20.0356L157.396 18.2774C157.313 17.9466 157.405 17.7334 157.67 17.6289C158.535 17.3026 159.484 17.0676 160.515 16.9327C161.547 16.8021 162.517 16.7325 163.423 16.7325C165.568 16.7325 167.139 17.2069 168.135 18.1556C169.141 19.1043 169.637 20.4839 169.637 22.2986V31.5685H169.642ZM165.99 25.728H163.022C162.674 25.728 162.292 25.7498 161.892 25.789C161.491 25.8325 161.108 25.9457 160.747 26.1284C160.385 26.3112 160.085 26.5811 159.85 26.9335C159.614 27.2861 159.494 27.7692 159.494 28.3871C159.494 29.2749 159.794 29.893 160.385 30.2411C160.986 30.5935 161.778 30.7676 162.765 30.7676C162.913 30.7676 163.11 30.7633 163.367 30.7502C163.624 30.7372 163.898 30.7154 164.189 30.6719C164.476 30.6284 164.78 30.5805 165.099 30.5152C165.416 30.4543 165.711 30.3717 165.981 30.2715V25.728H165.99Z" fill="#0039A6"/>
<path d="M177.093 33.2281C176.988 33.2977 176.814 33.3369 176.57 33.3369H174.333C174.107 33.3369 173.942 33.2934 173.828 33.2108C173.719 33.1281 173.659 32.9627 173.659 32.719V17.6916C173.659 17.4653 173.715 17.3085 173.828 17.2259C173.942 17.1432 174.111 17.0996 174.333 17.0996H176.57C176.814 17.0996 176.988 17.1388 177.093 17.2084C177.197 17.2781 177.245 17.4391 177.245 17.6871V23.1881H184.081V17.6916C184.081 17.4653 184.138 17.3085 184.252 17.2259C184.359 17.1432 184.53 17.0996 184.761 17.0996H187.014C187.284 17.0996 187.459 17.1388 187.54 17.2084C187.624 17.2781 187.667 17.4391 187.667 17.6871V32.7147C187.667 32.9845 187.624 33.1542 187.54 33.2238C187.459 33.2934 187.284 33.3326 187.014 33.3326H184.761C184.53 33.3326 184.359 33.2891 184.252 33.2065C184.134 33.1237 184.081 32.9584 184.081 32.7147V26.13H177.245V32.7147C177.245 32.9888 177.197 33.1585 177.093 33.2281Z" fill="#0039A6"/>
<path d="M206.548 32.7668L201.309 24.7287L206.03 17.7177C206.117 17.6132 206.135 17.4696 206.083 17.3477C206.03 17.2259 205.905 17.1432 205.774 17.1432H202.566C202.467 17.1432 202.375 17.1867 202.311 17.2651L198.162 23.2534H195.238V17.5958C195.238 17.3695 195.199 17.2259 195.116 17.178C195.034 17.1257 194.89 17.0996 194.681 17.0996H192.206C192.018 17.0996 191.883 17.1257 191.787 17.178C191.696 17.2259 191.647 17.3651 191.647 17.5958V32.8408C191.647 33.0671 191.696 33.202 191.787 33.2586C191.878 33.3065 192.018 33.3369 192.206 33.3369H194.681C194.89 33.3369 195.034 33.3108 195.116 33.2586C195.199 33.2065 195.238 33.0671 195.238 32.8408V26.0691H197.963L202.724 33.2108C202.793 33.2891 202.885 33.3414 202.989 33.3414H206.287C206.422 33.3414 206.544 33.263 206.601 33.1412C206.653 33.0149 206.635 32.8712 206.548 32.7668Z" fill="#0039A6"/>
<path d="M117.284 32.7668L112.041 24.7287L116.758 17.7177C116.849 17.6132 116.871 17.4696 116.81 17.3477C116.758 17.2259 116.636 17.1432 116.501 17.1432H113.298C113.198 17.1432 113.102 17.1867 113.041 17.2651L108.89 23.2534H105.97V17.5958C105.97 17.3695 105.926 17.2259 105.844 17.178C105.761 17.1257 105.617 17.0996 105.413 17.0996H102.941C102.754 17.0996 102.615 17.1257 102.523 17.178C102.432 17.2259 102.384 17.3651 102.384 17.5958V32.8408C102.384 33.0671 102.432 33.202 102.523 33.2586C102.615 33.3065 102.754 33.3369 102.941 33.3369H105.413C105.622 33.3369 105.765 33.3108 105.844 33.2586C105.926 33.2065 105.97 33.0671 105.97 32.8408V26.0691H108.694L113.459 33.2108C113.525 33.2891 113.62 33.3414 113.725 33.3414H117.023C117.154 33.3414 117.276 33.263 117.332 33.1412C117.38 33.0149 117.367 32.8712 117.284 32.7668Z" fill="#0039A6"/>
<path d="M37.4167 47.08H9.66098C4.33439 47.08 0 42.7454 0 37.4185V9.66144C0 4.3346 4.33439 0 9.66098 0H37.4167C42.7433 0 47.0733 4.3346 47.0733 9.66144V37.4185C47.0777 42.7454 42.7433 47.08 37.4167 47.08ZM9.66098 0.683263C4.70863 0.683263 0.68323 4.70886 0.68323 9.66144V37.4185C0.68323 42.3667 4.70863 46.3923 9.66098 46.3923H37.4167C42.3647 46.3923 46.3901 42.3624 46.3901 37.4185V9.66144C46.3901 4.70886 42.3647 0.683263 37.4167 0.683263H9.66098Z" fill="#0039A6"/>
<path d="M21.1102 6.8553C21.8283 6.43751 22.6116 6.22862 23.3905 6.20251C21.7585 6.25039 20.192 7.11643 19.3173 8.63528L5.23485 33.0195C3.89015 35.3522 4.69087 38.329 7.01908 39.6738C9.34729 41.0185 12.3283 40.2221 13.6686 37.8938L23.5384 20.7991L19.3303 13.5095C17.9856 11.1768 18.782 8.20008 21.1102 6.8553Z" fill="#00A1DE"/>
<path d="M41.843 33.0179L27.7649 8.63805C26.8859 7.11921 25.3192 6.25316 23.6873 6.20529C24.462 6.22705 25.2453 6.44029 25.9634 6.85809C28.2916 8.20286 29.0922 11.1796 27.7431 13.5079L23.535 20.7975L33.4048 37.8922C34.7495 40.2205 37.7262 41.0169 40.0543 39.6722C42.3913 38.3274 43.1877 35.3506 41.843 33.0179Z" fill="#0039A6"/>
<path d="M25.9667 6.8553C25.2486 6.43751 24.4653 6.22862 23.6907 6.20251H23.6603H23.421H23.3948C22.6158 6.22427 21.8368 6.43751 21.1144 6.8553C18.7862 8.20008 17.9898 11.1768 19.3345 13.5052L23.5428 20.7948L27.7509 13.5052C29.0913 11.1768 28.2949 8.20008 25.9667 6.8553Z" fill="#002C77"/>
<path d="M28.5518 35.4862C28.5518 38.2585 26.3107 40.4954 23.5428 40.4954C20.7751 40.4954 18.5295 38.2541 18.5295 35.4862C18.5295 32.7227 20.7708 30.4772 23.5385 30.4772C26.3062 30.4772 28.5518 32.7227 28.5518 35.4862Z" fill="#EEAF30"/>
</svg>
