<svg width="214" height="52" viewBox="0 0 214 52" fill="none" xmlns="http://www.w3.org/2000/svg">
<path d="M109.818 37.4931C111.737 37.7241 113.821 37.0848 115.235 35.9067C116.853 34.5276 118.308 31.6818 118.308 28.5923C118.308 25.1799 116.126 24.7737 115.316 24.7737C114.144 24.7737 113.255 25.383 112.407 25.9517L109.818 37.4931ZM113.094 21.93C114.144 21.1988 115.882 19.9779 118.51 19.9779C122.551 19.9779 125.26 23.0247 125.26 28.1861C125.26 31.1131 124.25 34.5661 122.147 37.1275C118.147 42.043 113.094 42.0024 108.808 42.0024L106.507 51.7157L106.226 51.9188C105.295 51.9188 104.406 51.876 103.477 51.876C102.103 51.876 100.891 51.9595 99.3954 52.0001L99.1913 51.7157C99.1913 51.7157 100.616 47.4074 102.388 40.0033C104.249 32.2334 105.988 23.1316 106.141 21.2779L106.424 20.9935L113.336 19.8582L113.58 20.1404L113.094 21.93ZM98.4682 41.5555L98.1449 41.8805C96.8497 42.1264 95.3312 42.3274 94.5061 42.3274C91.4544 42.3274 86.9756 41.8634 88.8726 34.1235C90.1506 28.8895 91.0716 24.9768 91.0716 24.9768L88.241 25.058L87.9984 24.733L89.1724 20.6279L89.4553 20.4269H92.1222L93.2939 15.1822L93.5768 14.9C96.6095 14.2094 97.4154 14.0041 100.206 13.1917L100.448 13.4354L98.6701 20.5082L102.792 20.4269L102.955 20.7092C102.387 22.4153 102.225 22.8644 101.7 24.7737L101.377 25.058L97.6595 24.9768C97.6595 24.9768 96.9045 28.1305 95.8476 32.5199C94.7055 37.2686 95.3052 37.0249 96.4494 37.4782C97.4277 37.8673 98.7101 37.3713 99.4375 37.1275L99.6799 37.3306L98.4677 41.5555H98.4682ZM75.8765 24.2456C73.9752 24.2456 71.825 25.2184 70.5831 31.1366C69.2029 37.7219 71.9549 38.1431 73.2904 38.1431C74.5026 38.1431 77.0844 37.4782 78.3667 31.173C79.2664 26.7642 78.5539 24.2456 75.8765 24.2456ZM85.3147 31.173C83.5771 41.1386 77.4097 42.4086 72.1888 42.4086C67.0357 42.4086 62.2847 38.8401 63.629 31.1238C64.6794 25.0922 68.2417 19.5118 76.9015 19.9373C82.9413 20.2345 86.4949 24.3974 85.3147 31.173Z" fill="#00674C"/>
<path d="M204.705 29.5586L210.968 41.5468L210.725 41.8718L206.24 41.9938L205.917 41.7479C204.868 38.8936 200.298 29.9243 200.298 29.9243C199.126 35.0856 198.884 36.3043 197.872 41.6666L197.591 41.9125L193.508 41.9938L193.346 41.7479C193.346 41.7479 195.503 32.738 197.368 24.3973C198.242 20.4974 199.598 14.3227 200.137 10.581L200.417 10.3373L204.824 9.60604L205.068 9.8904C204.254 12.6977 200.417 29.3555 200.417 29.3555C203.316 26.8027 208.139 21.7162 208.786 21.0256L209.23 20.7818H213.879L214 21.1474C212.852 22.0583 210.725 23.9911 209.957 24.6817L204.704 29.5587L204.705 29.5586ZM189.259 41.6772L188.937 41.921L184.814 42.0428L184.652 41.7605C185.245 39.0238 187.734 29.8578 187.766 27.0078C187.791 24.5703 186.271 23.7579 184.369 23.7579C181.864 23.7579 180.205 25.0172 178.993 25.9131C177.498 32.7378 177.013 34.8909 175.72 41.6772L175.435 41.9209L171.316 42.0427L171.112 41.7605C171.112 41.7605 172.339 36.7851 173.447 31.6131C174.314 27.5636 175.027 24.2282 175.354 21.4422L175.639 21.1579C177.538 20.9141 177.983 20.8329 179.925 20.4266L180.127 20.7089L179.561 22.7807C181.137 21.7266 183.157 20.3026 186.511 20.3026C187.844 20.3026 192.21 20.6704 192.21 25.5858C192.21 28.5257 189.654 38.8078 189.259 41.6771V41.6772ZM166.254 23.8392C165.646 23.8392 165.042 23.7987 164.434 23.7987C163.1 23.7987 160.474 23.8799 158.088 25.507C153.845 28.4297 153.764 33.6723 153.764 33.8776C153.764 35.8275 154.815 38.9556 158.492 38.9556C159.585 38.9556 161.388 38.699 163.343 36.9629L166.254 23.8393V23.8392ZM169.244 29.0005C167.83 35.2587 167.547 36.8024 166.739 41.6388L166.454 41.921L162.656 42.0022L162.454 41.7179L162.737 40.0951C162.05 40.6617 160.272 42.1647 156.835 42.1647C152.711 42.1647 149.358 39.2398 149.358 34.1597C149.358 30.9505 150.893 27.4547 152.592 25.4235C156.35 20.9934 161.565 20.7497 165.284 20.7497L170.861 20.7924L171.063 21.1153L169.244 29.0005ZM130.558 38.7523C132.844 38.8593 136.217 38.7931 138.843 37.0055C141.833 34.9316 143.25 31.3161 143.25 28.714C143.25 25.0173 141.025 23.5955 138.439 23.5955C136.376 23.5955 134.922 24.4892 133.629 25.3016C133.629 25.3016 130.809 37.756 130.558 38.7523ZM125.626 41.7179C125.896 40.4863 127.638 33.266 129.42 25.1456C130.943 18.1818 132.004 13.8372 132.376 10.5916L132.699 10.3051L137.106 9.5354L137.308 9.81976L136.177 14.3311L134.316 22.133C136.015 21.1987 137.629 20.3028 140.217 20.3028C144.218 20.3028 147.574 23.0246 147.574 28.1474C147.574 30.2192 146.927 34.1191 144.218 37.2493C140.581 41.4356 136.096 41.7179 130.881 41.921H128.659L125.828 41.9615L125.626 41.7178V41.7179Z" fill="#6EC72D"/>
<path d="M15.24 26.0474C15.24 20.4624 19.8795 15.9346 25.6036 15.9346C31.3279 15.9346 35.9664 20.4624 35.9664 26.0474C35.9664 31.6314 31.3279 36.1592 25.6036 36.1592C19.8795 36.1592 15.24 31.6314 15.24 26.0474Z" fill="#6EC72D"/>
<path d="M33.5416 11.278C33.5416 7.66443 36.4561 4.73446 40.0505 4.73446C43.646 4.73446 46.5615 7.66443 46.5615 11.278C46.5615 14.8928 43.646 17.8228 40.0505 17.8228C36.4561 17.8228 33.5416 14.8928 33.5416 11.278ZM0 25.7417C0 11.5348 11.447 0.0173508 25.5727 0V9.30235C16.5556 9.31855 9.25183 16.6718 9.25183 25.7417C9.25183 34.8208 16.5729 42.1798 25.6026 42.1798C34.5794 42.1798 41.9546 34.8902 41.9546 25.6792L51.2063 25.6848C51.2063 39.9575 39.7443 51.4808 25.6026 51.4808C11.462 51.4808 0 39.9575 0 25.7414" fill="#00674C"/>
</svg>
