<svg width="58" height="60" viewBox="0 0 58 60" fill="none" xmlns="http://www.w3.org/2000/svg">
<path d="M54.5719 30.8275L54.7965 30.7176L54.5719 30.8275L56.8097 35.3965C57.9962 37.819 57.0569 40.7051 54.6699 41.969L54.7868 42.19L54.6699 41.969L50.1687 44.3527L50.1687 44.3527C49.6151 44.6459 49.2344 45.1688 49.126 45.7853L49.3722 45.8286L49.126 45.7853L48.2456 50.7943C47.7788 53.4502 45.3199 55.2345 42.643 54.8566L37.5978 54.1443L37.5975 54.1443C36.9773 54.0574 36.3618 54.2564 35.9111 54.6914L35.9111 54.6914L32.2488 58.2273L32.2488 58.2273C31.2774 59.1654 30.0313 59.6337 28.7861 59.6338C27.5406 59.6339 26.2954 59.1656 25.3235 58.2273L21.6613 54.6914L21.6612 54.6914C21.2107 54.2566 20.595 54.0564 19.9745 54.1443L14.9293 54.8566C14.6891 54.8905 14.4502 54.907 14.215 54.907C11.8279 54.9072 9.75167 53.2124 9.32668 50.7944L8.44638 45.7852L8.44637 45.7851C8.33795 45.1688 7.95727 44.6458 7.40353 44.3526L2.90241 41.969L2.78541 42.19L2.90241 41.969C0.515328 40.7049 -0.423916 37.8192 0.762522 35.3966L3.00032 30.8278C3.27571 30.2655 3.2757 29.619 3.00033 29.0566L3.00032 29.0566L0.762642 24.4877C-0.423803 22.0652 0.515454 19.1792 2.90252 17.9152L2.78553 17.6943L2.90253 17.9152L7.40368 15.5316L7.40371 15.5316C7.95727 15.2383 8.33795 14.7154 8.44637 14.099L8.44638 14.0989L9.32668 9.08994C9.79348 6.43405 12.2528 4.64961 14.9292 5.02765L14.9292 5.02765L19.9745 5.73993L19.9746 5.73996C20.5951 5.82712 21.2105 5.62795 21.6611 5.19282L21.4875 5.01297L21.6612 5.19282L25.3235 1.65656L25.1498 1.47671L25.3235 1.65655C27.2656 -0.2189 30.3066 -0.218804 32.2489 1.65656L35.9111 5.19247L36.0848 5.01262L35.9111 5.19247C36.3616 5.62741 36.977 5.82704 37.5977 5.73959L37.5978 5.73958L42.643 5.0273L42.6081 4.77976L42.643 5.0273C45.3186 4.64948 47.7788 6.43374 48.2456 9.08958L49.1259 14.0988L49.1259 14.0989C49.2343 14.7152 49.615 15.2382 50.1687 15.5314L54.6699 17.915C57.0569 19.1791 57.9962 22.0648 56.8097 24.4874L54.5719 29.0564C54.2966 29.6186 54.2966 30.2652 54.5719 30.8275ZM43.0578 51.9318L43.0579 51.9318C44.1416 52.0844 45.1404 51.3608 45.3297 50.284L46.21 45.2749C46.4772 43.7538 47.4137 42.4675 48.7807 41.7434L53.2819 39.3598C54.2489 38.8477 54.6308 37.6754 54.1497 36.693L53.9252 36.8029L54.1497 36.693L51.9119 32.1241C51.2324 30.7367 51.2324 29.1468 51.9119 27.7595L54.1497 23.1906C54.6307 22.2084 54.2488 21.0362 53.2817 20.5241L48.7806 18.1405L48.6636 18.3614L48.7806 18.1405C47.4135 17.4166 46.4771 16.1302 46.2097 14.6091L45.3294 9.59988C45.1402 8.52306 44.1406 7.79916 43.0576 7.9521L38.0123 8.66438L38.0473 8.91192L38.0123 8.66438C36.4799 8.88087 34.9644 8.3893 33.8521 7.31535L30.1899 3.77944L30.1899 3.77941C29.403 3.01996 28.1687 3.01992 27.382 3.77943L23.7197 7.31534C22.6074 8.38919 21.0917 8.88087 19.5595 8.66438L19.5595 8.66438L14.5142 7.9521L14.5142 7.95209C13.4304 7.7993 12.4317 8.52309 12.2424 9.59985L12.2424 9.59988L11.3621 14.609L11.6083 14.6523L11.3621 14.609C11.0948 16.1301 10.1583 17.4164 8.79131 18.1405C8.79131 18.1405 8.7913 18.1405 8.79129 18.1405L4.29018 20.5241C3.32313 21.0362 2.94121 22.2084 3.42222 23.1905L3.64674 23.0806L3.42222 23.1906L5.66002 27.7596C5.66002 27.7596 5.66002 27.7596 5.66002 27.7596C6.33948 29.147 6.33948 30.7367 5.66002 32.1242L3.42222 36.6932C2.94121 37.6754 3.32313 38.8476 4.29017 39.3597L8.79131 41.7433L8.90831 41.5224L8.79133 41.7433C10.1584 42.4671 11.0948 43.7536 11.3622 45.2747L12.2426 50.2839L12.4888 50.2406L12.2426 50.2839C12.432 51.3607 13.4315 52.0845 14.5144 51.9317L14.4795 51.6841L14.5144 51.9317L19.5597 51.2194C19.7973 51.1858 20.0344 51.1693 20.2695 51.1693C21.5516 51.1693 22.7796 51.6605 23.7199 52.5684L27.3821 56.1043L27.3822 56.1044C28.169 56.8638 29.4034 56.8638 30.19 56.1043L33.8523 52.5685C34.9647 51.4947 36.4798 51.0028 38.0125 51.2195L43.0578 51.9318Z" fill="#02B0FB" stroke="white" stroke-width="0.5"/>
<path d="M41.2484 17.5006L41.2484 17.5006C41.8263 18.0775 41.8263 19.0123 41.2483 19.5891L41.2483 19.5891L18.4098 42.3836L18.4098 42.3837C18.1209 42.6722 17.7424 42.8164 17.363 42.8164C16.9837 42.8164 16.6053 42.6721 16.3162 42.3836C15.7384 41.8069 15.7384 40.872 16.3162 40.2952L39.1546 17.5006C39.7327 16.9236 40.6704 16.9236 41.2484 17.5006Z" fill="#02B0FB" stroke="white" stroke-width="0.5"/>
<path d="M24.9978 20.7316V20.7316C24.9978 19.006 23.5916 17.6033 21.8639 17.6033C20.1362 17.6033 18.7302 19.006 18.7302 20.7316C18.7302 22.4573 20.1362 23.8599 21.8639 23.8599C23.5917 23.8599 24.9977 22.4573 24.9978 20.7316ZM15.7695 20.7317C15.7695 17.3786 18.5033 14.6494 21.8639 14.6494C25.2246 14.6494 27.9583 17.3786 27.9583 20.7317C27.9583 24.0848 25.2246 26.814 21.8639 26.814C18.5033 26.814 15.7695 24.0848 15.7695 20.7317Z" fill="#02B0FB" stroke="white" stroke-width="0.5"/>
<path d="M29.6133 39.1521C29.6133 35.799 32.347 33.0698 35.7077 33.0698C39.0683 33.0698 41.8021 35.799 41.8021 39.1521C41.8021 42.5052 39.0683 45.2344 35.7077 45.2344C32.347 45.2344 29.6133 42.5052 29.6133 39.1521ZM32.5738 39.1521C32.5738 40.8777 33.98 42.2803 35.7077 42.2803C37.4354 42.2803 38.8414 40.8777 38.8414 39.1521C38.8414 37.4265 37.4354 36.0239 35.7077 36.0239C33.9798 36.0239 32.5738 37.4265 32.5738 39.1521Z" fill="#02B0FB" stroke="white" stroke-width="0.5"/>
</svg>
