<svg width="170" height="34" viewBox="0 0 170 34" fill="none" xmlns="http://www.w3.org/2000/svg">
<path d="M72.8802 11.9389V6.55957H85.5683V0H65.8896V34H82.0153L86.9295 29.0846V16.8555L81.7773 11.9389H72.8802ZM79.9352 27.4392H72.8802V18.5009H79.9352V27.4392Z" fill="#525455"/>
<path d="M96.1738 0L89.1565 34H96.0196L97.6079 25.8934H106.516L108.103 34H115.139L108.122 0H96.1738ZM98.8574 19.5087L101.393 6.55957H102.726L105.264 19.5087H98.8574Z" fill="#525455"/>
<path d="M133.749 13.8951H125.22V0H118.226V33.9976H125.22V20.4704H133.749V33.9976H140.742V0H133.749V13.8951Z" fill="#525455"/>
<path d="M162.763 16.6163L168.754 0H161.587L156.781 13.447H152.903V0H145.911V33.9976H152.903V20.0199H156.666L161.583 33.9976H169.008L162.763 16.6163Z" fill="#525455"/>
<path d="M24.8734 34H31.8677V6.5608H40.7563V0.00244141H24.8734V34Z" fill="#990032"/>
<path d="M0 0.00195312V33.9995H6.83643V25.366H15.7323L20.8845 20.4481V4.91617L15.9703 0.00195312H0V0.00195312ZM13.889 18.804H6.83521V6.56395H13.889V18.804V18.804Z" fill="#990032"/>
<path d="M49.8756 6.5608H59.7854V0.00244141H47.7992L42.8825 4.91666V29.0834L47.7992 34H59.8424V27.4392H49.8756V6.5608Z" fill="#990032"/>
</svg>
