<svg width="206" height="62" viewBox="0 0 206 62" fill="none" xmlns="http://www.w3.org/2000/svg">
<path d="M61.7596 9.35289C62.627 9.28612 63.499 9.40016 64.3185 9.68755C65.1379 9.97494 65.8864 10.4292 66.5149 11.0206C67.1434 11.612 67.6377 12.3272 67.9656 13.1194C68.2934 13.9116 68.4474 14.7629 68.4173 15.6176C68.4173 19.4117 65.844 21.5882 61.7596 21.5882H53.6058V27.7794H50.1348V9.35289H61.7596ZM61.9541 18.5441C62.3489 18.5763 62.7462 18.5248 63.119 18.3931C63.4919 18.2614 63.8316 18.0526 64.1153 17.7807C64.399 17.5089 64.62 17.1803 64.7633 16.8173C64.9067 16.4543 64.9691 16.0652 64.9463 15.6764C64.9944 15.2538 64.9486 14.826 64.8122 14.4224C64.6758 14.0188 64.452 13.6491 64.1562 13.3388C63.8604 13.0285 63.4996 12.7849 63.0988 12.6248C62.698 12.4648 62.2666 12.3921 61.8344 12.4117H53.6058V18.5441H61.9541Z" fill="black"/>
<path d="M81.2839 28.2941C75.2994 28.2941 70.3772 24.397 70.3772 18.5441C70.3772 12.6911 75.3144 8.82349 81.2839 8.82349C87.2534 8.82349 92.1607 12.8088 92.1607 18.5735C92.1607 24.3382 87.2833 28.3235 81.2839 28.3235V28.2941ZM81.2839 11.9705C80.3561 11.9043 79.4243 12.0253 78.5458 12.326C77.6673 12.6267 76.8607 13.1009 76.1755 13.7193C75.4902 14.3377 74.9409 15.0874 74.5613 15.9221C74.1817 16.7569 73.9797 17.6592 73.9679 18.5735C73.9679 22.3823 76.8105 25.2058 81.2839 25.2058C85.7573 25.2058 88.555 22.3529 88.555 18.5735C88.555 14.7941 85.7423 11.9705 81.2839 11.9705Z" fill="black"/>
<path d="M106.538 28.2647C100.27 28.2647 95.5568 24.3677 95.5568 18.5147C95.5568 12.6618 100.344 8.82354 106.538 8.82354C109.656 8.74187 112.709 9.70088 115.201 11.5441L113.405 14.25C111.483 12.7546 109.095 11.955 106.643 11.9853C102.065 11.9853 99.1625 14.8382 99.1625 18.5147C99.1625 22.1912 102.035 25.0735 106.643 25.0735C109.119 25.1148 111.537 24.3381 113.51 22.8677L115.365 25.5735C112.794 27.4144 109.673 28.3612 106.493 28.2647" fill="black"/>
<path d="M145.422 23.3088L143.268 27.7206H139.528L148.639 9.35291H152.289L161.431 27.7794H157.69L155.536 23.3676L145.422 23.3088ZM146.918 20.3676H154.1L150.509 12.897L146.918 20.3676Z" fill="black"/>
<path d="M179.818 27.7794V19.897H167.55V27.7794H164.079V9.35291H167.55V16.8676H179.818V9.35291H183.289V27.7794H179.818Z" fill="black"/>
<path d="M188.436 27.7794V9.35291H191.907V17.9558L201.317 9.35291H205.596L195.901 18.2206L206 27.7794H201.317L191.907 18.8382V27.7794H188.436Z" fill="black"/>
<path d="M130.94 16.1765H122.801V12.2206H136.266V9.27942H119.33V27.75H130.94C135.039 27.75 137.852 25.5588 137.852 21.8677C137.852 18.1765 135.039 16.1765 130.94 16.1765ZM131.134 24.7647H122.801V19.1177H131.134C133.319 19.1177 134.561 20.2353 134.561 21.8824C134.561 23.5294 133.573 24.6618 131.134 24.6618" fill="black"/>
<path d="M115.635 58.3235V58.5147C115.658 58.9722 115.59 59.4298 115.433 59.8613C115.276 60.2928 115.035 60.6897 114.722 61.0294C114.407 61.3536 114.025 61.6079 113.602 61.7753C113.179 61.9427 112.724 62.0193 112.268 62C111.584 61.9787 110.922 61.76 110.363 61.3712C109.805 60.9823 109.375 60.4405 109.128 59.8133C108.881 59.186 108.827 58.5011 108.973 57.8439C109.119 57.1867 109.459 56.5863 109.949 56.1176C110.598 55.5384 111.452 55.2323 112.328 55.2647C112.889 55.2615 113.441 55.394 113.937 55.6505C114.432 55.907 114.856 56.2795 115.171 56.7353L114.213 57.3235C113.98 57.0199 113.676 56.7751 113.328 56.609C112.979 56.4428 112.596 56.3601 112.209 56.3676C111.898 56.3571 111.589 56.4077 111.298 56.5162C111.008 56.6248 110.743 56.7893 110.518 57C110.299 57.2094 110.128 57.4616 110.014 57.7402C109.901 58.0188 109.848 58.3177 109.86 58.6176C109.847 58.929 109.902 59.2394 110.021 59.5283C110.14 59.8173 110.319 60.0783 110.548 60.2941C110.772 60.4946 111.034 60.6498 111.319 60.7507C111.604 60.8517 111.906 60.8964 112.209 60.8823C112.681 60.9163 113.151 60.7883 113.538 60.5202C113.926 60.2521 114.206 59.8604 114.333 59.4117H112.044V58.2794L115.635 58.3235Z" fill="black"/>
<path d="M123.205 61.7646H122.038L120.692 59.4264H118.103V61.7646H117.101V55.4411H121.29C121.534 55.433 121.777 55.4776 122.002 55.5716C122.227 55.6656 122.428 55.8067 122.592 55.9852C122.935 56.3987 123.111 56.9225 123.085 57.4558C123.145 57.8775 123.048 58.3063 122.811 58.663C122.575 59.0198 122.215 59.2804 121.799 59.397L123.205 61.7646ZM121.185 58.3382C121.799 58.3382 122.098 58.0588 122.098 57.4852C122.098 56.9117 121.784 56.5735 121.125 56.5735H118.133V58.3382H121.185Z" fill="black"/>
<path d="M131.134 58.6177C131.151 59.0942 131.061 59.5684 130.873 60.0077C130.684 60.4469 130.401 60.8407 130.042 61.1618C129.353 61.7366 128.464 62.0247 127.562 61.9648C126.66 61.9049 125.818 61.5018 125.214 60.8411C124.61 60.1804 124.292 59.3143 124.328 58.4268C124.363 57.5392 124.749 56.7003 125.404 56.0883C125.895 55.6405 126.51 55.3447 127.171 55.238C127.832 55.1312 128.51 55.2181 129.122 55.4879C129.733 55.7576 130.249 56.1983 130.607 56.7549C130.965 57.3115 131.149 57.9594 131.134 58.6177ZM130.087 58.6177C130.097 58.318 130.043 58.0197 129.93 57.7413C129.817 57.4629 129.646 57.2106 129.429 57C129.202 56.7883 128.934 56.6232 128.641 56.5146C128.348 56.406 128.036 56.3561 127.723 56.3677C127.41 56.3544 127.098 56.4036 126.805 56.5122C126.512 56.6209 126.244 56.7869 126.018 57C125.589 57.436 125.349 58.0187 125.349 58.6251C125.349 59.2314 125.589 59.8141 126.018 60.2501C126.246 60.4651 126.516 60.6321 126.812 60.7408C127.107 60.8496 127.423 60.8977 127.738 60.8824C128.046 60.903 128.355 60.8614 128.645 60.7602C128.936 60.6591 129.203 60.5005 129.429 60.2942C129.667 60.0835 129.856 59.8245 129.983 59.5351C130.109 59.2457 130.17 58.9326 130.162 58.6177" fill="black"/>
<path d="M138.555 59.7206C138.561 60.036 138.491 60.3483 138.35 60.632C138.21 60.9157 138.003 61.1628 137.747 61.3529C137.094 61.7742 136.329 61.9987 135.548 61.9987C134.767 61.9987 134.002 61.7742 133.349 61.3529C133.091 61.1635 132.882 60.917 132.739 60.6334C132.596 60.3498 132.523 60.0371 132.526 59.7206V55.4412H133.543V59.4706C133.543 60.4117 134.216 60.9412 135.548 60.9412C136.88 60.9412 137.553 60.4706 137.553 59.4706V55.4412H138.555V59.7206Z" fill="black"/>
<path d="M144.45 55.4412C144.696 55.4329 144.942 55.4773 145.169 55.5712C145.396 55.6652 145.6 55.8064 145.766 55.9853C146.109 56.3994 146.285 56.9227 146.26 57.4559C146.285 57.9915 146.103 58.5165 145.751 58.9264C145.553 59.1115 145.318 59.253 145.06 59.3417C144.802 59.4305 144.528 59.4644 144.255 59.4411H141.263V61.7647H140.261V55.4412H144.45ZM144.3 58.3823C144.914 58.3823 145.213 58.1029 145.213 57.5294C145.213 56.9559 144.884 56.6176 144.24 56.6176H141.248V58.3823H144.3Z" fill="black"/>
<path d="M5.62539 57.0148C4.9725 56.5922 4.20782 56.3672 3.42611 56.3677C2.2741 56.3677 1.70557 56.6177 1.70557 57.1324C1.70557 57.4265 1.91503 57.6177 2.3489 57.706L4.11432 57.8971C4.77538 57.9271 5.4183 58.1192 5.98446 58.4559C6.1862 58.6187 6.34568 58.8262 6.44973 59.0615C6.55378 59.2967 6.59943 59.5529 6.58291 59.8089C6.59839 60.1134 6.5384 60.417 6.40809 60.6937C6.27779 60.9703 6.08107 61.2117 5.83485 61.3971C5.1914 61.8072 4.43086 62.0032 3.66548 61.956C2.49559 62.0063 1.352 61.6052 0.47876 60.8383L1.03232 59.9559C1.75597 60.575 2.69178 60.9009 3.65052 60.8677C4.11958 60.8908 4.58719 60.7999 5.01199 60.603C5.1528 60.5355 5.27198 60.4312 5.35643 60.3015C5.44089 60.1718 5.48736 60.0217 5.49074 59.8677C5.49016 59.7 5.43007 59.5377 5.32083 59.4088C5.21159 59.28 5.06004 59.1926 4.8923 59.1618C4.56331 59.0582 4.22038 59.0037 3.87494 59.0001L2.55836 58.9118C2.04259 58.8852 1.5471 58.7058 1.13705 58.3971C0.982495 58.2491 0.862358 58.0699 0.784884 57.8719C0.70741 57.6739 0.674433 57.4618 0.688216 57.2501C0.673441 56.9655 0.731422 56.6818 0.856866 56.4249C0.98231 56.168 1.17122 55.9461 1.40635 55.7795C2.0159 55.3955 2.73315 55.2102 3.45603 55.2501C4.48754 55.2026 5.50031 55.5327 6.29865 56.1765L5.62539 57.0148Z" fill="black"/>
<path d="M14.2879 58.6176C14.3029 59.0926 14.2146 59.5653 14.0288 60.004C13.8431 60.4427 13.5641 60.8374 13.2107 61.1617C12.5778 61.7265 11.7461 62.0271 10.8917 61.9999C10.4366 62.0167 9.98295 61.9404 9.55939 61.776C9.13582 61.6116 8.75158 61.3625 8.43097 61.0446C8.11036 60.7267 7.86035 60.3468 7.69676 59.9291C7.53317 59.5113 7.45955 59.0647 7.48057 58.6176C7.46622 58.1721 7.54441 57.7284 7.71037 57.3136C7.87633 56.8988 8.12657 56.5216 8.44581 56.205C8.76506 55.8885 9.1466 55.6392 9.56713 55.4725C9.98767 55.3057 10.4384 55.225 10.8917 55.2352C11.3438 55.227 11.7929 55.3093 12.2117 55.4769C12.6304 55.6446 13.0102 55.8941 13.3278 56.2105C13.6454 56.5268 13.8943 56.9033 14.0594 57.3171C14.2244 57.7309 14.3022 58.1733 14.2879 58.6176ZM13.2406 58.6176C13.2529 58.3176 13.2007 58.0184 13.0872 57.7397C12.9738 57.4609 12.8017 57.2088 12.5823 56.9999C12.359 56.7872 12.0939 56.6214 11.8033 56.5127C11.5126 56.4039 11.2024 56.3546 10.8917 56.3676C10.5765 56.3548 10.2619 56.4042 9.96641 56.5128C9.67092 56.6214 9.40053 56.787 9.17118 56.9999C8.95547 57.2115 8.78585 57.4641 8.67268 57.7422C8.5595 58.0203 8.50513 58.3181 8.51289 58.6176C8.49487 58.927 8.54427 59.2366 8.6578 59.5257C8.77132 59.8148 8.94635 60.0768 9.17118 60.2941C9.39904 60.5091 9.66918 60.6761 9.96504 60.7848C10.2609 60.8936 10.5762 60.9417 10.8917 60.9264C11.2048 60.9406 11.5176 60.8918 11.8108 60.7831C12.1041 60.6743 12.3717 60.5079 12.5973 60.2941C12.8144 60.0811 12.9838 59.8259 13.0946 59.5447C13.2054 59.2636 13.2551 58.9628 13.2406 58.6617" fill="black"/>
<path d="M21.948 56.9705L21.0204 57.3676C20.7751 57.047 20.4561 56.7879 20.0895 56.6115C19.7229 56.4352 19.319 56.3466 18.9109 56.3529C18.2625 56.3211 17.6276 56.5432 17.1455 56.9705C16.9232 57.1819 16.7474 57.4358 16.6291 57.7165C16.5107 57.9973 16.4522 58.299 16.4573 58.6029C16.4409 58.9169 16.4939 59.2307 16.6127 59.5226C16.7315 59.8146 16.9133 60.0778 17.1455 60.2941C17.3834 60.5122 17.6638 60.6807 17.9698 60.7894C18.2758 60.8981 18.601 60.9447 18.9258 60.9264C19.3372 60.933 19.744 60.8415 20.1114 60.6597C20.4788 60.4778 20.7959 60.2111 21.0354 59.8823L21.9031 60.4558C21.5779 60.9431 21.1337 61.3424 20.6109 61.6173C20.0882 61.8922 19.5037 62.0339 18.9109 62.0294C18.4529 62.0546 17.9946 61.985 17.5656 61.825C17.1367 61.6651 16.7467 61.4184 16.421 61.101C16.0952 60.7835 15.8408 60.4024 15.6744 59.9822C15.508 59.562 15.4332 59.1121 15.4549 58.6617C15.4381 58.1895 15.5272 57.7194 15.716 57.2848C15.9047 56.8502 16.1884 56.4618 16.547 56.147C17.1747 55.5818 18 55.2763 18.851 55.2941C19.4785 55.2922 20.0956 55.4512 20.6414 55.7556C21.1872 56.0599 21.6427 56.499 21.963 57.0294" fill="black"/>
<path d="M24.3717 55.4412H23.3693V61.8088H24.3717V55.4412Z" fill="black"/>
<path d="M31.7326 61.8088H26.1521V55.4412H31.5381V56.5735H27.1694V57.9412H30.2066V59.0735H27.1694V60.6764H31.7326V61.8088Z" fill="black"/>
<path d="M38.3305 56.5735H35.8469V61.8088H34.8445V56.5735H32.361V55.4412H38.3305V56.5735Z" fill="black"/>
<path d="M45.0031 61.8088H39.4226V55.4412H44.8086V56.5735H40.425V57.9412H43.4771V59.0735H40.425V60.6764H45.0031V61.8088Z" fill="black"/>
<path d="M55.3562 58.3235V58.5147C55.398 59.4406 55.0644 60.3449 54.4286 61.0294C54.1136 61.3537 53.7317 61.608 53.3086 61.7754C52.8854 61.9428 52.4307 62.0193 51.975 62C51.1209 62.0256 50.2898 61.7252 49.656 61.1618C49.1469 60.6955 48.7929 60.089 48.6402 59.4216C48.4875 58.7543 48.5434 58.0572 48.8004 57.4216C49.0575 56.7859 49.5038 56.2414 50.0809 55.8592C50.658 55.477 51.339 55.2749 52.0349 55.2794C52.5953 55.2749 53.1482 55.4069 53.6442 55.6635C54.1402 55.9201 54.5639 56.2933 54.8775 56.75L53.8601 57.3529C53.6263 57.0625 53.3284 56.8281 52.9888 56.6676C52.6493 56.5071 52.277 56.4246 51.9002 56.4265C51.5874 56.4148 51.2754 56.4648 50.9825 56.5734C50.6896 56.682 50.4217 56.847 50.1946 57.0588C49.7761 57.4999 49.5433 58.0806 49.5433 58.6838C49.5433 59.287 49.7761 59.8677 50.1946 60.3088C50.4225 60.5238 50.6926 60.6908 50.9885 60.7996C51.2844 60.9083 51.5997 60.9565 51.9152 60.9412C52.3857 60.9744 52.8534 60.8459 53.2382 60.5777C53.623 60.3094 53.901 59.9181 54.0247 59.4706H51.7057V58.3382L55.3562 58.3235Z" fill="black"/>
<path d="M62.3431 61.8088H56.7626V55.4412H62.1486V56.5735H57.7799V57.9412H60.817V59.0735H57.7799V60.6764H62.3431V61.8088Z" fill="black"/>
<path d="M69.689 61.8088H68.1779L64.6621 56.5V61.8088H63.6447V55.4412H65.1558L68.6717 60.75V55.4412H69.689V61.8088Z" fill="black"/>
<path d="M77.0349 61.8088H71.4544V55.4412H76.8404V56.5735H72.4718V57.9412H75.5089V59.0735H72.4718V60.6764H77.0349V61.8088Z" fill="black"/>
<path d="M84.4407 61.7647H83.2887L81.9272 59.4264H79.2941V61.7647H78.2767V55.4412H82.4658C82.7122 55.4329 82.9576 55.4773 83.1849 55.5712C83.4121 55.6652 83.616 55.8064 83.7824 55.9853C84.1207 56.4008 84.2912 56.9244 84.2612 57.4559C84.325 57.876 84.2312 58.3047 83.9972 58.6618C83.7632 59.019 83.405 59.2803 82.9895 59.397L84.4407 61.7647ZM82.3761 58.2941C82.9895 58.2941 83.2887 58.0147 83.2887 57.4412C83.2887 56.8676 82.9595 56.5294 82.3162 56.5294H79.2941V58.2941H82.3761Z" fill="black"/>
<path d="M91.9961 61.7647H90.889L90.2905 60.3971H86.7746L86.1912 61.7647H85.084L87.8967 55.3971H89.1535L91.9961 61.7647ZM89.7669 59.3089L88.5401 56.5L87.2983 59.3089H89.7669Z" fill="black"/>
<path d="M98.0105 61.8088H92.9985V55.4412H94.0009V60.6764H98.0105V61.8088Z" fill="black"/>
<path d="M104.683 61.8088H99.1026V55.4412H104.489V56.5735H100.12V57.9412H103.157V59.0735H100.12V60.6764H104.683V61.8088Z" fill="black"/>
<path d="M37.5974 0H0V18.8529H37.5974V0Z" fill="#E9041E"/>
<path d="M37.5974 18.4854H0V36.9706H37.5974V18.4854Z" fill="black"/>
<path d="M31.0294 17.3529H6.56795V19.6029H31.0294V17.3529Z" fill="white"/>
</svg>
