<svg width="189" height="36" viewBox="0 0 189 36" fill="none" xmlns="http://www.w3.org/2000/svg">
<path d="M166.21 10.0164C166.21 10.3101 166.21 10.4807 166.21 10.6513C166.21 15.1335 166.21 19.6157 166.21 24.098C166.21 25.6331 165.118 26.7987 163.669 26.8081C162.192 26.8176 161.082 25.6615 161.072 24.1074C161.072 17.0003 161.072 9.90264 161.072 2.79551C161.072 1.50675 161.684 0.57808 162.775 0.18008C163.876 -0.217919 164.958 0.132699 165.777 1.14665C168.798 4.95607 171.818 8.77497 174.829 12.5844C175.158 13.0013 175.158 13.0108 175.497 12.5749C178.433 8.84131 181.378 5.10769 184.314 1.37408C185.067 0.416985 186.158 0.0663662 187.24 0.426461C188.304 0.77708 188.981 1.73417 188.981 2.96608C188.99 10.0258 188.99 17.0761 188.981 24.1359C188.981 25.5762 188.059 26.6186 186.685 26.7987C185.481 26.9598 184.267 26.1259 183.937 24.9129C183.843 24.5718 183.834 24.2306 183.834 23.88C183.834 19.5873 183.834 15.2946 183.834 11.0019C183.834 10.8313 183.834 10.6607 183.834 10.4902C183.806 10.4807 183.778 10.4617 183.74 10.4523C183.194 11.1345 182.658 11.8073 182.112 12.4991C180.494 14.5554 178.885 16.6118 177.266 18.6586C176.071 20.1653 174.217 20.1464 173.013 18.6302C170.792 15.7873 168.543 12.954 166.21 10.0164Z" fill="#3A913F"/>
<path d="M87.9132 16.0432C85.0245 16.0432 82.1451 16.0527 79.2564 16.0337C78.8988 16.0337 78.7671 16.0622 78.88 16.4886C79.6704 19.5399 82.3616 21.8995 85.5608 22.3733C88.2896 22.7808 90.7737 22.0701 93.1355 20.7718C93.7942 20.4117 94.4811 20.1653 95.2432 20.3264C96.1936 20.5254 96.9181 21.293 97.0687 22.2027C97.2286 23.2451 96.7676 24.2496 95.836 24.8087C93.8318 26.0027 91.6676 26.7418 89.3529 27.0451C86.6429 27.4051 83.9988 27.1682 81.4865 26.0501C77.0452 24.079 74.4199 20.6392 73.6295 15.8253C72.5286 9.07822 76.4147 2.71022 82.8603 0.644417C89.4187 -1.45929 96.6735 2.05637 98.9976 8.50017C99.534 9.97845 99.8351 11.5136 99.6093 13.0961C99.3552 14.8682 97.9532 16.0432 96.1936 16.0432C93.4272 16.0432 90.6702 16.0432 87.9132 16.0432ZM86.737 11.2767C89.2305 11.2767 91.7241 11.2672 94.2082 11.2862C94.6222 11.2862 94.7445 11.2388 94.6222 10.7745C93.7001 7.43884 90.0868 3.88527 85.3726 4.7476C82.2863 5.3067 79.5857 7.7705 78.8518 10.8313C78.7577 11.2104 78.8518 11.2862 79.2094 11.2767C81.7217 11.2672 84.2341 11.2767 86.737 11.2767Z" fill="#3A913F"/>
<path d="M40.4423 16.0432C37.5724 16.0432 34.7025 16.0527 31.8326 16.0338C31.4186 16.0338 31.3904 16.1569 31.4845 16.5076C32.2937 19.5778 34.9754 21.8995 38.1746 22.3828C40.9222 22.7903 43.4158 22.0511 45.787 20.7529C46.4362 20.3928 47.1137 20.1748 47.8571 20.3359C48.8545 20.5634 49.5414 21.2836 49.6731 22.3165C49.8142 23.3967 49.3438 24.2307 48.4499 24.7897C47.1513 25.6047 45.7493 26.1827 44.272 26.5713C40.5929 27.5473 36.9608 27.5094 33.5075 25.7847C29.0003 23.5389 26.488 19.8053 26.1116 14.7734C25.6788 8.8982 28.1064 4.38754 33.2252 1.59206C40.9881 -2.64379 49.626 2.0564 51.715 8.90767C52.1478 10.3196 52.4207 11.76 52.1572 13.2383C51.9126 14.6408 50.5764 16.0717 48.7416 16.0338C45.994 16.0053 43.2182 16.0432 40.4423 16.0432ZM39.3226 11.2767C41.835 11.2767 44.3379 11.2672 46.8502 11.2862C47.2548 11.2862 47.3489 11.2009 47.236 10.784C46.3703 7.53363 42.7665 3.89477 38.0429 4.73815C34.9566 5.28777 32.2278 7.73263 31.4939 10.7366C31.3621 11.2767 31.3621 11.2767 31.8985 11.2767C34.3638 11.2767 36.8479 11.2767 39.3226 11.2767Z" fill="#3A913F"/>
<path d="M145.641 16.0432C142.772 16.0432 139.902 16.0527 137.032 16.0337C136.627 16.0337 136.533 16.1001 136.646 16.5265C137.493 19.6063 140.127 21.909 143.308 22.3733C145.914 22.7618 148.304 22.1364 150.591 20.9234C151.137 20.6392 151.664 20.317 152.294 20.2791C153.442 20.2033 154.402 20.8382 154.74 21.8711C155.089 22.9513 154.646 24.1548 153.63 24.7802C151.786 25.9079 149.791 26.6091 147.665 26.9598C144.644 27.4525 141.689 27.2251 138.895 25.8984C134.642 23.88 132.111 20.4875 131.395 15.8158C130.652 11.0208 132.054 6.87974 135.592 3.56308C138.283 1.04242 141.539 -0.142104 145.218 0.0284672C150.77 0.2938 156.18 4.36856 157.243 10.3291C157.432 11.3715 157.582 12.4233 157.29 13.4752C156.848 15.0672 155.569 16.0337 153.922 16.0337C151.155 16.0432 148.398 16.0432 145.641 16.0432ZM144.493 11.2767C147.015 11.2767 149.537 11.2672 152.068 11.2862C152.454 11.2862 152.501 11.1914 152.407 10.8408C151.569 7.62836 148.22 4.3496 144.089 4.63389C140.589 4.88027 137.465 7.41041 136.637 10.7745C136.542 11.163 136.589 11.2862 137.022 11.2862C139.506 11.2672 142 11.2767 144.493 11.2767Z" fill="#3A913F"/>
<path d="M127.406 13.4373C127.406 16.9245 127.406 20.4117 127.406 23.899C127.406 25.1024 126.991 26.069 125.853 26.5807C124.14 27.3483 122.268 26.1069 122.259 24.1927C122.24 21.3309 122.259 18.4786 122.259 15.6168C122.259 12.3191 122.249 9.02137 122.268 5.71418C122.268 5.32566 122.211 5.17404 121.769 5.18352C118.636 5.20247 115.493 5.20247 112.36 5.18352C111.955 5.18352 111.87 5.29723 111.87 5.68575C111.889 9.29618 111.88 12.9161 111.88 16.5265C111.88 21.6531 108.248 25.9174 103.214 26.6755C102.564 26.7702 101.915 26.865 101.247 26.7229C99.9767 26.4575 99.0828 25.3109 99.1863 24.0601C99.2992 22.6481 100.325 21.6436 101.689 21.5963C104.343 21.511 106.272 19.8432 106.705 17.2467C106.742 17.0003 106.752 16.7445 106.752 16.4886C106.752 11.94 106.752 7.39146 106.752 2.85238C106.752 1.03295 107.796 -0.00942993 109.621 -0.00942993C114.59 -0.00942993 119.558 -0.00942993 124.536 -0.00942993C126.37 -0.00942993 127.415 1.04243 127.415 2.89976C127.415 6.43437 127.406 9.94056 127.406 13.4373Z" fill="#3A913F"/>
<path d="M13.3423 21.9468C15.7041 21.9184 17.6425 21.1319 19.2609 19.5588C20.3054 18.5354 21.8392 18.4691 22.8742 19.3788C23.881 20.2696 24.0692 21.8047 23.2788 22.8945C22.9683 23.3209 22.5731 23.662 22.1779 23.9937C14.2739 30.7123 2.11676 26.3343 0.225446 16.1C-1.15776 8.54753 3.86694 1.35511 11.4228 0.199021C15.8547 -0.483264 19.722 0.814972 22.9589 3.95159C23.7681 4.73811 23.9939 5.70468 23.6082 6.77549C23.2224 7.82734 22.4414 8.39591 21.3405 8.4812C20.5877 8.53806 19.9196 8.30115 19.3739 7.76101C17.5014 5.92263 15.2713 5.11716 12.6649 5.31616C9.08923 5.59097 5.84294 8.65177 5.34424 12.2432C4.67616 16.9908 7.61194 21.0466 12.2979 21.8426C12.6649 21.9184 13.0601 21.9279 13.3423 21.9468Z" fill="#3A913F"/>
<path d="M60.2591 15.0292C60.2591 11.9495 60.2496 8.86973 60.2685 5.78997C60.2685 5.39197 60.165 5.28773 59.7792 5.29721C58.0102 5.31616 56.2318 5.31616 54.4628 5.30668C53.1548 5.29721 52.0916 4.40645 51.894 3.18402C51.687 1.88578 52.355 0.720213 53.5406 0.284309C53.8417 0.180071 54.1428 0.13269 54.4628 0.13269C60.0614 0.13269 65.6601 0.13269 71.2588 0.13269C72.7267 0.13269 73.8746 1.26983 73.8746 2.71969C73.8746 4.15059 72.7455 5.28773 71.2964 5.30668C69.5086 5.32564 67.7208 5.33511 65.933 5.29721C65.4343 5.28773 65.359 5.44883 65.359 5.90368C65.3778 12.0158 65.3684 18.1185 65.3684 24.2306C65.3684 25.4057 64.6439 26.3722 63.5524 26.7134C62.4891 27.0356 61.3223 26.6186 60.6919 25.6994C60.372 25.2256 60.2496 24.7044 60.2496 24.1358C60.259 21.094 60.2591 18.0616 60.2591 15.0292Z" fill="#3A913F"/>
<path d="M12.9479 31.1957C15.9119 31.1957 18.8759 31.1862 21.8399 31.1957C22.8373 31.1957 23.5995 31.66 24.0229 32.5697C24.437 33.4794 24.324 34.3607 23.6842 35.1378C23.2231 35.7063 22.5927 35.9811 21.8681 35.9906C15.9119 36.0001 9.95567 36.0001 3.99943 35.9906C2.65387 35.9906 1.6 34.9103 1.60941 33.5837C1.61882 32.2475 2.65387 31.1957 4.01825 31.1957C6.99166 31.1957 9.96508 31.1957 12.9479 31.1957Z" fill="#3A913F"/>
</svg>
