<svg width="220" height="27" viewBox="0 0 220 27" fill="none" xmlns="http://www.w3.org/2000/svg">
<path fill-rule="evenodd" clip-rule="evenodd" d="M16.2267 0.343994V7.39495H13.4938C10.0776 7.39495 7.34471 10.1465 7.34471 13.586C7.34471 17.0255 10.0776 19.7771 13.4938 19.7771H16.2267V26.8281C22.3758 25.6243 27.1584 20.293 27.1584 13.586C27.1584 6.87903 22.5466 1.54782 16.2267 0.343994Z" fill="#003791"/>
<path fill-rule="evenodd" clip-rule="evenodd" d="M13.4938 21.8408C8.88199 21.8408 5.12422 18.0573 5.12422 13.414C5.12422 8.7707 8.88199 5.15924 13.4938 5.15924H14.0062V0H13.4938C6.14907 0 0 6.01911 0 13.414C0 20.8089 6.14907 26.828 13.4938 26.828H14.0062V21.6688H13.4938V21.8408ZM46.2888 18.2293C45.264 19.0892 43.8975 19.6051 42.3602 19.6051C38.9441 19.6051 36.2112 16.8535 36.2112 13.586C36.2112 10.1465 38.9441 7.56688 42.3602 7.56688C43.8975 7.56688 45.264 8.0828 46.4596 9.11465L48.6801 7.05095C46.972 5.50318 44.7515 4.64331 42.5311 4.64331C37.4068 4.64331 33.3075 8.7707 33.3075 13.758C33.3075 18.7452 37.4068 22.8726 42.5311 22.8726C44.9224 22.8726 46.972 22.0127 48.5093 20.6369L46.2888 18.2293ZM143.82 5.15924L136.988 13.242L130.155 5.15924V5.33121V5.15924H127.422V21.8408H130.155V9.63057L136.988 17.7134L143.82 9.80255V21.8408H146.553V5.15924H143.82ZM69.0062 13.414C69.0062 18.4013 64.9068 22.5287 59.7826 22.5287C54.6584 22.5287 50.559 18.4013 50.559 13.414C50.559 8.42675 54.6584 4.29936 59.7826 4.29936C64.736 4.29936 69.0062 8.42675 69.0062 13.414ZM65.9317 13.414C65.9317 9.97452 63.1988 7.3949 59.7826 7.3949C56.3665 7.3949 53.6335 10.1465 53.6335 13.414C53.6335 16.8535 56.3665 19.4331 59.7826 19.4331C63.1988 19.6051 65.9317 16.8535 65.9317 13.414ZM124.689 13.414C124.689 18.4013 120.59 22.5287 115.466 22.5287C110.342 22.5287 106.242 18.4013 106.242 13.414C106.242 8.42675 110.342 4.29936 115.466 4.29936C120.59 4.29936 124.689 8.42675 124.689 13.414ZM121.615 13.414C121.615 9.97452 118.882 7.3949 115.466 7.3949C112.05 7.3949 109.317 10.1465 109.317 13.414C109.317 16.8535 112.05 19.4331 115.466 19.4331C118.882 19.6051 121.615 16.8535 121.615 13.414ZM106.413 5.15924H102.655L95.6522 12.0382H92.7484V5.15924H90.0155V21.8408H92.7484V14.7898H95.6522L102.655 21.8408H106.242L98.0435 13.586L106.413 5.15924Z" fill="#FF4B5F"/>
<path fill-rule="evenodd" clip-rule="evenodd" d="M220 5.15918H216.413L209.41 12.0382H206.506V5.15918H203.773V21.8407H206.506V14.7898H209.41L216.242 21.8407H219.829L211.63 13.5859L220 5.15918ZM180.373 21.8407H183.276L175.761 5.15918H172.686L165.342 21.8407H168.245L169.953 18.2292H178.665L180.373 21.8407ZM171.149 15.4777L174.394 8.4267L177.64 15.4777H171.149Z" fill="#003791"/>
<path fill-rule="evenodd" clip-rule="evenodd" d="M86.7702 17.0254C86.7702 15.6496 86.2578 14.4458 85.2329 13.5859C86.087 12.7261 86.7702 11.5222 86.7702 10.1464C86.7702 7.22287 84.5497 5.15918 81.9876 5.15918H72.0808V22.0127H81.9876C84.5497 21.8407 86.7702 19.605 86.7702 17.0254ZM74.8137 7.7388H81.8168C83.0124 7.7388 84.0373 8.77064 84.0373 9.80249C84.0373 11.0063 83.0124 11.8662 81.8168 11.8662H74.8137V7.7388ZM81.8168 19.0891H74.8137V14.7898H81.9876C83.1832 14.7898 84.2081 15.8216 84.2081 16.8534C84.0373 18.2292 83.0124 19.0891 81.8168 19.0891Z" fill="#FF4B5F"/>
<path fill-rule="evenodd" clip-rule="evenodd" d="M197.795 5.15918V12.0382H187.888V5.15918H185.155V21.8407H187.888V14.9617H197.624V21.8407H200.357V5.15918H197.795ZM164.317 17.0254C164.317 14.2738 162.267 12.0382 159.534 12.0382H152.531V7.7388H162.95V5.15918H149.798V22.0127H159.534C162.267 21.8407 164.317 19.605 164.317 17.0254ZM159.534 19.0891H152.531V14.7898H159.534C160.73 14.7898 161.755 15.8216 161.755 16.8534C161.584 18.2292 160.73 19.0891 159.534 19.0891Z" fill="#003791"/>
</svg>
