<svg width="208" height="52" viewBox="0 0 208 52" fill="none" xmlns="http://www.w3.org/2000/svg">
<path d="M60.6437 24.0854L61.4413 21.6895L58.8026 21.7671C58.5797 21.7671 56.9593 21.724 55.3873 20.6542C55.5045 20.6651 55.6216 20.6801 55.7412 20.6801C57.3593 20.6801 58.9244 19.7657 59.5519 18.4587L60.6874 16.0973C59.2646 16.1145 57.9638 15.9463 57.9638 15.9463C57.9522 15.9441 56.9271 15.8213 55.7412 14.6846C54.8906 13.8695 53.8381 13.438 52.698 13.438C52.1994 13.438 51.7533 13.5221 51.3696 13.6365C51.4294 13.4446 51.4867 13.2504 51.5191 13.0498C51.8821 10.8393 50.3652 9.15277 50.3652 9.15504L48.3817 6.84959L47.152 9.55826C47.1474 9.56692 46.8371 10.201 46.2809 10.5115C46.1131 9.7157 45.7018 8.82074 44.8214 7.96452C43.1619 6.35132 41.1417 6.11192 40.0844 6.11192C39.5947 6.11192 39.2455 6.16156 39.1603 6.17447L36.7655 6.61669C36.9033 6.11419 37.1976 5.24065 37.7354 4.45349L39.057 2.52119L35.7312 2.87704L34.6716 0.765604L32.6215 1.75771L30.7253 0L28.8336 1.75771L26.7765 0.765604L25.7192 2.87704L22.3958 2.52119L23.7196 4.45349C24.2575 5.24065 24.5517 6.11192 24.6874 6.61443L22.4025 6.19177L22.3245 6.17886C22.2095 6.16156 21.8626 6.11192 21.3707 6.11192C20.3134 6.11192 18.2931 6.35346 16.6381 7.96452C15.7556 8.81862 15.3442 9.7157 15.1741 10.5115C14.6226 10.2053 14.3145 9.57982 14.3145 9.57982L13.0826 6.85596L11.0669 9.1766C10.8209 9.47628 9.60514 11.0616 9.93605 13.0542C9.9706 13.2527 10.0257 13.4467 10.0855 13.6387C9.70398 13.5244 9.25802 13.4403 8.75935 13.4403C7.61929 13.4403 6.56666 13.8716 5.71394 14.6869C4.53243 15.8191 3.51194 15.9463 3.52125 15.9463C3.52125 15.9463 2.44323 16.1274 0.774606 16.0993L1.9031 18.461C2.53065 19.7701 4.09804 20.6824 5.71394 20.6824C5.83576 20.6824 5.95291 20.6671 6.07248 20.6564C4.50494 21.7261 2.88454 21.7692 2.68912 21.7714L0 21.6895L0.813658 24.0833C1.22281 25.317 2.59028 27.3615 5.21061 27.5814C4.92552 28.7029 4.29346 29.9581 2.90526 30.4994L0.90333 31.2735L1.99502 33.0571C2.61101 34.019 4.05673 35.1447 6.11604 35.1447C6.562 35.1426 6.99173 35.1016 7.40555 35.0197C7.51129 35.4597 7.64452 35.8997 7.80089 36.3352C8.41448 38.0476 7.8859 39.2424 7.87899 39.2553L6.89065 41.1984L9.09716 41.7441C9.12479 41.7527 9.79125 41.9231 10.6256 41.9231C11.0049 41.9231 11.3657 41.8865 11.7059 41.8111C11.9632 41.7549 12.2093 41.6794 12.4459 41.5888C12.731 42.0697 13.078 42.5076 13.4826 42.9C14.8961 44.2609 16.8981 44.951 19.4354 44.951H19.4446L21.2558 44.9294L17.5139 46.3873L20.3548 47.6749C21.3868 48.1472 22.6118 48.7057 23.8576 49.1327L23.5036 50.0429L24.4828 50.4613C24.57 50.4979 26.4524 51.2894 29.583 51.4576C29.583 51.4576 30.3392 51.49 30.7551 51.49C31.1711 51.49 31.918 51.4556 31.918 51.4556C35.028 51.283 36.8964 50.5001 36.9839 50.4613L37.9652 50.0408L37.6067 49.1285C38.8893 48.6885 40.1579 48.1083 41.1462 47.6555L43.9342 46.3852L40.2038 44.9252L42.0219 44.9468C44.5617 44.9468 46.5659 44.2566 47.977 42.8936C48.3793 42.5033 48.7265 42.0655 49.0138 41.5845C49.2505 41.6751 49.4986 41.7506 49.7561 41.8067C50.0939 41.8821 50.4549 41.9189 50.8341 41.9189C51.6545 41.9189 52.3281 41.7485 52.3464 41.7441L54.5621 41.1943L53.5967 39.2877C53.5737 39.2381 53.0451 38.0454 53.6588 36.3309C53.815 35.8931 53.946 35.4532 54.0518 35.0153C54.4679 35.0973 54.9022 35.1404 55.3505 35.1404C57.9728 35.1404 59.2301 33.4086 59.4738 33.0334L60.5541 31.2693L58.5521 30.4972C57.1616 29.9558 56.5319 28.6985 56.2491 27.5793C58.8325 27.3722 60.2207 25.3277 60.6437 24.0854ZM24.8618 7.44044L24.8345 7.44697L24.8574 7.41889L24.8618 7.44044Z" fill="white"/>
<path d="M30.7277 7.33485C28.6085 7.33698 27.0204 7.98827 26.6732 8.75388L30.7277 10.255L34.7821 8.75388C34.4373 7.98827 32.8491 7.33698 30.7277 7.33485Z" fill="white"/>
<path d="M30.7688 47.071H30.7641H30.7296H30.6905H30.6882C29.4034 47.0797 27.6359 46.8316 26.7832 46.5987L25.758 49.2017C26.4339 49.4283 28.7231 49.8595 30.7296 49.8595C32.7315 49.8595 35.023 49.4261 35.6965 49.2017L34.6736 46.5987C33.8187 46.8337 32.0534 47.0797 30.7688 47.071Z" fill="white"/>
<path d="M38.5262 44.4832C37.7631 44.8887 36.06 45.4968 35.0693 45.7793L35.9014 47.9295C37.4343 47.5368 38.6984 47.0776 39.7444 46.5859L38.0182 46.0466L38.5262 44.4832Z" fill="white"/>
<path d="M22.9314 44.4832L23.4416 46.0466L21.7132 46.5859C22.7567 47.0776 24.0277 47.5368 25.5538 47.9295L26.3859 45.7793C25.3998 45.4968 23.6943 44.8864 22.9314 44.4832Z" fill="white"/>
<path d="M30.7279 4.84589C32.3253 4.84589 33.8928 5.20388 35.0971 5.83375C35.2075 5.48641 35.3615 5.06587 35.5706 4.62591L35.1156 4.67768L34.6375 4.72519L34.4352 4.31757L33.8261 3.10989L32.716 3.65324L32.2839 3.86031L31.9391 3.54119L30.7324 2.41974L29.5281 3.54119L29.1833 3.86031L28.7513 3.65324L27.6342 3.10989L27.032 4.31757L26.8253 4.72519L26.3471 4.67768L25.892 4.62591C26.1012 5.068 26.2529 5.48641 26.3655 5.83375C27.5722 5.20388 29.1351 4.84589 30.7279 4.84589Z" fill="white"/>
<path d="M55.1161 18.8037C55.3231 18.8706 55.5344 18.9007 55.7436 18.9007C56.6468 18.9007 57.5203 18.353 57.8213 17.7253C57.8213 17.7253 56.1642 17.6305 54.3829 15.9332C53.8153 15.3832 53.2154 15.2194 52.7005 15.2194C51.9006 15.2194 51.3007 15.6162 51.3007 15.6162C53.4521 16.6902 53.891 18.4155 55.1161 18.8037Z" fill="white"/>
<path d="M5.71264 18.9007C5.92173 18.9007 6.13322 18.8706 6.33555 18.8037C7.56512 18.4155 8.00643 16.6902 10.1578 15.6162C10.1578 15.6162 9.55549 15.2194 8.76031 15.2194C8.24314 15.2194 7.64324 15.3832 7.0732 15.9332C5.29433 17.6305 3.63712 17.7253 3.63712 17.7253C3.93362 18.353 4.80932 18.9007 5.71264 18.9007Z" fill="white"/>
<path d="M55.7005 25.8151C55.7374 25.8172 55.7695 25.8172 55.8086 25.8172C58.0633 25.8172 58.8288 23.5504 58.8288 23.5504H58.785C58.3714 23.5504 55.0179 23.46 52.6482 20.6325C51.0876 18.7736 49.8096 17.1388 47.2836 16.4961L47.0355 16.4551L46.9803 16.2179C46.9113 15.8556 47.1757 15.517 47.7756 15.1504C51.26 13.0089 48.8949 10.2785 48.8949 10.2785C48.8949 10.2785 47.8997 12.4632 45.6726 12.4632C45.6196 12.4632 45.5622 12.461 45.5071 12.461C45.2543 12.4481 45.0106 12.4394 44.7645 12.39L44.3532 12.3143C44.3532 12.3143 44.9877 10.6948 43.4568 9.20667C42.303 8.0831 40.8987 7.89333 40.0873 7.89333C39.6781 7.89333 39.4184 7.94282 39.4184 7.94282C40.1884 8.88741 40.7447 10.4532 39.8552 11.4194C39.0876 12.2496 37.212 12.2906 37.212 13.5285C37.212 14.0527 37.7338 14.6652 38.6715 15.215C41.4917 16.8821 44.2912 19.0927 45.4541 22.056C46.909 25.7525 45.2703 28.2047 42.9305 29.6108C42.9305 29.6108 43.6637 30.2448 44.728 30.3246C44.9439 30.344 45.1555 30.3526 45.3531 30.3526C47.5986 30.3526 48.7593 29.3648 48.7593 29.3648C48.7593 29.3648 48.5685 30.7299 47.3986 31.9981C46.3207 33.1692 44.9048 33.8572 42.7466 33.8874C42.7466 33.8874 42.6776 34.8276 43.6338 35.6407C44.2451 36.154 45.6587 36.3222 45.6587 36.3222C45.6587 36.3222 43.0132 36.8246 42.7214 40.4911C42.5627 42.4772 42.0226 43.1674 42.0226 43.1674H42.071C48.2099 43.1674 48.0513 38.2266 48.0513 38.2266C48.0513 38.2266 48.4788 39.6887 50.1912 40.0704C50.398 40.1223 50.6187 40.1417 50.8301 40.1417C51.3819 40.1417 51.8598 40.0209 51.8598 40.0209C51.8598 40.0209 50.9635 38.246 51.8529 35.7636C52.5907 33.704 52.4712 32.1771 52.4712 32.1771C52.4712 32.1771 53.2986 33.3504 55.3489 33.3612H55.3695C57.0773 33.3612 57.8219 32.147 57.8219 32.147C53.7285 30.5532 54.133 25.4075 54.133 25.4075C54.133 25.4075 54.664 25.7783 55.7005 25.8151ZM54.4685 31.1893C52.8044 30.4195 51.7518 28.375 51.4967 27.6373C51.2208 31.6918 49.1109 34.5063 46.6447 37.215C45.3645 38.619 44.9187 39.9841 44.9187 39.9841C44.9187 39.9841 45.1645 38.4379 46.2723 37.1784C48.5731 34.5839 50.759 31.3554 50.9221 27.6223C51.0347 25.017 50.3199 22.9036 49.2052 21.1632C49.828 22.9769 49.7408 25.1982 47.6238 27.2707C47.6238 27.2707 51.8369 22.5325 45.946 17.6758C43.5878 15.8277 41.009 14.6867 39.6806 13.878C44.4796 15.3467 46.8218 13.7291 46.8218 13.7291C45.2886 14.9756 43.3052 14.9541 42.0754 14.7751C42.4087 14.9283 42.7559 15.0878 43.1305 15.2754C47.1757 17.3373 50.8118 20.7296 51.4323 25.429V25.3923C52.3747 30.0053 54.4685 31.1893 54.4685 31.1893Z" fill="white"/>
<path d="M15.7969 36.3222C15.7969 36.3222 17.2104 36.1561 17.8219 35.6407C18.7756 34.8276 18.7091 33.8874 18.7091 33.8874C16.5486 33.8592 15.135 33.1692 14.0502 32.0004C12.8894 30.7322 12.6964 29.367 12.6964 29.367C12.6964 29.367 13.857 30.3548 16.1003 30.3548C16.3026 30.3548 16.5118 30.3461 16.7277 30.3267C17.792 30.2469 18.5275 29.6128 18.5275 29.6128C16.1875 28.2067 14.5466 25.7525 15.9992 22.056C17.1645 19.0948 19.9616 16.8821 22.7819 15.215C23.7196 14.6652 24.2413 14.0547 24.2413 13.5285C24.2413 12.2906 22.3681 12.2496 21.6003 11.4194C20.711 10.4532 21.2695 8.88529 22.0371 7.94282C22.0371 7.94282 21.782 7.89333 21.3705 7.89333C20.5615 7.89333 19.1572 8.0831 18.0034 9.20667C16.468 10.6948 17.1048 12.3143 17.1048 12.3143L16.6933 12.39C16.4475 12.4394 16.2014 12.4481 15.9509 12.461C15.8935 12.461 15.8429 12.4632 15.7878 12.4632C13.556 12.4632 12.5654 10.2806 12.5654 10.2806C12.5654 10.2806 10.2003 13.0111 13.6823 15.1525C14.2823 15.5192 14.5444 15.8577 14.4754 16.2201L14.4201 16.4573L14.1673 16.4983C11.646 17.141 10.3658 18.7757 8.80517 20.6347C6.44004 23.4578 3.09123 23.5504 2.67306 23.5504H2.62694C2.62694 23.5504 3.39239 25.8172 5.64711 25.8172C5.68392 25.8172 5.71605 25.8172 5.75511 25.8151C6.79167 25.7805 7.3249 25.4075 7.3249 25.4075C7.3249 25.4075 7.7249 30.5509 3.63602 32.147C3.63602 32.147 4.38074 33.3612 6.08842 33.3612H6.10914C8.16154 33.3504 8.98677 32.1771 8.98677 32.1771C8.98677 32.1771 8.8672 33.704 9.60275 35.7636C10.4921 38.246 9.60036 40.0209 9.60036 40.0209C9.60036 40.0209 10.0785 40.1417 10.6278 40.1417C10.8415 40.1417 11.0599 40.1223 11.2645 40.0704C12.9744 39.6887 13.4042 38.2266 13.4042 38.2266C13.4042 38.2266 13.2479 43.1674 19.3871 43.1674H19.4306C19.4306 43.1674 18.8929 42.4772 18.7366 40.4911C18.4425 36.8246 15.7969 36.3222 15.7969 36.3222ZM14.811 37.215C12.3448 34.5063 10.2371 31.6918 9.95889 27.6373C9.70385 28.3729 8.65571 30.4195 6.99175 31.1893C6.99175 31.1893 9.0832 30.0053 10.0233 25.3923V25.429C10.6462 20.7319 14.28 17.3373 18.3274 15.2754C18.6975 15.0857 19.0491 14.9262 19.3802 14.7751C18.1505 14.9541 16.167 14.9756 14.6339 13.7291C14.6339 13.7291 16.976 15.3467 21.7728 13.878C20.4444 14.6867 17.8678 15.8277 15.5096 17.6758C9.61642 22.5325 13.8317 27.2707 13.8317 27.2707C11.7127 25.1959 11.6277 22.9769 12.2505 21.1632C11.1335 22.9057 10.4209 25.017 10.5358 27.6223C10.6967 31.3554 12.8825 34.5839 15.1786 37.1784C16.2889 38.4357 16.5394 39.9841 16.5394 39.9841C16.5394 39.9841 16.0887 38.619 14.811 37.215Z" fill="white"/>
<path d="M26.1889 18.2583C26.2899 18.3596 26.3887 18.4698 26.4831 18.5796C26.5061 18.6056 26.5266 18.6293 26.5496 18.6595C26.637 18.7694 26.7267 18.886 26.8118 19.0045C26.8301 19.0282 26.8486 19.0563 26.8691 19.0842C26.9726 19.2309 27.0692 19.382 27.1656 19.5373C28.0505 20.9713 29.4687 21.8275 30.7259 21.8297C31.9854 21.8275 33.399 20.9713 34.2885 19.5373C34.3874 19.3776 34.4862 19.2224 34.5895 19.0779C34.6056 19.0563 34.6218 19.0369 34.6355 19.0153C34.7228 18.8924 34.8149 18.7716 34.9114 18.6551C34.932 18.6293 34.9504 18.6077 34.9688 18.5861C35.0676 18.4718 35.1687 18.3597 35.2722 18.2561C35.2905 18.2389 35.3043 18.2238 35.3204 18.2109C35.7708 17.7774 36.3087 17.4474 37.012 17.2641L36.6994 17.0938H36.6811L35.4352 16.4144L34.1552 15.7264L30.7351 17.4733L30.7259 17.4668L30.719 17.4733L27.2966 15.7264L26.0188 16.4122L24.7708 17.0915H24.7569L24.4397 17.262C25.1453 17.4452 25.6808 17.7709 26.1337 18.2044C26.1542 18.2216 26.1681 18.2411 26.1889 18.2583ZM29.3422 18.1181H30.7902H32.2359V19.0498C31.8959 18.6595 31.2339 18.7393 31.2339 18.7393V20.0829C31.2339 20.0829 31.2592 20.7428 31.505 21.0296H30.7902H30.0731C30.3236 20.745 30.3467 20.0829 30.3467 20.0829V18.7393C30.3467 18.7393 29.687 18.6595 29.3422 19.0498V18.1181Z" fill="white"/>
<path d="M30.4316 16.3105V10.8564L26.7311 9.67877L27.7079 14.9648L30.4316 16.3105ZM29.6363 12.1957V13.0713L29.4571 12.9936C29.4479 12.9872 29.1859 12.9311 28.7261 12.5903C27.9677 12.0382 27.954 11.5292 27.954 11.5292L29.6363 12.1957Z" fill="white"/>
<path d="M33.7507 14.9648L34.7229 9.67877L31.0247 10.8564V16.3105L33.7507 14.9648ZM31.8201 12.1957L33.5023 11.5314C33.5023 11.5314 33.4887 12.0404 32.7279 12.5924C32.2705 12.9332 32.0062 12.9892 31.997 12.9957L31.8176 13.0733V12.1957H31.8201Z" fill="white"/>
<path d="M25.1981 28.9553C25.559 29.0782 25.9957 29.1041 26.2186 29.1041C26.2279 29.0782 26.2393 29.0458 26.2509 29.007C26.2714 28.9445 26.2899 28.8841 26.3038 28.815C26.3658 28.5133 26.3888 28.1703 26.3933 27.9503C26.2415 27.8618 26.0279 27.7043 25.9085 27.4693C25.7705 27.1976 25.5751 27.0725 25.2877 27.0725C24.9154 27.0725 24.5156 27.2817 24.3454 27.381C24.21 28.1335 24.8005 28.8173 25.1981 28.9553Z" fill="white"/>
<path d="M33.3824 26.0607C32.6952 26.7616 31.3506 27.9823 31.2839 28.0448L31.2034 28.1225L26.9537 28.0599C26.9513 28.4546 26.8824 28.791 26.8158 29.0369C26.8043 29.0779 26.7929 29.121 26.7813 29.1641L31.8378 30.0161C32.3641 29.671 33.8121 28.6788 34.373 28.2907C33.9638 27.73 33.9247 27.0657 34.0166 26.5978C33.7501 26.436 33.5455 26.2548 33.3824 26.0607Z" fill="white"/>
<path d="M33.9596 21.2649C32.9803 22.1771 32.0404 22.5135 31.2015 22.5912C31.0497 22.6063 30.8958 22.6148 30.7395 22.6148H30.7279H30.7187C30.5625 22.6148 30.4062 22.6063 30.2544 22.5912C30.1074 22.5782 29.9534 22.5566 29.7995 22.5243C29.7442 22.7291 29.6752 23.1583 29.8729 23.5638C30.0499 23.9326 30.4108 24.2064 30.9371 24.3877L31.114 24.4523L31.1164 24.6313C31.1164 24.6852 31.1578 25.8455 32.5069 26.1668C32.7275 25.9533 32.9275 25.7614 33.0747 25.6017C32.7988 24.9936 32.9435 24.3725 33.3435 24.0684C33.3252 24.1331 33.1505 25.6558 34.4515 26.2207L34.6652 26.3157L34.6008 26.5292C34.58 26.5939 34.1457 28.0669 35.7201 28.6146L35.9982 28.7139L35.874 28.9684C35.8466 29.0244 35.2283 30.3616 36.6832 31.1207H39.8388V28.77C38.7173 28.6405 38.2414 27.7952 38.1197 27.1955C37.598 27.1114 37.1934 26.9001 36.9175 26.555C36.2555 25.7376 36.8256 24.9893 36.8325 24.9483C36.8303 24.9549 36.8325 25.7528 37.3566 26.2445C37.6163 26.4817 37.9244 26.6651 38.3908 26.7061L38.6207 26.7255L38.6414 26.9455C38.6459 26.9928 38.7724 28.0712 39.8411 28.2415L39.8388 23.4408C39.8388 22.6968 40.071 21.9485 40.3491 21.2583H33.9596V21.2649Z" fill="white"/>
<path d="M25.4673 23.4638L25.3823 26.522L25.7522 26.5738L26.6579 23.6407L26.1982 22.7392L25.4673 23.4638Z" fill="white"/>
<path d="M35.4514 37.489C35.479 37.489 35.5112 37.4934 35.541 37.4998C36.1042 37.6509 36.2468 39.5573 37.235 39.7276C37.3316 39.747 37.4212 39.7513 37.4994 39.7513C37.7844 39.7513 37.9545 39.637 38.1383 39.4344C38.1383 39.4344 37.6418 38.701 37.2695 38.2073C36.7754 37.5602 36.3916 36.7773 35.4722 36.7773C35.4514 36.7773 35.4239 36.7773 35.401 36.7796C35.0975 36.7946 34.9113 36.9326 34.9113 36.9326C34.5389 36.7127 34.192 36.6372 33.877 36.6372C33.3002 36.6372 32.852 36.8853 32.6289 36.8853H32.6198L30.5649 36.6955C30.2432 36.6674 29.9904 36.3633 29.8985 36.2448C29.8755 36.2123 29.864 36.193 29.864 36.193C29.864 36.1411 29.864 36.0873 29.8595 36.0398C29.7905 34.4633 28.4896 33.7883 28.0276 33.7774C28.0276 33.7774 28.0827 33.4777 27.9564 33.3635L27.5035 33.8788L26.0165 33.1779L27.076 34.3404L26.1773 35.287C26.0646 35.3951 26.0785 35.5417 26.1245 35.602L26.5129 35.9234L27.0048 35.643C27.03 35.6258 27.0738 35.6214 27.1289 35.6214C27.2645 35.6214 27.4691 35.6537 27.6529 35.6537C27.8529 35.6537 28.0276 35.6127 28.0483 35.4358C27.9862 36.0204 27.4094 37.0361 27.7886 37.8341L28.0691 38.4359L26.2532 38.1899L25.4028 39.5379C25.1408 39.9865 25.0994 40.4717 25.3522 40.7348L25.6693 41.108C25.6693 41.108 26.1153 40.6636 26.2164 40.3724L26.0716 40.2237C25.9498 40.0986 25.9567 39.9865 26.0303 39.8507L26.5635 39.0202L28.7079 39.4947L28.8204 39.3136C28.9653 39.0871 29.1745 39.018 29.4044 39.018C29.4985 39.018 29.5951 39.0289 29.6962 39.044C30.0939 39.1174 30.749 39.2165 31.404 39.2165C32.1234 39.2165 32.8359 39.0958 33.215 38.6969C33.9919 39.7773 35.5664 39.9498 35.4422 40.4975L35.0286 42.348C35.3021 42.3372 35.5664 42.3199 35.8169 42.2875L36.2099 40.3616C36.2537 40.1524 36.2949 39.8699 36.2949 39.8699C36.1433 39.7255 35.7755 39.4192 35.5688 39.0483C35.2905 38.5479 35.4422 38.287 35.1825 37.6356C35.1917 37.64 35.2699 37.489 35.4514 37.489ZM27.43 34.7846C27.3243 34.7824 27.2484 34.6983 27.2529 34.5992C27.2622 34.5043 27.3472 34.4288 27.4506 34.4374C27.5564 34.4418 27.6323 34.528 27.6277 34.6229C27.6184 34.7178 27.5311 34.7911 27.43 34.7846Z" fill="white"/>
<path d="M24.5019 39.2401C24.5019 39.2401 25.2121 38.9662 25.2764 38.7699L25.1822 38.5478C25.1155 38.4033 25.1247 38.2458 25.2534 38.1597L26.021 37.6614L27.3036 37.8921C27.3036 37.8921 27.0714 37.6204 27.0945 37.2559L25.8718 37.0122L24.7179 37.6721C24.2237 38.0194 24.1869 38.5865 24.3501 38.9229L24.5019 39.2401Z" fill="white"/>
<path d="M33.5664 42.3759C33.7962 42.3673 34.049 42.363 34.3272 42.363C34.3272 42.363 34.9869 40.5535 35.0235 40.4954C34.6536 40.3422 33.8859 39.9603 33.5894 39.7858C33.7848 40.0597 34.2605 40.3745 34.1664 40.6161L33.5664 42.3759Z" fill="white"/>
<path d="M39.8453 31.6446H21.6119V38.08C21.6119 40.7112 23.6416 42.3589 26.6363 42.3589C29.1394 42.3589 29.7988 42.4494 30.7298 43.3164C31.3711 42.7169 31.9021 42.4925 32.9915 42.4084L33.0167 42.3093L33.5913 40.6422C33.5591 40.6055 32.6192 39.6027 32.6192 39.6027C32.2468 39.7192 31.9343 39.7386 31.4079 39.7386C30.8677 39.7386 30.2587 39.6803 29.599 39.5639C29.5323 39.5489 29.4703 39.5445 29.4082 39.5445C29.3277 39.5445 29.3209 39.5509 29.3002 39.5876L29.1853 39.7644L28.9761 40.0879L28.5832 40.0038L26.834 39.6177L26.5949 39.9888L26.6317 40.0275L26.8455 40.2475L26.7513 40.5344C26.6225 40.9096 26.2042 41.3474 26.0778 41.4683L25.641 41.9082L25.2435 41.4359L24.9448 41.0844C24.6297 40.7544 24.5563 40.2475 24.7332 39.7171C24.7286 39.7213 24.7216 39.7234 24.7149 39.7234L24.2208 39.9154L23.9976 39.4624L23.8414 39.1412C23.5726 38.5761 23.6713 37.7502 24.3955 37.2519L25.8044 36.5057L27.1444 36.7538C27.1765 36.6329 27.2247 36.2016 27.2638 36.0917C27.2385 36.0896 27.2133 36.0831 27.1879 36.0831L26.4157 36.3526L25.6709 35.8696C25.6709 35.8696 25.3791 35.6063 25.6433 35.3433L26.365 34.319L24.5378 32.1665L27.3465 33.2493L27.5328 33.0314L27.9119 32.6065L28.3418 32.9904C28.4635 33.1004 28.5325 33.2362 28.5669 33.3721C29.3415 33.6547 30.7274 34.4893 30.8492 35.8458L30.4149 36.0097V36.0205C30.5138 36.1305 30.5965 36.1759 30.6217 36.18L32.626 36.3656C32.6765 36.3569 32.741 36.3354 32.8122 36.3159C33.0604 36.2362 33.4351 36.1219 33.8786 36.1219C34.2395 36.1219 34.5887 36.1995 34.9243 36.3462C35.0485 36.3031 35.2003 36.2707 35.375 36.26L35.4713 36.2578C36.5448 36.2578 37.0779 37.0103 37.5056 37.6101C37.5768 37.7134 37.648 37.8127 37.7216 37.9097C38.0962 38.4058 38.5857 39.1326 38.6065 39.1628L38.8271 39.4863L38.5558 39.7818C38.3468 40.0081 38.0341 40.2735 37.4963 40.2735C37.386 40.2735 37.2642 40.2627 37.1332 40.2388C37.0184 40.2195 36.9149 40.187 36.8138 40.1483C36.7977 40.2475 36.777 40.3662 36.7562 40.4674L36.4046 42.1885C38.5076 41.7033 39.8431 40.213 39.8431 38.0823L39.8453 31.6446Z" fill="#FFDD2D"/>
<path d="M21.6124 31.127H35.7914C35.0834 30.4413 35.0927 29.5722 35.2742 29.007C35.0673 28.9143 34.8973 28.8021 34.7456 28.6814C34.1917 29.0652 32.5 30.2212 32.0588 30.5101L31.9646 30.5706L26.4 29.626H26.2874C26.1542 29.626 25.9588 29.6216 25.745 29.5979C25.6852 29.833 25.4693 29.9948 25.2209 29.9948C25.1933 29.9948 25.1612 29.9927 25.1313 29.9861C24.9864 29.9624 24.8602 29.8933 24.7751 29.7791C24.6878 29.667 24.6534 29.5332 24.6786 29.3953L24.6993 29.2831C24.1246 28.9035 23.596 28.0559 23.8304 27.1631L23.8534 27.0682L23.9339 27.0143C23.9454 27.0057 24.0418 26.9453 24.1844 26.8676L23.7799 26.8094C23.6282 26.7835 23.5271 26.6519 23.5501 26.5118C23.5754 26.3695 23.7178 26.268 23.8672 26.2961L24.8302 26.4384L24.9176 23.2552L26.3519 21.8318L27.2459 23.5982L26.3012 26.6606L27.1517 26.7857C27.301 26.8072 27.4045 26.9388 27.3816 27.0833C27.3585 27.2105 27.2436 27.299 27.108 27.299C27.0941 27.299 27.0781 27.299 27.0643 27.2968L26.3724 27.1912C26.3817 27.2105 26.3954 27.2212 26.4047 27.2428C26.4782 27.3852 26.6414 27.4887 26.7379 27.5319L30.9809 27.5944C31.16 27.4305 31.6061 27.0207 32.0634 26.5872C31.02 26.2163 30.6406 25.3709 30.5762 24.8101C29.9925 24.5772 29.5903 24.2279 29.3674 23.7728C29.0961 23.21 29.1926 22.6471 29.2639 22.3732C28.6985 22.179 28.1033 21.8255 27.4964 21.2604H21.1069C21.3804 21.9503 21.6124 22.6989 21.6124 23.4429V31.127Z" fill="#FFDD2D"/>
<path d="M27.4525 34.4371C27.349 34.4284 27.2618 34.5038 27.2548 34.5988C27.2479 34.6979 27.3261 34.782 27.4318 34.7841C27.5328 34.7928 27.6226 34.7195 27.6316 34.6225C27.6316 34.5275 27.5583 34.4393 27.4525 34.4371Z" fill="black"/>
<path d="M39.8205 46.1066L38.7701 45.7291L39.0597 44.7112L39.3792 43.6006C39.3792 43.6006 37.5174 44.5474 34.895 45.2592C34.1503 45.4597 33.5872 45.5502 33.5872 45.5502V46.305C33.5872 46.305 32.1852 46.5337 30.7671 46.5337H30.7508H30.7302H30.7026H30.6865C29.2685 46.5337 27.8664 46.305 27.8664 46.305V45.5502C27.8664 45.5502 27.3009 45.4597 26.5586 45.2592C23.936 44.5474 22.0767 43.6006 22.0767 43.6006L22.3915 44.7112L22.688 45.7291L21.6353 46.1066L20.4678 46.5163C21.8078 47.1224 23.6625 48.0067 25.3612 48.4422L24.9612 49.4688C24.9612 49.4688 27.1148 50.3897 30.7026 50.3984V50.4006H30.7142H30.7302H30.7441H30.7532V50.3984C34.3457 50.3897 36.4969 49.4688 36.4969 49.4688L36.0946 48.4422C37.7931 48.0067 39.6527 47.1224 40.9858 46.5163L39.8205 46.1066ZM21.7135 46.5854L23.4419 46.0463L22.9317 44.4826C23.6923 44.8881 25.4003 45.4962 26.3884 45.7788L25.5542 47.9289C24.0279 47.5344 22.7569 47.075 21.7135 46.5854ZM30.7302 49.8592C28.7237 49.8592 26.4321 49.4257 25.7588 49.2015L26.7838 46.5983C27.6342 46.8313 29.404 47.0792 30.6888 47.0706H30.6912H30.7302H30.7647H30.7693C32.0542 47.0792 33.8193 46.8313 34.6744 46.5983L35.697 49.2015C35.0237 49.4278 32.7345 49.8592 30.7302 49.8592ZM35.9016 47.9289L35.0697 45.7788C36.0602 45.4962 37.7633 44.8881 38.5265 44.4826L38.0185 46.0463L39.7446 46.5854C38.6988 47.075 37.4346 47.5344 35.9016 47.9289Z" fill="black"/>
<path d="M30.7281 5.47542C32.8656 5.47542 34.5755 6.13976 35.5202 6.84933C35.5202 6.84933 35.8006 5.26409 36.7591 3.86451L35.0375 4.04775L34.1366 2.25132L32.4059 3.08813L30.7281 1.53096L29.0548 3.08813L27.3219 2.25132L26.4231 4.04775L24.7016 3.86451C25.6599 5.26409 25.9404 6.84933 25.9404 6.84933C26.8873 6.13976 28.5928 5.47542 30.7281 5.47542ZM26.3449 4.67748L26.823 4.72499L27.0299 4.31737L27.632 3.10968L28.7491 3.6509L29.1812 3.85798L29.526 3.53886L30.7303 2.4174L31.937 3.53886L32.2818 3.85798L32.7139 3.6509L33.8241 3.10968L34.4332 4.31737L34.6354 4.72499L35.1134 4.67748L35.5685 4.62571C35.3594 5.06794 35.2053 5.4862 35.0949 5.83354C33.8906 5.20382 32.3231 4.84569 30.7258 4.84569C29.1353 4.84569 27.57 5.20382 26.361 5.83354C26.2485 5.4862 26.0968 5.06566 25.8875 4.62571L26.3449 4.67748Z" fill="black"/>
<path d="M55.8058 26.5094C58.5709 26.5094 59.4948 23.8698 59.5339 23.7576L59.8418 22.828L58.8052 22.8583H58.8008C58.4353 22.8583 55.3853 22.7827 53.2225 20.2034L53.0179 19.9641C51.6044 18.2776 50.2644 16.6752 47.8694 15.944C47.9384 15.8859 48.0372 15.8125 48.1729 15.7305C49.4439 14.9455 50.1839 13.9922 50.3701 12.8859C50.6412 11.221 49.5105 9.89463 49.46 9.84072L48.69 8.9479L48.2097 10.0068C48.1775 10.0736 47.3683 11.7688 45.6675 11.7688H45.5411C45.424 11.7623 45.3135 11.758 45.2032 11.7493C45.2631 10.9924 45.1159 9.8213 43.9852 8.72353C42.6267 7.40152 40.9581 7.20309 40.0848 7.20309C39.6181 7.20309 39.3079 7.257 39.2756 7.2614L38.1127 7.47698L38.8298 8.36342C39.3929 9.04705 39.9031 10.3088 39.2985 10.9687C39.1055 11.1779 38.708 11.3482 38.3264 11.5186C37.5427 11.8571 36.4739 12.3273 36.4739 13.5265C36.4739 14.3029 37.1152 15.1137 38.2781 15.8038C41.7213 17.8354 43.8449 19.9554 44.762 22.2953C46.1801 25.8949 44.3298 27.9479 42.5325 29.0285L41.7257 29.5158L42.4314 30.1239C42.5256 30.2017 43.3899 30.9155 44.6654 31.0191C44.9067 31.0341 45.1388 31.047 45.355 31.047C46.1732 31.047 46.8697 30.9263 47.435 30.7644C47.2787 31.0211 47.0879 31.2821 46.8466 31.5453C45.8193 32.6623 44.5551 33.1714 42.7371 33.1972L42.0613 33.2081L42.0085 33.8442C42.0015 33.9714 41.9511 35.1512 43.1415 36.1541C43.3232 36.3092 43.5438 36.4366 43.7736 36.5423C42.9669 37.2238 42.1463 38.4099 41.9879 40.4436C41.8545 42.1408 41.4224 42.7685 41.4178 42.7748L40.6709 43.8445L42.02 43.8619C44.2495 43.8619 45.9571 43.2839 47.1408 42.1408C47.8395 41.4636 48.2395 40.7002 48.4763 40.0231C48.8647 40.3335 49.3658 40.6053 50.0184 40.7498C50.2667 40.8037 50.538 40.8339 50.8298 40.8339C51.4597 40.8339 51.986 40.7088 52.0457 40.6959L52.9075 40.4802L52.5261 39.7253C52.4985 39.665 51.7791 38.151 52.5535 35.99C52.8869 35.0562 53.0569 34.2194 53.1396 33.5682C53.6821 33.8334 54.4085 34.0534 55.3484 34.0555C57.4814 34.0555 58.4214 32.561 58.4652 32.4985L58.8857 31.8126L58.1066 31.5107C55.5645 30.5208 55.0015 27.8616 54.8888 26.421C55.1186 26.462 55.3807 26.5009 55.6771 26.5094H55.8058ZM57.8215 32.1468C57.8215 32.1468 57.0768 33.3611 55.3691 33.3611H55.3484C53.2982 33.3503 52.4708 32.1771 52.4708 32.1771C52.4708 32.1771 52.5904 33.7041 51.8503 35.7636C50.9608 38.2459 51.8572 40.021 51.8572 40.021C51.8572 40.021 51.3791 40.1416 50.8276 40.1416C50.616 40.1416 50.3954 40.1222 50.1885 40.0704C48.4763 39.6887 48.0488 38.2265 48.0488 38.2265C48.0488 38.2265 48.2073 43.1674 42.0682 43.1674H42.02C42.02 43.1674 42.5601 42.4772 42.721 40.4909C43.0128 36.8247 45.6585 36.3223 45.6585 36.3223C45.6585 36.3223 44.247 36.1562 43.6357 35.6408C42.6795 34.8277 42.7462 33.8873 42.7462 33.8873C44.9067 33.8593 46.3203 33.1692 47.3982 31.9982C48.5659 30.73 48.7589 29.3649 48.7589 29.3649C48.7589 29.3649 47.5981 30.3526 45.3527 30.3526C45.1551 30.3526 44.9435 30.3439 44.7275 30.3245C43.6656 30.2448 42.9301 29.6106 42.9301 29.6106C45.2675 28.2045 46.9087 25.7503 45.4538 22.0537C44.2885 19.0927 41.4891 16.8801 38.6712 15.213C37.7334 14.663 37.2116 14.0527 37.2116 13.5265C37.2116 12.2885 39.0872 12.2497 39.8572 11.4172C40.7443 10.451 40.1881 8.88322 39.4182 7.94076C39.4182 7.94076 39.6779 7.89112 40.087 7.89112C40.8983 7.89112 42.3027 8.08302 43.4565 9.20448C44.9895 10.6926 44.3528 12.3123 44.3528 12.3123L44.7643 12.3878C45.0102 12.4373 45.2539 12.446 45.5067 12.4567C45.5618 12.4567 45.617 12.4589 45.6721 12.4589C47.8993 12.4589 48.8946 10.2742 48.8946 10.2742C48.8946 10.2742 51.262 13.0067 47.7775 15.146C47.1776 15.5127 46.9132 15.8512 46.9823 16.2136L47.0375 16.4509L47.2856 16.4918C49.8116 17.1345 51.0895 18.7693 52.6501 20.6282C55.0198 23.4557 58.3733 23.5463 58.7869 23.5463H58.8306C58.8306 23.5463 58.0652 25.8128 55.8105 25.8128C55.7737 25.8128 55.7415 25.8128 55.7024 25.8108C54.6659 25.7761 54.1349 25.4032 54.1349 25.4032C54.1349 25.4032 53.7281 30.551 57.8215 32.1468Z" fill="black"/>
<path d="M50.9492 16.2288C51.981 16.7442 52.581 17.4343 53.1073 18.0467C53.6244 18.6441 54.1163 19.22 54.8838 19.4594C55.1574 19.5479 55.447 19.5889 55.7412 19.5889C56.895 19.5889 58.0535 18.9267 58.4924 18.0102L58.9337 17.0914L57.865 17.031C57.8144 17.0288 56.44 16.9124 54.9093 15.4437C54.2795 14.8421 53.5187 14.5249 52.6981 14.5249C51.6961 14.5249 50.9536 14.9951 50.8709 15.0426L49.8872 15.6918L50.9492 16.2288ZM52.7005 15.2195C53.2152 15.2195 53.8152 15.3833 54.383 15.9333C56.164 17.6306 57.8213 17.7255 57.8213 17.7255C57.5202 18.3509 56.6469 18.9008 55.7435 18.9008C55.5344 18.9008 55.3252 18.8707 55.116 18.8039C53.891 18.4156 53.452 16.6903 51.2984 15.6162C51.2984 15.6162 51.9007 15.2195 52.7005 15.2195Z" fill="black"/>
<path d="M51.4313 25.3924V25.427C50.8108 20.7298 47.1747 17.3374 43.1295 15.2735C42.7549 15.0858 42.4101 14.9263 42.0746 14.7731C43.3065 14.9521 45.29 14.9737 46.8207 13.7271C46.8207 13.7271 44.4787 15.3446 39.6796 13.876C41.0082 14.6847 43.5892 15.8256 45.9451 17.6738C51.836 22.5305 47.6206 27.2686 47.6206 27.2686C49.7375 25.1963 49.8248 22.9749 49.202 21.1612C50.3167 22.9015 51.0292 25.015 50.9188 27.6203C50.7557 31.3534 48.5699 34.5819 46.2691 37.1764C45.1636 38.4358 44.9155 39.9821 44.9155 39.9821C44.9155 39.9821 45.3612 38.617 46.6415 37.213C49.1077 34.5044 51.2153 31.6898 51.4911 27.6353C51.7463 28.3708 52.7966 30.4175 54.463 31.1873C54.4675 31.1895 52.3737 30.0055 51.4313 25.3924Z" fill="black"/>
<path d="M20.0377 42.7726C20.0354 42.7662 19.6079 42.1386 19.4701 40.4412C19.3093 38.4076 18.4909 37.2214 17.6819 36.5399C17.9164 36.4364 18.1323 36.3091 18.314 36.1518C19.5023 35.1488 19.4516 33.9692 19.4447 33.842L19.3988 33.2058L18.7184 33.195C16.9051 33.1669 15.6385 32.658 14.6112 31.5429C14.3721 31.2799 14.1791 31.0189 14.0228 30.7623C14.5881 30.9239 15.2799 31.0448 16.1005 31.0448C16.3212 31.0448 16.5488 31.0317 16.7901 31.0167C18.0656 30.9132 18.9299 30.2015 19.0264 30.1218L19.732 29.5136L18.9253 29.0261C17.121 27.9435 15.2777 25.8904 16.6935 22.2931C17.6105 19.9531 19.732 17.8331 23.1796 15.8015C24.3427 15.1114 24.9793 14.3006 24.9793 13.5242C24.9793 12.3251 23.9129 11.8528 23.1291 11.5163C22.7475 11.3459 22.35 11.1756 22.157 10.9664C21.5501 10.3086 22.0626 9.04487 22.6234 8.3611L23.3452 7.4748L22.1775 7.25908C22.1431 7.25482 21.8374 7.20093 21.3686 7.20093C20.4951 7.20093 18.8311 7.39935 17.4704 8.72135C16.3373 9.82125 16.188 10.9923 16.2454 11.747C16.135 11.7557 16.0247 11.7601 15.9098 11.7664H15.7857C14.0803 11.7664 13.2736 10.0714 13.2414 10.0045L12.7609 8.94559L11.9841 9.83842C11.9404 9.89246 10.8051 11.2209 11.0808 12.8837C11.2647 13.9899 12.0047 14.9432 13.2757 15.7283C13.4137 15.8102 13.5102 15.8835 13.5792 15.9418C11.1866 16.6728 9.84887 18.2775 8.43529 19.9639L8.23071 20.2033C6.07031 22.7826 3.01334 22.8582 2.6479 22.8582L1.60683 22.828L1.92391 23.7574C1.9607 23.8696 2.88236 26.5093 5.64958 26.5093L5.78297 26.5051C6.07482 26.4964 6.33692 26.4598 6.57139 26.4166C6.45633 27.855 5.89322 30.5143 3.34889 31.5063L2.57203 31.8083L2.99277 32.4941C3.03407 32.5566 3.97645 34.0512 6.11386 34.0512C7.04709 34.049 7.77333 33.8289 8.31813 33.5638C8.40089 34.215 8.57092 35.0518 8.90422 35.9856C9.67883 38.1466 8.95709 39.6606 8.92945 39.721L8.54794 40.4759L9.41222 40.6915C9.4696 40.7044 10.0006 40.8294 10.628 40.8294C10.9222 40.8294 11.1935 40.7993 11.4372 40.7453C12.0922 40.6008 12.5977 40.3292 12.9815 40.0186C13.216 40.6957 13.6183 41.4592 14.3148 42.1364C15.5006 43.2794 17.206 43.8574 19.4355 43.8574L20.787 43.8402L20.0377 42.7726ZM19.3849 43.1673C13.2459 43.1673 13.4023 38.2264 13.4023 38.2264C13.4023 38.2264 12.9748 39.6886 11.2624 40.0704C11.0579 40.1221 10.8395 40.1416 10.6257 40.1416C10.0742 40.1416 9.59832 40.0207 9.59832 40.0207C9.59832 40.0207 10.4901 38.2458 9.60057 35.7636C8.86517 33.7039 8.98473 32.1771 8.98473 32.1771C8.98473 32.1771 8.15951 33.3503 6.10711 33.361H6.08638C4.3787 33.361 3.63398 32.1468 3.63398 32.1468C7.72511 30.5531 7.32286 25.4073 7.32286 25.4073C7.32286 25.4073 6.79205 25.7783 5.75308 25.8149C5.71628 25.8171 5.68188 25.8171 5.64507 25.8171C3.38795 25.8171 2.62491 23.5505 2.62491 23.5505H2.67087C3.08694 23.5505 6.43576 23.4598 8.80539 20.6325C10.366 18.7735 11.6462 17.1408 14.1675 16.4961L14.4203 16.4551L14.4756 16.2179C14.5446 15.8555 14.2825 15.5169 13.6827 15.1503C10.1982 13.0087 12.5656 10.2784 12.5656 10.2784C12.5656 10.2784 13.5562 12.461 15.788 12.461C15.8431 12.461 15.8938 12.4588 15.9511 12.4588C16.2016 12.4458 16.45 12.4372 16.6935 12.3876L17.105 12.3121C17.105 12.3121 16.4682 10.6925 18.0036 9.20444C19.1575 8.08085 20.5618 7.89108 21.3707 7.89108C21.7822 7.89108 22.0374 7.94058 22.0374 7.94058C21.2697 8.88518 20.7135 10.451 21.6005 11.4172C22.3683 12.2474 24.2415 12.2884 24.2415 13.5263C24.2415 14.0503 23.7198 14.663 22.7821 15.2128C19.9618 16.8799 17.1625 19.0926 15.9994 22.0537C14.5469 25.7503 16.1856 28.2023 18.5277 29.6106C18.5277 29.6106 17.7922 30.2446 16.7281 30.3245C16.512 30.3439 16.3028 30.3525 16.1005 30.3525C13.8573 30.3525 12.6966 29.3646 12.6966 29.3646C12.6966 29.3646 12.8896 30.73 14.0504 31.998C15.1352 33.169 16.5488 33.8592 18.7093 33.8873C18.7093 33.8873 18.7783 34.8276 17.8221 35.6405C17.2085 36.1538 15.7971 36.322 15.7971 36.322C15.7971 36.322 18.445 36.8246 18.7345 40.4909C18.8931 42.4771 19.4287 43.1673 19.4287 43.1673H19.3849Z" fill="black"/>
<path d="M5.71217 19.5914C6.00868 19.5914 6.29827 19.5503 6.57165 19.4618C7.344 19.2225 7.83352 18.6467 8.35067 18.0493C8.87939 17.4368 9.47466 16.7467 10.5066 16.2313L11.5685 15.6964L10.5824 15.0472C10.4997 14.9977 9.75959 14.5297 8.75982 14.5297C7.93701 14.5297 7.17396 14.8446 6.54641 15.4483C5.01568 16.9149 3.64355 17.0334 3.59293 17.0357L2.52423 17.0938L2.96328 18.0148C3.40443 18.927 4.56055 19.5914 5.71217 19.5914ZM7.07273 15.9358C7.64275 15.3858 8.24267 15.222 8.75982 15.222C9.55501 15.222 10.1572 15.6186 10.1572 15.6186C8.00595 16.6949 7.56465 18.4182 6.33493 18.8063C6.13275 18.8731 5.92126 18.9034 5.71217 18.9034C4.80884 18.9034 3.9354 18.3556 3.63664 17.728C3.63664 17.7259 5.29145 17.6308 7.07273 15.9358Z" fill="black"/>
<path d="M10.5363 27.6224C10.4214 25.0171 11.134 22.9036 12.2509 21.1632C11.628 22.977 11.7131 25.1983 13.8323 27.2709C13.8323 27.2709 9.61693 22.5328 15.51 17.676C17.8683 15.8277 20.4471 14.6867 21.7734 13.878C16.9765 15.3467 14.6344 13.7292 14.6344 13.7292C16.1651 14.9758 18.1487 14.9543 19.3807 14.7732C19.0474 14.9262 18.698 15.0858 18.3279 15.2734C14.2782 17.3373 10.6443 20.7297 10.0214 25.4269V25.3903C9.08145 30.0034 6.98984 31.1874 6.98984 31.1874C8.65396 30.4174 9.70209 28.3729 9.95714 27.6354C10.2353 31.6899 12.3428 34.5043 14.8091 37.2131C16.0893 38.6169 16.5398 39.9822 16.5398 39.9822C16.5398 39.9822 16.2893 38.4358 15.1792 37.1763C12.883 34.5862 10.6972 31.3556 10.5363 27.6224Z" fill="black"/>
<path d="M29.3419 18.1181V19.0498C29.6844 18.6594 30.3463 18.7393 30.3463 18.7393V20.0829C30.3463 20.0829 30.3233 20.7428 30.0728 21.0296H30.7899H31.5046C31.2588 20.745 31.2334 20.0829 31.2334 20.0829V18.7393C31.2334 18.7393 31.8953 18.6594 32.2356 19.0498V18.1181H30.7899H29.3419Z" fill="black"/>
<path d="M28.7257 12.5926C29.1831 12.9335 29.4474 12.9895 29.4566 12.996L29.6359 13.0736V12.1958L27.9535 11.5316C27.9535 11.5337 27.9695 12.0405 28.7257 12.5926Z" fill="black"/>
<path d="M32.7274 12.5926C33.4882 12.0405 33.5019 11.5316 33.5019 11.5316L31.8196 12.1958V13.0736L31.9964 12.996C32.008 12.9895 32.27 12.9335 32.7274 12.5926Z" fill="black"/>
<path d="M35.7584 9.01916C35.7584 7.68851 33.3703 6.49159 30.734 6.49159H30.7318H30.7249H30.718C28.0817 6.49159 25.6936 7.68851 25.6936 9.01916L25.7466 9.34694L26.7991 15.0168L25.742 15.5926L23.0068 17.0915H23.0161C23.0161 17.0915 22.4001 17.3869 22.115 17.5702C21.0739 18.2497 20.8533 19.2395 21.4577 19.6493C21.6072 18.8427 22.2874 17.9973 23.5607 17.9973C24.4778 17.9973 25.1765 18.4415 25.742 19.108C25.8868 19.2762 26.0247 19.4552 26.1534 19.6493C26.3119 19.8929 26.4705 20.1066 26.6292 20.3136H19.5846C20.1017 21.2905 20.5935 22.3258 20.5935 23.4493V38.08C20.5935 41.6212 23.4964 43.312 26.636 43.312C29.0631 43.312 29.3896 43.2085 30.7296 44.4593C32.0626 43.2064 32.389 43.312 34.8185 43.312C37.9603 43.312 40.8587 41.6212 40.8587 38.08V23.4493C40.8587 22.3258 41.3506 21.2905 41.87 20.3136H34.823C34.9793 20.1086 35.1379 19.8929 35.2964 19.6493C35.4275 19.4552 35.563 19.2762 35.7056 19.108C36.2755 18.4395 36.9719 17.9973 37.8891 17.9973C39.1623 17.9973 39.8404 18.8405 39.9921 19.6493C40.5967 19.2395 40.3783 18.2497 39.3301 17.5702C39.0498 17.3869 38.4337 17.0915 38.4337 17.0915H38.443L35.7079 15.5926L34.6552 15.0168L35.7079 9.34694L35.7584 9.01916ZM26.7302 9.6791L30.4307 10.8566V16.3108L27.7072 14.9629L26.7302 9.6791ZM27.4956 21.2645C28.1025 21.8317 28.6978 22.1833 29.2631 22.3774C29.1895 22.6513 29.0931 23.2164 29.3666 23.7792C29.5895 24.2321 29.994 24.5816 30.5754 24.8145C30.6399 25.3753 31.0168 26.2184 32.0626 26.5916C31.6053 27.025 31.1593 27.4326 30.9777 27.5987L26.7371 27.5361C26.6406 27.4908 26.4774 27.3895 26.404 27.245C26.3947 27.2256 26.3809 27.2148 26.3741 27.1932L27.0658 27.2989C27.082 27.301 27.0956 27.301 27.1095 27.301C27.2429 27.301 27.36 27.2148 27.3831 27.0854C27.406 26.9409 27.3026 26.8093 27.1532 26.7877L26.3028 26.6626L27.2474 23.6023L26.3533 21.8361L24.9192 23.2596L24.8317 26.4426L23.8688 26.3004C23.7193 26.2723 23.5769 26.3759 23.5516 26.516C23.5286 26.6563 23.6297 26.7877 23.7813 26.8137L24.1859 26.8718C24.0412 26.9496 23.947 27.0099 23.9354 27.0184L23.8526 27.0724L23.8296 27.1674C23.5953 28.0603 24.1261 28.9078 24.6986 29.2873L24.6778 29.3994C24.6548 29.5376 24.687 29.6711 24.7744 29.7833C24.8571 29.8977 24.9858 29.9667 25.1282 29.9904C25.1582 29.9947 25.1903 29.9968 25.218 29.9968C25.4661 29.9968 25.6823 29.8351 25.7443 29.6001C25.958 29.6237 26.1534 29.628 26.2867 29.628H26.3994L31.9638 30.5705L32.058 30.5124C32.5015 30.2211 34.1909 29.0653 34.7448 28.6834C34.8965 28.8064 35.0666 28.9186 35.2734 29.0112C35.0942 29.5762 35.0827 30.4454 35.7929 31.1313H21.6117V23.4515C21.6117 22.7074 21.3796 21.9591 21.1061 21.2689H27.4956V21.2645ZM34.3724 28.291C33.8094 28.6792 32.3614 29.6711 31.8374 30.0162L26.7808 29.1644C26.7924 29.1213 26.8038 29.0803 26.8154 29.0372C26.8819 28.7912 26.9486 28.4548 26.9533 28.0603L31.203 28.1249L31.2834 28.0472C31.3478 27.9869 32.6947 26.7661 33.3819 26.0631C33.5451 26.255 33.7496 26.4384 34.0162 26.6001C33.9243 27.066 33.9634 27.7302 34.3724 28.291ZM25.9074 27.4692C26.027 27.7043 26.2429 27.8618 26.3924 27.9502C26.3878 28.1701 26.3648 28.513 26.3028 28.815C26.2889 28.8818 26.2706 28.9444 26.2498 29.0069C26.2385 29.0459 26.2269 29.0782 26.2177 29.104C25.9948 29.104 25.5557 29.0782 25.1972 28.9552C24.7997 28.8172 24.2067 28.1335 24.3445 27.3809C24.5169 27.2816 24.9145 27.0724 25.2869 27.0724C25.5742 27.0703 25.7695 27.1975 25.9074 27.4692ZM25.3811 26.5225L25.4661 23.4665L26.197 22.7397L26.6568 23.6412L25.7511 26.5742L25.3811 26.5225ZM34.3265 42.3653C34.0507 42.3653 33.7956 42.3695 33.5657 42.3782L34.168 40.6205C34.2622 40.3768 33.7864 40.0641 33.591 39.7902C33.8875 39.965 34.6552 40.3466 35.0253 40.4998C34.9862 40.5558 34.3265 42.3653 34.3265 42.3653ZM36.2158 40.3682L35.8228 42.292C35.5723 42.3243 35.3057 42.3414 35.0321 42.3523L35.4459 40.502C35.5699 39.9519 33.9956 39.7815 33.2188 38.7011C32.8395 39.1022 32.1247 39.2209 31.4076 39.2209C30.7526 39.2209 30.0975 39.1216 29.6998 39.0483C29.5987 39.0333 29.5021 39.0225 29.4079 39.0225C29.1781 39.0225 28.9689 39.0893 28.8241 39.3179L28.7092 39.4991L26.5649 39.0246L26.0316 39.8528C25.9557 39.9865 25.9511 40.1009 26.073 40.2257L26.2177 40.3747C26.1189 40.668 25.6731 41.1101 25.6731 41.1101L25.3536 40.7369C25.1006 40.4717 25.1421 39.9887 25.4065 39.5401L26.2568 38.1921L28.0726 38.438L27.7899 37.8341C27.4107 37.0361 27.9875 36.0204 28.0496 35.4359C28.0289 35.6128 27.8564 35.6516 27.6542 35.6516C27.4704 35.6516 27.2658 35.6192 27.1302 35.6192C27.0773 35.6192 27.0313 35.6235 27.0061 35.6408L26.5142 35.9212L26.1258 35.5998C26.0798 35.5373 26.0638 35.3928 26.1786 35.285L27.0773 34.3403L26.0156 33.1779L27.5026 33.8788L27.9553 33.3634C28.0796 33.4778 28.0266 33.7775 28.0266 33.7775C28.4909 33.7882 29.7917 34.4634 29.8608 36.0377C29.8653 36.085 29.8653 36.139 29.8653 36.1906C29.8653 36.1906 29.8769 36.2102 29.8998 36.2425C29.9917 36.3612 30.2445 36.6652 30.5662 36.6932L32.6211 36.8831H32.6302C32.8556 36.8831 33.3038 36.6351 33.8783 36.6351C34.1909 36.6351 34.5402 36.7105 34.9126 36.9305C34.9126 36.9305 35.0987 36.7924 35.4022 36.7773C35.4251 36.7752 35.4505 36.7752 35.4735 36.7752C36.3952 36.7752 36.7767 37.556 37.2708 38.2051C37.6432 38.699 38.1397 39.4323 38.1397 39.4323C37.9558 39.637 37.7856 39.7492 37.5007 39.7492C37.4226 39.7492 37.3329 39.7427 37.2363 39.7255C36.2479 39.5551 36.1056 37.6487 35.5425 37.4976C35.5126 37.489 35.4804 37.4869 35.4528 37.4869C35.2712 37.4869 35.1908 37.6379 35.1908 37.6379C35.448 38.2869 35.2988 38.5502 35.5746 39.0505C35.7814 39.4214 36.1491 39.7277 36.3009 39.8722C36.3009 39.8765 36.2595 40.1569 36.2158 40.3682ZM25.1812 38.5479L25.2754 38.7702C25.2133 38.9642 24.5009 39.2402 24.5009 39.2402L24.3467 38.9253C24.1836 38.5889 24.218 38.0218 24.7146 37.6745L25.8684 37.0146L27.0912 37.2582C27.0681 37.6227 27.3002 37.8945 27.3002 37.8945L26.0178 37.6638L25.2501 38.162C25.1214 38.2461 25.1122 38.4035 25.1812 38.5479ZM36.4089 42.1863L36.7606 40.4652C36.7789 40.3639 36.8019 40.2453 36.818 40.146C36.9168 40.185 37.0226 40.2173 37.1375 40.2367C37.2684 40.2604 37.3902 40.2711 37.5007 40.2711C38.0386 40.2711 38.3511 40.0058 38.5602 39.7794L38.8315 39.484L38.6108 39.1605C38.5901 39.1281 38.1029 38.4035 37.7259 37.9074C37.6523 37.8104 37.581 37.7133 37.5099 37.6077C37.0824 37.008 36.5468 36.2555 35.4735 36.2555L35.3769 36.2577C35.1999 36.2684 35.0483 36.3007 34.9265 36.3438C34.5885 36.195 34.2415 36.1196 33.8805 36.1196C33.437 36.1196 33.0624 36.234 32.8141 36.3137C32.7429 36.3331 32.6786 36.3547 32.6281 36.3633L30.6215 36.1778C30.5962 36.1736 30.5134 36.1283 30.4146 36.0161V36.0074L30.849 35.8435C30.7272 34.4871 29.339 33.6524 28.5644 33.3698C28.53 33.2339 28.461 33.098 28.3393 32.9882L27.9071 32.6043L27.5278 33.0313L27.3417 33.2492L24.5331 32.1664L26.3603 34.3188L25.6385 35.3432C25.3742 35.6063 25.6662 35.8695 25.6662 35.8695L26.4107 36.3504L27.1831 36.0808C27.2106 36.0808 27.2337 36.0873 27.2589 36.0894C27.2222 36.1993 27.1739 36.6307 27.1416 36.7514L25.8017 36.5034L24.3928 37.2497C23.6688 37.7479 23.5699 38.5739 23.8389 39.139L23.9951 39.4601L24.218 39.9132L24.7099 39.7211C24.7169 39.719 24.7238 39.7168 24.7282 39.7127C24.5514 40.2431 24.6227 40.7477 24.9398 41.0799L25.2385 41.4336L25.6363 41.9059L26.073 41.4659C26.2017 41.3451 26.6177 40.9074 26.7464 40.5321L26.8406 40.2452L26.6269 40.0252L26.5924 39.9865L26.8315 39.6155L28.5804 40.0015L28.9735 40.0856L29.1827 39.7621L29.2976 39.5852C29.3183 39.5486 29.3251 39.5421 29.4057 39.5421C29.4677 39.5421 29.5297 39.5486 29.5964 39.5616C30.256 39.678 30.865 39.7364 31.4052 39.7364C31.9293 39.7364 32.2418 39.7168 32.6165 39.6005C32.6165 39.6005 33.5565 40.6011 33.5887 40.6399L33.0142 42.3049L32.9889 42.4062C31.8994 42.4881 31.3685 42.7125 30.7272 43.3142C29.7964 42.4471 29.1366 42.3567 26.6338 42.3567C23.6389 42.3567 21.6095 40.709 21.6095 38.0779V31.6446H39.8404L39.8451 38.0779C39.8473 40.2129 38.512 41.7009 36.4089 42.1863ZM40.3506 21.2645C40.0727 21.9547 39.8404 22.7032 39.8404 23.4472L39.8428 28.2479C38.7739 28.0797 38.6476 26.999 38.6429 26.9517L38.6223 26.7317L38.3924 26.7123C37.9281 26.6713 37.6202 26.4857 37.3605 26.2487C36.8364 25.7569 36.834 24.959 36.8364 24.9524C36.8296 24.9934 36.2595 25.7417 36.9215 26.5591C37.1995 26.9042 37.6018 27.1156 38.1235 27.1997C38.2453 27.7993 38.7211 28.6446 39.8428 28.774V31.1248H36.6893C35.2344 30.3657 35.8503 29.0285 35.8802 28.9725L36.0044 28.7179L35.7263 28.6187C34.1518 28.071 34.584 26.5958 34.6069 26.5333L34.6712 26.3175L34.4575 26.2227C33.1565 25.6576 33.3336 24.133 33.3498 24.0704C32.9498 24.3744 32.8049 24.9955 33.0808 25.6038C32.9314 25.7634 32.7315 25.9574 32.5131 26.1688C31.1662 25.8476 31.125 24.6851 31.125 24.6312L31.1224 24.4521L30.9456 24.3874C30.4192 24.2041 30.0583 23.9302 29.8813 23.5613C29.6815 23.1539 29.7526 22.7269 29.8079 22.5219C29.9619 22.5543 30.1158 22.5781 30.2629 22.5888C30.4146 22.6038 30.5709 22.6125 30.7272 22.6125H30.7364H30.7479C30.9042 22.6125 31.0583 22.6038 31.2099 22.5888C32.0488 22.5111 32.9889 22.1726 33.968 21.2624H40.3506V21.2645ZM35.4367 16.412L36.6824 17.0915H36.7008L37.0134 17.2618C36.3101 17.4452 35.7723 17.7751 35.3218 18.2086C35.3057 18.2216 35.2897 18.2389 35.2734 18.2539C35.1701 18.3574 35.0666 18.4696 34.9701 18.584C34.9517 18.6055 34.9333 18.6292 34.9126 18.6529C34.8161 18.7693 34.7265 18.8881 34.6391 19.013C34.6253 19.0347 34.6092 19.0563 34.5932 19.0756C34.4897 19.2201 34.391 19.3754 34.2921 19.5349C33.4049 20.9691 31.989 21.8254 30.7296 21.8275C29.4724 21.8254 28.0565 20.9691 27.1692 19.5349C27.0727 19.3796 26.9762 19.2288 26.8727 19.082C26.8521 19.054 26.8337 19.026 26.8154 19.0022C26.728 18.8837 26.6406 18.7672 26.551 18.6573C26.5281 18.6271 26.5073 18.6033 26.4843 18.5774C26.3878 18.4674 26.2889 18.3574 26.1901 18.256C26.1695 18.241 26.1557 18.2216 26.135 18.2043C25.6823 17.7708 25.1466 17.443 24.441 17.2618L24.7582 17.0915H24.772L26.0178 16.412L27.298 15.7242L30.718 17.471L30.7249 17.4646L30.734 17.471L34.1541 15.7242L35.4367 16.412ZM33.7495 14.965L31.0237 16.3129V10.8566L34.7219 9.6791L33.7495 14.965ZM30.7272 10.2571L26.6728 8.75393C27.0176 7.98833 28.608 7.33691 30.7272 7.33477C32.8487 7.33691 34.4391 7.98833 34.7816 8.75393L30.7272 10.2571Z" fill="black"/>
<path d="M80.9344 33.0818V24.4463H86.3327V21.3039H71.6057V24.4463H77.0037V33.0818H80.9344ZM91.7054 28.1578V21.3039H87.9058V33.0818H91.2599L97.811 26.2278V33.0818H101.611V21.3039H98.2565L91.7054 28.1578ZM114.394 28.7022V33.0818H118.194V21.3039H114.394V25.6092H108.288V21.3039H104.488V33.0818H108.288V28.7022H114.394ZM128.775 33.0818C129.639 33.0818 130.426 33.0077 131.159 32.8096C133.126 32.2901 134.409 30.7806 134.409 28.7269C134.409 26.7722 133.309 25.4114 131.554 24.7926C130.713 24.4958 129.719 24.471 128.775 24.471H124.87V21.3039H121.071V33.0818H128.775ZM128.119 27.2424C128.644 27.2424 129.142 27.2424 129.587 27.3908C130.217 27.5888 130.583 28.0836 130.583 28.6775C130.583 29.2961 130.217 29.8157 129.613 30.0631C129.194 30.2363 128.775 30.2363 128.119 30.2363H124.87V27.2424H128.119ZM141.221 28.628L145.755 33.0818H150.812L144.498 26.9454L150.577 21.3039H145.808L141.221 25.733H140.174V21.3039H136.375V33.0818H140.174V28.628H141.221ZM158.63 20.9823C153.52 20.9823 150.455 23.7039 150.455 27.2175C150.455 30.7313 153.52 33.453 158.63 33.453C163.715 33.453 166.781 30.7313 166.781 27.2175C166.781 23.7039 163.715 20.9823 158.63 20.9823ZM158.63 30.5828C156.089 30.5828 154.465 29.1476 154.465 27.2175C154.465 25.2877 156.089 23.8772 158.63 23.8772C161.146 23.8772 162.797 25.2877 162.797 27.2175C162.797 29.1476 161.146 30.5828 158.63 30.5828ZM179.436 20.6358H175.636V21.8234C170.866 21.9224 168.009 23.8276 168.009 27.1928C168.009 30.5579 170.866 32.3148 175.636 32.4138V33.6015H179.436V32.4138C184.23 32.3148 187.087 30.5579 187.087 27.1928C187.087 23.8276 184.23 21.9224 179.436 21.8234V20.6358ZM175.636 29.8899C173.015 29.7909 171.862 28.7765 171.862 27.1928C171.862 25.6092 173.015 24.471 175.636 24.3721V29.8899ZM179.436 24.3721C182.083 24.471 183.208 25.6092 183.208 27.1928C183.208 28.7765 182.083 29.7909 179.436 29.8899V24.3721ZM199.728 20.6358H195.928V21.8234C191.158 21.9224 188.304 23.8276 188.304 27.1928C188.304 30.5579 191.158 32.3148 195.928 32.4138V33.6015H199.728V32.4138C204.524 32.3148 207.38 30.5579 207.38 27.1928C207.38 23.8276 204.524 21.9224 199.728 21.8234V20.6358ZM195.928 29.8899C193.308 29.7909 192.155 28.7765 192.155 27.1928C192.155 25.6092 193.308 24.471 195.928 24.3721V29.8899ZM199.728 24.3721C202.375 24.471 203.502 25.6092 203.502 27.1928C203.502 28.7765 202.375 29.7909 199.728 29.8899V24.3721Z" fill="black"/>
</svg>
