<svg width="110" height="66" viewBox="0 0 110 66" fill="none" xmlns="http://www.w3.org/2000/svg">
<path fill-rule="evenodd" clip-rule="evenodd" d="M16.5491 1.62483C16.6202 1.0866 16.5745 0.538224 16.6557 0C16.7065 0.870806 16.6887 1.74669 16.7624 2.6175C16.7751 3.04909 16.7827 3.48069 16.8004 3.90974C16.8842 4.56475 16.8741 5.22484 16.8766 5.88238C16.9172 6.78873 16.9655 7.69508 16.9858 8.60143C17.0721 9.29706 17.0568 9.99777 17.0645 10.6985C17.1102 11.6048 17.1508 12.5086 17.1762 13.415C17.2726 14.1106 17.232 14.8164 17.2549 15.5171C17.2955 16.3371 17.3361 17.1597 17.3539 17.9797C17.4326 18.6551 17.4351 19.3355 17.4326 20.0133C17.4529 20.417 17.4681 20.8206 17.4808 21.2269C17.4122 21.1862 17.3412 21.1482 17.2726 21.1101C17.0619 20.945 16.8309 20.8054 16.6532 20.6023C16.6253 20.5896 16.5669 20.5693 16.539 20.5566C16.4882 20.4804 16.4222 20.4144 16.3486 20.3611C16.2293 20.2316 16.1023 20.1123 15.9754 19.993C15.9195 19.9168 15.851 19.8534 15.7698 19.8077C15.6885 19.5335 15.7748 19.2466 15.7672 18.9673C15.7622 18.4088 15.7723 17.8528 15.8434 17.2993C15.8637 16.5174 15.9195 15.738 15.9526 14.956C15.9449 14.4 15.9627 13.844 16.0312 13.2906C16.049 12.5493 16.0998 11.8105 16.1379 11.0717C16.1404 10.635 16.1353 10.1983 16.1709 9.7642C16.2521 9.07873 16.2343 8.38564 16.2902 7.69762C16.3562 6.95122 16.28 6.1972 16.3943 5.45587C16.4171 4.65107 16.4679 3.84627 16.506 3.04147C16.5009 2.56926 16.5009 2.0945 16.5491 1.62483ZM19.103 5.28577C19.301 5.53457 19.4558 5.81384 19.6208 6.08549C19.6843 6.63387 19.6208 7.18733 19.6691 7.73824C19.6995 8.51765 19.7452 9.29706 19.7579 10.079C19.8315 10.7366 19.8391 11.3966 19.8366 12.0567C19.8696 12.9631 19.928 13.8694 19.9432 14.7758C20.0168 15.4308 20.027 16.0909 20.0219 16.751C20.0524 17.6548 20.1133 18.5586 20.1285 19.4624C20.192 20.0539 20.2149 20.6505 20.2072 21.2472C20.1971 21.6813 20.2504 22.1129 20.2479 22.547C19.5853 22.415 18.9938 22.0774 18.3769 21.8285C18.3338 21.3284 18.3617 20.8232 18.3998 20.323C18.4708 19.8305 18.4378 19.3329 18.4835 18.8404C18.5546 18.0534 18.5267 17.2638 18.5724 16.4742C18.6562 15.8268 18.6282 15.1693 18.6892 14.5194C18.7526 13.6993 18.6892 12.8742 18.8034 12.0567C18.8237 11.2722 18.8796 10.4928 18.9126 9.70835C18.9049 9.13204 18.9252 8.5532 18.9938 7.98197C19.0065 7.08323 19.0928 6.18704 19.103 5.28577ZM21.6898 7.80933C21.8649 7.81948 22.0426 7.82456 22.2178 7.81948C22.261 8.31201 22.228 8.80454 22.2762 9.29706C22.3143 9.78451 22.332 10.2745 22.3574 10.7619C22.4666 11.3509 22.3981 11.9501 22.4539 12.5442C22.4869 13.0596 22.5174 13.5775 22.5402 14.0954C22.6468 14.7479 22.5884 15.4079 22.6468 16.0655C22.6875 16.5606 22.7027 17.0556 22.7281 17.5507C22.8372 18.1194 22.7687 18.7008 22.822 19.2745C22.8601 19.8508 22.8956 20.4271 22.9032 21.006C22.9642 21.5899 22.9946 22.1789 22.9743 22.7654C22.3295 22.8517 21.6771 22.8365 21.0323 22.7704C21.0196 22.1383 21.0831 21.5087 21.1034 20.8765C21.1567 20.1809 21.0983 19.4776 21.1998 18.7845C21.2278 18 21.2735 17.2181 21.3115 16.4361C21.3065 15.8573 21.3191 15.2785 21.3902 14.7047C21.408 13.9837 21.4562 13.2652 21.4943 12.5467C21.4994 12.0542 21.4892 11.5617 21.54 11.0691C21.6162 10.536 21.5755 9.99777 21.6339 9.46208C21.6644 8.9137 21.6974 8.36279 21.6898 7.80933ZM15.5083 22.0317C15.6936 22.3058 15.9018 22.5648 16.1049 22.8288C16.1582 23.8063 16.1049 24.7837 16.1582 25.7586C16.1759 26.9315 16.2369 28.1019 16.2394 29.2748C16.3333 30.3843 16.313 31.4988 16.3232 32.6083C16.3663 33.2658 16.3359 33.9259 16.3917 34.5834C16.4019 35.2613 16.4171 35.9417 16.4273 36.6196C16.544 37.8915 16.4704 39.171 16.5314 40.4455C16.5491 41.5575 16.605 42.667 16.6075 43.779C16.6481 44.5203 16.7141 45.2667 16.6684 46.008C16.4603 46.1096 16.2775 46.2543 16.0973 46.399C15.9043 46.5082 15.7469 46.6732 15.5438 46.762C15.1884 46.8306 14.8254 46.8509 14.47 46.9169C14.3761 46.9499 14.2771 46.9651 14.1781 46.9804C14.1654 46.14 14.2568 45.3022 14.2822 44.4619C14.2745 43.9668 14.2948 43.4692 14.3583 42.9792C14.3786 42.3217 14.4218 41.6641 14.4624 41.0066C14.4725 40.5547 14.4522 40.0952 14.536 39.6483C14.5614 39.0111 14.6046 38.3739 14.6477 37.7392C14.6604 37.2847 14.635 36.8252 14.7213 36.3784C14.7467 35.7208 14.7949 35.0633 14.8356 34.4057C14.833 33.931 14.8381 33.4537 14.9143 32.9815C14.9346 32.362 14.9828 31.7451 15.0209 31.1281C15.0285 30.6762 15.0107 30.2218 15.0945 29.775C15.1199 29.1149 15.1681 28.4573 15.2062 27.7973C15.2011 27.2996 15.2189 26.802 15.2874 26.3121C15.3052 25.6748 15.3687 25.0401 15.3941 24.4029C15.3661 23.6057 15.521 22.8238 15.5083 22.0317ZM18.5419 24.7126C18.6587 24.7609 18.7755 24.8116 18.8973 24.8523C19.0319 24.9259 19.1715 24.9868 19.306 25.0604C19.3746 26.0506 19.367 27.0483 19.3924 28.041C19.5091 29.3129 19.433 30.595 19.4964 31.8695C19.5015 32.7327 19.5624 33.5959 19.5599 34.459C19.5574 35.2232 19.6361 35.9823 19.6437 36.744C19.6614 37.3837 19.6411 38.0235 19.6589 38.6633C19.6995 39.298 19.6691 39.9378 19.7249 40.5725C19.7376 41.2706 19.7478 41.9713 19.763 42.6695C19.796 42.9462 19.8087 43.228 19.8087 43.5073C19.0116 44.1547 18.2398 44.8351 17.3945 45.4165C17.4529 44.8859 17.4072 44.3502 17.463 43.8196C17.5443 43.2534 17.5239 42.6771 17.5823 42.1084C17.6458 41.494 17.5747 40.872 17.6864 40.2627C17.7194 39.3538 17.8159 38.45 17.8108 37.5411C17.8971 36.7008 17.9225 35.8579 17.9834 35.015C17.9809 34.52 17.9936 34.0224 18.0672 33.5299C18.085 32.9129 18.1383 32.2985 18.1713 31.6816C18.1764 31.25 18.1611 30.8133 18.2424 30.3868C18.2678 29.7064 18.3236 29.0286 18.3566 28.3507C18.3464 27.876 18.3744 27.3987 18.4378 26.9264C18.448 26.1877 18.5445 25.4514 18.5419 24.7126ZM27.8433 25.1391C28.0921 25.0274 28.3688 24.9868 28.6024 24.8421C28.6405 25.5809 28.61 26.3197 28.6836 27.0534C28.7192 28.3279 28.7192 29.6023 28.7725 30.8768C28.7902 31.3719 28.7877 31.8669 28.7928 32.3645C28.8029 32.5296 28.6938 32.659 28.6252 32.8012C28.2622 33.5502 27.823 34.2585 27.3889 34.9693C27.3356 35.0328 27.2874 35.1014 27.2417 35.1724C27.3204 34.6088 27.295 34.0401 27.3407 33.474C27.4346 32.8215 27.4042 32.1589 27.4651 31.5039C27.4981 31.0494 27.4905 30.595 27.5286 30.1431C27.625 29.4754 27.592 28.8001 27.6555 28.1324C27.6961 27.6322 27.658 27.1245 27.7469 26.6294C27.7977 26.1318 27.7545 25.6266 27.8433 25.1391ZM21.6898 25.7078C21.9614 25.751 22.2356 25.7561 22.5072 25.7738C22.5326 26.0556 22.5275 26.3349 22.5326 26.6167C22.6189 27.6652 22.6113 28.7163 22.6138 29.7674C22.6595 31.2069 22.7027 32.6489 22.7281 34.0909C22.822 35.1344 22.7865 36.188 22.8042 37.2339C22.8372 37.7468 22.8296 38.2622 22.8448 38.7775C22.888 39.3945 22.8855 40.0165 22.888 40.6334C22.1772 41.3138 21.507 42.045 20.7353 42.6543C20.781 42.1491 20.7429 41.6438 20.7937 41.1386C20.8724 40.5801 20.8597 40.0139 20.913 39.4529C20.9561 38.9908 20.9409 38.5287 20.9612 38.0667C20.9739 37.7798 21.0348 37.498 21.0374 37.2111C21.0475 36.6399 21.1135 36.0737 21.1313 35.5025C21.1313 35.0912 21.1262 34.6774 21.2024 34.2737C21.2278 33.6568 21.2684 33.0399 21.309 32.4229C21.3293 31.9482 21.2938 31.4683 21.3852 31.0012C21.4105 30.3437 21.4588 29.6861 21.4994 29.0286C21.4994 28.5564 21.5019 28.0816 21.5755 27.6145C21.606 26.9798 21.6365 26.3451 21.6898 25.7078ZM24.8402 25.7637C25.1169 25.7637 25.3911 25.7332 25.6602 25.6723C25.7642 26.6421 25.7363 27.6195 25.7617 28.5919C25.7693 29.4373 25.8226 30.2802 25.8226 31.1256C25.8175 31.8035 25.8658 32.4813 25.8607 33.1592C25.9496 34.1671 25.9216 35.1801 25.9521 36.1905C25.947 36.4774 25.9927 36.7643 25.9546 37.0486C25.3606 37.8255 24.7463 38.5897 24.0888 39.3132C24.0735 38.8232 24.1446 38.3383 24.1548 37.8509C24.1751 37.5005 24.1573 37.1476 24.2258 36.8024C24.2893 35.731 24.3198 34.6596 24.3909 33.5908C24.4746 33.017 24.4391 32.4356 24.4949 31.8593C24.5432 31.2881 24.5127 30.7092 24.6016 30.1406C24.6498 29.5643 24.6371 28.9854 24.6904 28.4091C24.7336 27.9166 24.6929 27.4164 24.7818 26.9264C24.8021 26.5431 24.83 26.1547 24.8402 25.7637ZM0 30.595C0.00761579 41.9231 0 53.2537 0.0025386 64.5818C11.609 64.5844 23.2129 64.5844 34.8194 64.5818C34.8194 53.2487 34.8219 41.9155 34.8169 30.5823C34.1035 30.5518 33.3876 30.5772 32.6718 30.5671C31.7122 30.5772 30.7526 30.5468 29.7955 30.5823C29.7905 30.8184 29.7905 31.0545 29.7955 31.2906C30.8973 31.3109 31.999 31.2932 33.1008 31.2982C33.4257 31.3033 33.7532 31.2779 34.0781 31.3211C34.0781 42.1592 34.0781 52.9999 34.0781 63.838C30.9988 63.8557 27.917 63.8405 24.8376 63.8456C16.8081 63.8405 8.77847 63.8532 0.751425 63.8405C0.748886 53.0024 0.759041 42.1643 0.746348 31.3262C0.835199 31.3109 0.92405 31.2957 1.01544 31.2957C4.24454 31.2982 7.47363 31.2957 10.7027 31.2957C11.6141 31.2856 12.528 31.316 13.4393 31.2805C13.4723 31.0469 13.4546 30.8083 13.447 30.5747C12.7387 30.5468 12.0304 30.5696 11.3221 30.562C7.78334 30.562 4.24454 30.562 0.708269 30.562C0.469641 30.5671 0.233551 30.5595 0 30.595ZM32.1133 33.9665C32.1513 33.6898 32.1285 33.408 32.1818 33.1338C32.225 33.573 32.2174 34.0173 32.2275 34.459C32.2326 35.8376 32.3113 37.2136 32.3087 38.5947C32.3519 39.1914 32.3062 39.7905 32.3798 40.3821C32.4154 41.39 32.4154 42.4004 32.4433 43.4083C32.4991 44.7665 32.4915 46.1248 32.5397 47.4805C32.6083 48.1355 32.5854 48.7982 32.6032 49.4582C32.6134 50.197 32.6337 50.9358 32.6591 51.6746C32.6844 52.2941 32.6565 52.9135 32.6946 53.533C32.7149 53.9849 32.6819 54.4368 32.7454 54.8862C32.7911 56.0616 32.7809 57.2371 32.8266 58.41C32.8825 59.7531 32.8393 61.1011 32.9459 62.4416C32.1539 62.5254 31.3542 62.4924 30.5571 62.5127C30.5393 62.4772 30.5063 62.4035 30.4886 62.368C30.5596 62.0837 30.5343 61.7866 30.5647 61.4972C30.5673 60.8752 30.6434 60.2608 30.6485 59.6388C30.6485 59.2224 30.7297 58.8112 30.7399 58.3948C30.7653 57.5875 30.8287 56.7827 30.8516 55.9779C30.9531 55.2645 30.9252 54.5434 30.9887 53.8275C31.0293 53.3401 30.9912 52.845 31.0775 52.3601C31.1283 51.3522 31.1791 50.3443 31.2248 49.3364C31.3238 48.6636 31.2908 47.9807 31.3542 47.3053C31.3948 46.7925 31.3669 46.2771 31.4431 45.7668C31.504 45.1778 31.4837 44.5812 31.5395 43.9922C31.5802 43.4895 31.5446 42.9818 31.6309 42.4867C31.6792 41.8495 31.6766 41.2097 31.7325 40.575C31.768 40.1206 31.7325 39.661 31.8163 39.2117C31.8645 38.5973 31.8594 37.9804 31.9127 37.366C31.9483 36.876 31.9254 36.3809 31.999 35.8935C32.065 35.2512 32.032 34.6063 32.1133 33.9665ZM28.7217 38.0489C28.8436 37.894 28.907 37.6478 29.1152 37.597C29.1507 38.4043 29.1558 39.2091 29.1634 40.0165C29.2066 40.6131 29.1609 41.2122 29.2345 41.8063C29.2726 43.2255 29.2802 44.6447 29.3335 46.0639C29.3284 46.9093 29.3741 47.7496 29.3767 48.5951C29.3767 48.6966 29.3894 48.7982 29.4097 48.9022C29.4655 50.1564 29.4477 51.4106 29.501 52.6647C29.5366 53.467 29.5087 54.2718 29.5544 55.0741C29.5442 55.8585 29.6356 56.6379 29.6331 57.4199C29.6356 58.8391 29.7168 60.2583 29.7168 61.6775C29.7143 61.9593 29.7625 62.2436 29.7244 62.5254C28.9222 62.5254 28.1175 62.5483 27.3153 62.5406C27.3128 62.236 27.3229 61.9288 27.3712 61.6292C27.4296 61.0504 27.4118 60.469 27.4651 59.8927C27.5083 59.3798 27.4702 58.8594 27.559 58.3491C27.6123 57.3412 27.6606 56.3333 27.7063 55.3254C27.7824 54.7719 27.785 54.2109 27.8078 53.6523C27.8611 53.0989 27.856 52.5454 27.8941 51.992C27.9906 51.3166 27.9601 50.6337 28.0236 49.9558C28.0642 49.4633 28.0287 48.9632 28.115 48.4732C28.1632 47.775 28.1708 47.0743 28.2241 46.3787C28.2267 45.551 28.3612 44.7335 28.3587 43.9084C28.4298 43.19 28.3968 42.4639 28.4958 41.7479C28.5415 41.1843 28.5288 40.6182 28.5821 40.0546C28.61 39.3818 28.6176 38.709 28.7217 38.0489ZM25.2794 42.2633C25.5231 42.0018 25.7617 41.7302 26.0079 41.4712C26.0714 41.9916 26.0054 42.5223 26.0841 43.0402C26.1298 44.4594 26.1273 45.8785 26.1856 47.2952C26.1907 48.2422 26.2161 49.1891 26.2415 50.1361C26.3253 51.1415 26.2897 52.1519 26.3253 53.1598C26.3786 54.5384 26.3837 55.9169 26.4192 57.2955C26.5004 58.1358 26.475 58.9813 26.5004 59.8241C26.5055 60.7305 26.5664 61.6343 26.5614 62.5406C25.7541 62.5406 24.9443 62.5432 24.1345 62.5406C24.1573 62.109 24.1573 61.6775 24.1903 61.2484C24.2842 60.5832 24.2538 59.9079 24.3147 59.2402C24.3578 58.7375 24.3198 58.2272 24.4061 57.7296C24.4518 57.133 24.4467 56.5364 24.5 55.9423C24.533 55.4676 24.5203 54.9903 24.5711 54.5181C24.6498 53.9646 24.6219 53.401 24.6701 52.845C24.7107 52.3753 24.7056 51.9056 24.7361 51.436C24.8402 50.6769 24.8097 49.9101 24.8808 49.1485C24.8833 48.3005 25.0179 47.4627 25.0153 46.6148C25.0763 45.9598 25.0687 45.2997 25.1245 44.6421C25.2235 43.8526 25.1981 43.0529 25.2794 42.2633ZM22.6468 44.8706C22.7484 44.7869 22.8525 44.7107 22.9642 44.6421C23.0048 45.4876 22.9565 46.333 23.0073 47.1784C23.0048 47.9807 23.0708 48.7829 23.0682 49.5877C23.0809 49.9787 23.0809 50.3671 23.0911 50.7581C23.2079 51.9894 23.1317 53.2309 23.1926 54.4647C23.2129 55.6351 23.2688 56.808 23.2713 57.9784C23.3399 58.7781 23.3526 59.583 23.35 60.3852C23.3348 61.1037 23.3881 61.8222 23.3881 62.5432C22.5732 62.5305 21.7558 62.5889 20.9409 62.5559C20.9536 62.1725 21.0247 61.7968 21.0348 61.4134C21.0475 60.7406 21.144 60.0729 21.1288 59.4002C21.1186 58.9736 21.2024 58.5522 21.2201 58.1257C21.2328 57.4377 21.3293 56.7547 21.3141 56.0667C21.3039 55.6326 21.4029 55.2035 21.408 54.7694C21.4207 54.1296 21.5121 53.4949 21.4994 52.8526C21.5045 52.5454 21.5095 52.2331 21.5679 51.931C21.5933 51.2506 21.6492 50.5753 21.6822 49.8974C21.6746 49.4227 21.6974 48.9454 21.7634 48.4732C21.7812 47.8563 21.837 47.2419 21.8675 46.6249C21.87 46.2695 21.8649 45.9166 21.9056 45.5637C22.1543 45.3302 22.4082 45.1093 22.6468 44.8706ZM19.2426 47.6989C19.4254 47.5288 19.6462 47.4044 19.8391 47.2444C19.8391 48.8261 19.9382 50.4052 19.9407 51.9894C20.0372 53.0963 20.0143 54.2083 20.0245 55.3203C20.0676 55.9576 20.0372 56.5999 20.0905 57.2371C20.1159 58.1231 20.0981 59.0092 20.1692 59.8927C20.2098 60.7813 20.2047 61.6724 20.2098 62.561C19.4076 62.594 18.6028 62.5711 17.7981 62.5863C17.788 62.076 17.8057 61.5657 17.8768 61.0605C17.8971 60.2583 17.9961 59.4611 17.986 58.6563C17.9834 58.2602 18.0723 57.8743 18.0774 57.4783C18.09 56.8207 18.1865 56.1657 18.1713 55.5082C18.1586 55.0487 18.2576 54.5993 18.2652 54.1423C18.2804 53.5051 18.3693 52.8729 18.3566 52.2357C18.3591 51.9259 18.3693 51.6162 18.4251 51.3141C18.4505 50.7175 18.4886 50.1209 18.5292 49.5243C18.5597 49.0901 18.5115 48.6534 18.5876 48.2218C18.7628 48.0035 19.0217 47.869 19.2426 47.6989ZM15.3027 50.3595C15.7622 50.0599 16.2394 49.7807 16.6938 49.4735C16.7344 50.7454 16.7801 52.0148 16.7903 53.2867C16.8741 54.3327 16.8715 55.3812 16.8715 56.4298C16.9096 57.8286 16.9655 59.2275 16.9756 60.6264C17.0315 61.2763 17.0441 61.9313 17.0543 62.5838C16.2445 62.6295 15.4321 62.6143 14.6198 62.6219C14.6325 62.1116 14.6502 61.6013 14.6629 61.091C14.7543 60.2811 14.767 59.4662 14.8305 58.6538C14.8305 58.1587 14.8381 57.6611 14.9117 57.1711C14.9371 56.3257 15.0361 55.4853 15.026 54.6399C15.1097 53.759 15.1504 52.8729 15.2037 51.9894C15.1859 51.4436 15.2443 50.9003 15.3027 50.3595ZM13.2972 51.5121C13.381 51.4588 13.4749 51.4334 13.5688 51.4055C13.5967 52.5023 13.6373 53.6016 13.6475 54.7009C13.7668 56.0134 13.6907 57.3336 13.7541 58.6487C13.7541 59.39 13.8151 60.1288 13.81 60.8727C13.8303 61.4515 13.8125 62.0303 13.876 62.6067C13.056 62.6397 12.2335 62.6346 11.4135 62.6295C11.4415 62.1878 11.477 61.7485 11.4998 61.3068C11.5049 60.8752 11.4897 60.436 11.5709 60.0095C11.5963 59.3291 11.6471 58.6512 11.6852 57.9734C11.6776 57.4986 11.6979 57.0238 11.7664 56.5542C11.7842 55.9576 11.8324 55.3635 11.8679 54.7669C11.8806 54.3124 11.8527 53.8554 11.9416 53.4061C11.9923 52.9973 11.9162 52.5708 12.0507 52.1747C12.0837 52.1621 12.1497 52.1392 12.1827 52.1291C12.5458 51.9107 12.9291 51.7254 13.2972 51.5121ZM8.74293 53.7666C9.31919 53.5609 9.84722 53.236 10.426 53.0354C10.4235 53.5711 10.4819 54.1042 10.4743 54.6374C10.4946 55.2746 10.4743 55.9144 10.5377 56.5491C10.6012 58.1358 10.5555 59.7251 10.6494 61.3093C10.6596 61.7485 10.6596 62.1878 10.6723 62.6295C9.87769 62.6777 9.07803 62.6092 8.28345 62.6777C8.22506 62.5584 8.26314 62.4162 8.2606 62.2893C8.26821 61.8806 8.31645 61.4743 8.33168 61.0656C8.37737 60.5934 8.33422 60.1186 8.38753 59.6464C8.46623 59.1133 8.44338 58.57 8.50177 58.0343C8.56523 57.359 8.5043 56.676 8.61346 56.0058C8.64647 55.2594 8.70485 54.513 8.74293 53.7666ZM5.48083 55.1629C6.06979 54.8989 6.6689 54.6552 7.27816 54.4444C7.31878 55.4168 7.33909 56.3866 7.35178 57.359C7.47109 58.735 7.40001 60.1186 7.46094 61.4997C7.44317 61.8958 7.51933 62.2995 7.46094 62.693C6.65874 62.6854 5.85655 62.7311 5.05435 62.7006C5.05943 62.5863 5.06958 62.4696 5.09243 62.3578C5.18889 60.5071 5.27013 58.6563 5.38944 56.8055C5.37421 56.2546 5.43006 55.7087 5.48083 55.1629ZM3.17071 55.9829C3.49819 55.8992 3.79774 55.7367 4.13284 55.6732C4.21915 56.3739 4.1963 57.0822 4.21407 57.7855C4.22423 58.5471 4.24454 59.3088 4.27246 60.0704C4.30039 60.7076 4.26992 61.3474 4.31054 61.9846C4.31562 62.2233 4.33339 62.4645 4.308 62.7031C3.57435 62.7437 2.83308 62.7209 2.09688 62.7158C2.08673 62.2868 2.16542 61.8602 2.14765 61.4312C2.18827 59.7226 2.18066 58.0114 2.25935 56.3028C2.56145 56.1962 2.87369 56.1073 3.17071 55.9829Z" fill="#008598"/>
<path fill-rule="evenodd" clip-rule="evenodd" d="M62.6653 28.9575C62.6754 28.9143 62.6983 28.8305 62.7085 28.7874C62.8506 28.9168 62.8912 29.1098 62.9852 29.2723C65.2064 33.7583 67.4125 38.2545 69.6388 42.738C69.9993 43.4438 70.3166 44.1724 70.7025 44.8655C71.1569 44.8655 71.6139 44.8655 72.0683 44.8655C72.0657 45.2616 72.0733 45.6576 72.0657 46.0537C70.309 46.0537 68.5523 46.0537 66.7956 46.0537C66.562 46.0562 66.3285 46.0638 66.0949 46.0308C66.1 45.6424 66.0975 45.254 66.0975 44.8655C66.7651 44.8478 67.4379 44.896 68.103 44.8401C68.0522 44.6015 67.9329 44.3882 67.8288 44.1724C67.2297 42.837 66.6103 41.5118 65.9985 40.184C65.9528 40.0901 65.836 40.1104 65.7522 40.1053C63.602 40.1104 61.4518 40.0926 59.3017 40.0951C58.6568 41.5194 58.0425 42.9564 57.4079 44.3857C57.3165 44.5456 57.2403 44.7208 57.2505 44.9087C57.7607 44.9188 58.2735 44.8782 58.7787 44.9315C58.7685 45.3149 58.7863 45.6983 58.766 46.0816C57.2505 46.0765 55.7349 46.0867 54.2219 46.0765C54.2245 45.7059 54.2067 45.3352 54.2245 44.9645C54.2372 44.9519 54.26 44.9265 54.2727 44.9112C54.7195 44.8782 55.1688 44.9493 55.6131 44.8681C56.1005 43.6875 56.6564 42.5375 57.1489 41.3595C58.1694 39.105 59.1569 36.8353 60.1673 34.5758C60.7004 33.3242 61.2614 32.0852 61.8123 30.8412C62.0992 30.2116 62.3632 29.5769 62.6653 28.9575ZM62.2109 33.1008C61.957 33.7482 61.6473 34.3727 61.3731 35.0125C60.8502 36.1625 60.3552 37.3228 59.85 38.4805C59.7688 38.6201 59.6977 38.7674 59.6875 38.9324C60.7436 38.9349 61.7971 38.9451 62.8531 38.9501C63.668 38.9984 64.4855 38.9806 65.3004 38.9806C65.2572 38.8105 65.176 38.6582 65.0947 38.5059C64.1808 36.6957 63.2619 34.8906 62.3556 33.0779C62.32 33.0855 62.2464 33.0957 62.2109 33.1008ZM44.5803 30.6889C45.2378 30.6813 45.8979 30.7067 46.5554 30.6635C48.2029 30.6635 49.8479 30.6584 51.4955 30.661C51.7265 30.661 51.9575 30.6432 52.186 30.6864C52.1809 31.7882 52.186 32.8926 52.1834 33.997C51.6909 33.9919 51.1984 34.0071 50.706 33.9893C50.711 33.3648 50.7034 32.7403 50.711 32.1157C50.7136 31.9989 50.6983 31.8847 50.678 31.7704C48.4974 31.7755 46.3167 31.7704 44.1386 31.7654C44.1462 36.1854 44.1335 40.6054 44.1361 45.0255C45.2937 45.028 46.4538 45.0255 47.6114 45.0255C48.2384 45.0204 48.901 45.0763 49.4849 44.7944C50.1576 44.5025 50.6679 43.916 50.9624 43.2509C51.564 41.9104 51.4345 40.2068 50.4699 39.0644C50.1119 38.6277 49.6296 38.3053 49.1117 38.0844C48.241 37.7468 47.289 37.7112 46.37 37.8077C46.3573 38.4881 46.3878 39.1685 46.3827 39.8489C46.0172 39.8971 45.6465 39.8692 45.281 39.8692C45.2784 38.8816 45.2708 37.894 45.2835 36.9064C46.0756 36.9013 46.8701 36.9115 47.6647 36.8912C49.1066 36.8201 50.6146 37.0791 51.8382 37.8864C52.1276 38.0666 52.3814 38.2951 52.6353 38.5185C52.6911 38.582 52.7495 38.6455 52.8079 38.709C53.1075 39.0415 53.3436 39.4224 53.5543 39.8133C53.732 40.2145 53.8487 40.6384 53.9401 41.0675C53.9604 41.3848 53.9655 41.7073 53.9351 42.0246C53.8487 42.342 53.7929 42.6695 53.6558 42.9691C53.374 43.6875 52.8511 44.2816 52.2748 44.7818C51.8077 45.1245 51.3025 45.4164 50.7618 45.6297C49.9317 45.942 49.0483 46.0791 48.1623 46.074C45.3292 46.0791 42.4961 46.074 39.6631 46.0892C39.6554 45.7033 39.6631 45.3174 39.6554 44.9315C40.3028 44.9366 40.9501 44.9493 41.6 44.9417C41.6127 40.5623 41.6102 36.1829 41.6025 31.8034C40.9679 31.7781 40.3332 31.7628 39.6986 31.7603C39.7214 31.4023 39.6453 31.0291 39.7468 30.6813C41.3588 30.6991 42.9708 30.6838 44.5803 30.6889ZM72.6953 30.6635C73.7513 30.6407 74.8099 30.661 75.8685 30.6534C76.427 30.6686 76.9881 30.6229 77.544 30.6762C77.5262 31.0088 77.5694 31.3439 77.5212 31.6714C77.0642 31.6993 76.6047 31.7222 76.1478 31.7197C76.1199 33.2886 76.1351 34.8601 76.1402 36.4317C79.0494 36.4367 81.9612 36.4342 84.8704 36.4342C84.9034 35.3654 84.8806 34.294 84.8882 33.2252C84.8704 32.7123 84.906 32.197 84.8704 31.6841C84.4693 31.6816 84.0682 31.6841 83.6671 31.6816C83.6697 31.3388 83.662 30.9961 83.6722 30.6534C84.6724 30.6432 85.6726 30.6534 86.6728 30.6508C87.2922 30.6661 87.9167 30.6204 88.5362 30.6737C88.5336 31.0037 88.5311 31.3338 88.5387 31.6638C88.0716 31.712 87.6019 31.6714 87.1348 31.6867C87.1221 36.0635 87.1272 40.4404 87.1323 44.8173C87.6248 44.8554 88.1224 44.7741 88.6123 44.8503C88.6047 45.2108 88.6072 45.5713 88.6098 45.9318C86.9648 45.9572 85.3172 45.9369 83.6697 45.9445C83.6697 45.5764 83.6697 45.2108 83.6697 44.8427C84.0682 44.7792 84.4719 44.8731 84.8755 44.8198C84.9136 43.0122 84.8653 41.2046 84.8933 39.3995C84.8882 38.7369 84.8958 38.0717 84.878 37.4091C81.9663 37.4116 79.057 37.4116 76.1453 37.4091C76.1326 39.8235 76.1453 42.2379 76.1376 44.6523C76.1478 44.7183 76.1122 44.8706 76.2341 44.8427C76.686 44.8681 77.1455 44.797 77.5897 44.8833C77.5694 45.2235 77.6049 45.5662 77.5719 45.9064C77.4882 46.0029 77.346 45.975 77.2343 45.9826C75.7213 45.9724 74.2108 45.9978 72.6978 45.975C72.7004 45.6069 72.7004 45.2413 72.6978 44.8731C73.0913 44.8224 73.4873 44.8605 73.8834 44.8401C73.9138 44.6345 73.9113 44.4263 73.9037 44.2181C73.9189 40.6156 73.8986 37.0156 73.9087 33.413C73.891 32.8393 73.9443 32.2604 73.8757 31.6892C73.4823 31.6892 73.0888 31.6917 72.6953 31.6867C72.6978 31.3414 72.6978 31.0012 72.6953 30.6635ZM90.5112 30.6077C92.1359 30.6153 93.7606 30.6077 95.3828 30.6102C95.3828 30.9631 95.3802 31.316 95.3853 31.6689C94.9156 31.6613 94.446 31.6917 93.9764 31.6867C93.9662 36.0788 93.9687 40.4734 93.9738 44.8655C94.4536 44.8706 94.936 44.8605 95.4183 44.8731C95.4183 45.2311 95.4157 45.5865 95.4208 45.9445C95.1619 46.0004 94.8953 45.975 94.6339 45.9801C93.263 45.9902 91.8922 45.9724 90.5213 46.0181C90.4985 45.6322 90.5163 45.2489 90.5086 44.863C90.9123 44.8681 91.3134 44.8681 91.717 44.863C91.7221 40.4582 91.7246 36.0559 91.717 31.6511C91.3134 31.6486 90.9123 31.646 90.5112 31.6537C90.5112 31.3033 90.5112 30.9555 90.5112 30.6077ZM99.4064 31.6841C99.9852 31.6867 100.561 31.6867 101.14 31.6867C101.117 31.7501 101.097 31.8161 101.079 31.8796C99.7872 32.9586 98.5154 34.0655 97.2309 35.1496C96.4236 35.8807 95.5605 36.5484 94.7633 37.2898C94.8243 37.3279 94.8801 37.3761 94.9309 37.4294C95.2406 37.7925 95.5985 38.1073 95.8981 38.4805C96.1088 38.6963 96.3119 38.9171 96.5251 39.1304C98.1828 40.9406 99.8811 42.7126 101.549 44.5152C101.668 44.6294 101.79 44.7513 101.843 44.9138C101.465 44.9214 101.087 44.8985 100.709 44.9112C100.704 45.2692 100.709 45.6272 100.706 45.9877C100.963 46.0308 101.222 46.0105 101.48 46.0131C103.26 46.0156 105.04 46.0105 106.817 46.0156C106.834 45.9928 106.872 45.9471 106.89 45.9242C106.913 45.5739 106.949 45.2235 106.936 44.8731C106.349 44.8858 105.761 44.9265 105.174 44.9062C104.976 44.863 104.867 44.67 104.737 44.5355C103.689 43.4463 102.603 42.3953 101.572 41.2884C100.272 39.9936 99.0129 38.6607 97.7208 37.3609C97.5863 37.2187 97.4162 37.0994 97.3502 36.9064C98.9444 35.5075 100.544 34.1163 102.135 32.7174C102.542 32.3874 102.907 32.0015 103.336 31.6968C103.89 31.6663 104.448 31.7019 105.001 31.674C105.009 31.3185 105.004 30.9631 105.004 30.6077C103.138 30.6051 101.272 30.6077 99.4064 30.6051C99.409 30.9682 99.409 31.3261 99.4064 31.6841ZM95.6366 48.6763C95.7686 48.5138 95.9082 48.3589 96.0682 48.2218C96.1139 48.8794 96.0758 49.5395 96.091 50.197C96.0961 53.9823 96.0986 57.7651 96.1037 61.5505C96.1215 62.2156 96.0682 62.8859 96.1367 63.5485C96.5911 63.5561 97.0455 63.5231 97.4999 63.5739C97.4949 63.9243 97.5025 64.2746 97.4923 64.625C95.8194 64.6224 94.1465 64.6275 92.4761 64.6199C92.372 64.6402 92.311 64.5361 92.3136 64.4472C92.3034 64.1578 92.2907 63.8633 92.3212 63.5739C92.7223 63.5764 93.1234 63.5764 93.5245 63.5764C93.5956 63.5637 93.753 63.6018 93.7225 63.4698C93.7301 59.9358 93.7276 56.4018 93.7225 52.8678C93.593 52.911 93.4788 52.9821 93.4128 53.1065C92.9254 53.6675 92.4177 54.2134 91.9303 54.7719C91.4428 55.333 90.9377 55.8763 90.4502 56.4374C89.9578 56.9933 89.4602 57.5468 88.9677 58.1028C88.2163 58.9381 87.4801 59.7886 86.7414 60.6314C86.6703 60.6848 86.6144 60.7508 86.5687 60.8269C86.1219 61.3068 85.6955 61.8069 85.2588 62.2969C85.1903 62.3527 85.1344 62.4188 85.0862 62.4949C84.6394 62.9747 84.2155 63.4774 83.7763 63.9623C83.7128 64.0233 83.657 64.0893 83.6062 64.1604C83.2686 64.5234 82.936 64.8966 82.6238 65.28C82.5958 60.2912 82.6364 55.3 82.5984 50.3112C82.5933 50.2706 82.5806 50.1919 82.5755 50.1513C82.111 50.1538 81.6439 50.1538 81.1768 50.1564C81.1742 49.8111 81.1768 49.4658 81.1768 49.1205C82.9233 49.118 84.6673 49.1231 86.4139 49.1155C86.4063 49.4608 86.4063 49.806 86.3986 50.1538C85.929 50.1589 85.4594 50.1411 84.9923 50.164C84.9846 51.8624 84.9872 53.5609 84.9872 55.2594C84.9339 56.9654 84.9745 58.674 84.9567 60.3801C84.9973 60.375 85.0811 60.3623 85.1243 60.3573C85.995 59.3646 86.8911 58.3973 87.7644 57.4046C88.3356 56.7979 88.8814 56.1733 89.4399 55.5564C89.8131 55.1476 90.1812 54.7313 90.5543 54.3251C90.7371 54.1169 90.93 53.9189 91.1103 53.7082C91.4784 53.2943 91.8465 52.883 92.2222 52.4768C92.3999 52.2661 92.5979 52.0706 92.7756 51.8574C93.3239 51.2354 93.8926 50.6286 94.4435 50.0066C94.8293 49.5572 95.2355 49.1205 95.6366 48.6763ZM38.5359 49.1205C40.3866 49.0622 42.2423 49.1282 44.0929 49.0799C44.7707 49.1231 45.4511 49.0901 46.1238 49.2018C46.9031 49.2957 47.685 49.4887 48.373 49.8771C48.8959 50.1767 49.3529 50.6311 49.5585 51.2074C49.7946 51.7203 49.6956 52.2991 49.6804 52.8424C49.5788 53.3019 49.4316 53.7665 49.1295 54.1372C48.6395 54.7541 47.878 55.0893 47.1138 55.2137C46.8321 55.2873 46.5401 55.272 46.2558 55.3355C46.2558 55.4091 46.2533 55.4853 46.2533 55.5615C47.0377 55.7646 47.8246 55.9854 48.5507 56.3536C48.8096 56.5034 49.066 56.6608 49.3072 56.8385C49.49 57.0162 49.6753 57.1914 49.8428 57.3843C50.2008 57.8616 50.4419 58.4278 50.5283 59.0193C50.7212 59.7708 50.579 60.5553 50.3709 61.2864C50.2871 61.5835 50.1195 61.845 50.0358 62.1395L49.9875 62.1319C49.9215 62.335 49.7819 62.4975 49.6626 62.6701C49.4367 62.9417 49.1803 63.1855 48.9162 63.419C48.7233 63.5333 48.5431 63.6653 48.3527 63.7846C48.2283 63.8354 48.1064 63.8938 47.9947 63.97C46.9412 64.4193 45.7836 64.5818 44.6438 64.5564C42.7322 64.5564 40.8181 64.5539 38.9066 64.5564C38.772 64.5463 38.6273 64.5793 38.5029 64.5259C38.4801 63.5384 38.5029 62.5508 38.4928 61.5632C38.5131 61.5378 38.5512 61.4896 38.5715 61.4642C39.069 61.4667 39.5666 61.4667 40.0667 61.4642C40.1073 62.0912 40.0667 62.7209 40.0895 63.3479C41.7523 63.3632 43.4151 63.3479 45.0753 63.3556C45.6922 63.353 46.3193 63.1702 46.7889 62.7589C46.8574 62.7056 46.9234 62.6472 46.9818 62.5863C47.7206 61.8323 48.0201 60.7178 47.8957 59.687C47.845 58.4887 47.1595 57.3437 46.1441 56.709C45.2048 56.0921 44.0447 55.9372 42.9429 55.9702C42.8998 56.5389 42.9302 57.1101 42.9252 57.6788C42.486 57.755 42.0366 57.7194 41.5924 57.7448C41.5899 56.8131 41.5949 55.8814 41.5899 54.9522C42.4631 54.9496 43.3364 54.9598 44.2097 54.9496C44.923 54.9014 45.6567 54.744 46.2431 54.3124C46.7204 53.962 47.1113 53.439 47.1697 52.8348C47.2408 52.4845 47.1468 52.1341 47.1316 51.7837C47.1367 51.2684 46.8067 50.786 46.3497 50.5626C45.7202 50.2655 45.0119 50.2402 44.3315 50.1868C42.9252 50.1843 41.5162 50.1767 40.1098 50.1894C40.1048 50.5981 40.1048 51.0069 40.1073 51.4182C40.1048 51.5375 40.1124 51.6644 40.0565 51.7761C39.559 51.8447 39.0513 51.7355 38.5537 51.8066C38.4674 51.672 38.4928 51.507 38.4928 51.3572C38.4953 50.8419 38.4928 50.329 38.4953 49.8162C38.5029 49.5928 38.475 49.3541 38.5359 49.1205ZM51.663 49.1231C52.3459 49.0723 53.0313 49.1129 53.7167 49.1002C56.7148 49.1028 59.7104 49.0926 62.7085 49.1053C62.7161 50.1437 62.7059 51.1821 62.7135 52.2204C62.3124 52.2128 61.9113 52.228 61.5128 52.2179C61.4848 51.573 61.5458 50.9231 61.4798 50.2833C59.7154 50.2884 57.9537 50.2859 56.1893 50.2859C55.8822 50.2909 55.5725 50.2655 55.2678 50.3087C55.2627 51.7558 55.2678 53.2029 55.2653 54.6475C55.2399 54.7567 55.3237 54.8582 55.4379 54.8354C56.5498 54.8379 57.6617 54.8354 58.7736 54.8354C59.294 54.8481 59.8144 54.81 60.3349 54.8582C60.3298 55.8001 60.3323 56.7445 60.3323 57.6864C59.9972 57.6864 59.6621 57.6864 59.327 57.6839C59.3245 57.0949 59.3296 56.5084 59.327 55.9194C58.7355 55.8585 58.1364 55.9093 57.5424 55.8941C56.824 55.8966 56.1056 55.8839 55.3871 55.8991C55.2653 55.8915 55.3211 56.0515 55.3059 56.1225C55.3084 58.5192 55.3084 60.9158 55.3059 63.3124C55.5725 63.3911 55.8492 63.3099 56.1233 63.3302C56.7174 63.3759 57.3139 63.3505 57.9105 63.3581C59.4007 63.3632 60.8908 63.3556 62.381 63.3657C62.48 63.1017 62.414 62.8123 62.4317 62.5381C62.447 62.0506 62.3784 61.5632 62.4267 61.0783C62.843 61.0402 63.2593 61.0681 63.6782 61.0529C63.762 61.2915 63.7188 61.5479 63.7264 61.7967C63.734 62.5178 63.7137 63.2388 63.7264 63.9598C63.7239 64.168 63.7467 64.3812 63.6782 64.5818C60.1115 64.5716 56.5447 64.5793 52.9805 64.5767C52.5337 64.5666 52.0819 64.6021 51.6351 64.5539C51.6503 64.1527 51.5995 63.7491 51.6656 63.353C52.0616 63.3632 52.4576 63.3556 52.8536 63.3581C52.9374 63.3683 53.0795 63.3505 53.0516 63.2286C53.0516 58.8848 53.0516 54.5409 53.0516 50.197C52.5896 50.1894 52.125 50.2148 51.663 50.1792C51.6681 49.8289 51.6655 49.476 51.663 49.1231ZM96.9313 49.2119C96.9237 49.7679 96.9313 50.3214 96.9288 50.8774C96.9414 51.3598 96.8983 51.8447 96.9465 52.3245C97.2765 52.3804 97.6218 52.355 97.9594 52.3702C98 51.6593 97.9417 50.9459 97.995 50.2376C99.4521 50.2427 100.909 50.2275 102.364 50.2452C102.369 54.6907 102.361 59.1335 102.366 63.579C101.937 63.6272 101.501 63.5663 101.072 63.612C101.018 63.9217 101.044 64.2492 101.062 64.564C101.138 64.5793 101.216 64.5869 101.295 64.5843C102.364 64.5793 103.433 64.5843 104.504 64.5818C105.032 64.5691 105.568 64.6072 106.093 64.564C106.134 64.2518 106.126 63.9243 106.096 63.612C105.639 63.5663 105.177 63.6298 104.717 63.5764C104.725 59.131 104.704 54.6856 104.727 50.2402C106.212 50.2351 107.697 50.2351 109.183 50.2402C109.223 50.951 109.147 51.667 109.221 52.3727C109.477 52.3677 109.736 52.3702 109.995 52.3727C110.005 51.2887 109.995 50.2021 110 49.118C108.972 49.1155 107.944 49.118 106.913 49.1155C103.664 49.0698 100.414 49.1053 97.1623 49.0901C97.0735 49.0977 96.9084 49.0723 96.9313 49.2119ZM64.912 49.1282C66.5417 49.1332 68.1741 49.1129 69.8038 49.1383C69.7988 49.4836 69.8038 49.8289 69.7988 50.1742C69.3215 50.2097 68.8442 50.197 68.3695 50.2046C68.3594 51.7863 68.3695 53.3705 68.3644 54.9522C69.8774 54.9826 71.393 54.9572 72.9085 54.9649C74.1372 54.9572 75.3684 54.9801 76.5997 54.9547C76.6047 53.3654 76.5997 51.7787 76.6022 50.1919C76.2011 50.1411 75.7949 50.1894 75.3938 50.1615C75.3938 49.8187 75.3938 49.476 75.3938 49.1332C77.0211 49.1256 78.6483 49.1256 80.2756 49.1332C80.2756 49.4811 80.2705 49.8289 80.2781 50.1742C79.7907 50.2072 79.3033 50.1589 78.8184 50.197C78.8235 54.6069 78.8159 59.0168 78.8209 63.4267C79.3109 63.4393 79.8008 63.4267 80.2908 63.4343C80.339 63.81 80.306 64.1883 80.3136 64.5666C79.2449 64.5666 78.1736 64.5666 77.1048 64.5666C76.5337 64.559 75.9625 64.6148 75.3913 64.559C75.3888 64.1934 75.3913 63.8278 75.3887 63.4647C75.7822 63.3987 76.1859 63.4444 76.5819 63.4343C76.6225 61.0833 76.5844 58.7299 76.5997 56.3764C76.6022 56.2317 76.5971 56.0845 76.5667 55.9448C73.8351 55.9474 71.1011 55.9423 68.3695 55.9474C68.3619 58.4532 68.3619 60.9589 68.3695 63.4647C68.8595 63.4825 69.3545 63.4393 69.8444 63.4927C69.8368 63.8532 69.8394 64.2162 69.8419 64.5793C68.1969 64.5945 66.5544 64.592 64.9094 64.5869C64.917 64.2137 64.912 63.843 64.9145 63.4698C65.3105 63.4698 65.704 63.4673 66.1 63.4698C66.1483 63.2058 66.1356 62.9367 66.1356 62.6726C66.1279 59.1742 66.1356 55.6783 66.1356 52.1798C66.1229 51.5096 66.166 50.8393 66.1026 50.1742C65.7065 50.1742 65.3105 50.1716 64.917 50.1742C64.912 49.8213 64.9145 49.4734 64.912 49.1282Z" fill="#6F6F6F"/>
</svg>
